<svg width="24" height="24" viewBox="0 0 24 24" xmlns="http://www.w3.org/2000/svg">
    <title>
        PIKTO/03_Reisen/01_Verkehrsmittel/3010_Luftseilbahn_r
    </title>
    <g fill="none" fill-rule="evenodd">
        <path d="M22.5 0h-21C.675 0 0 .675 0 1.5v21c0 .825.675 1.5 1.5 1.5h21c.825 0 1.5-.675 1.5-1.5v-21c0-.825-.675-1.5-1.5-1.5z" fill="#E6EAF2"/>
        <g fill="#1E1E1E">
            <path d="M8.775 5.438l6.465-1.133a.695.695 0 0 0-.113-1.38c-.037 0-.082 0-.12.007L8.542 4.065a.699.699 0 0 0-.577.682c0 .383.308.69.69.69a.322.322 0 0 0 .12 0zM3 7.515l18-3.15v-.69L3 6.833z"/>
            <path d="M20.25 11.25h-3.712l-2.776-5.243-1.05.18 2.678 5.055H8.647l2.49-4.777-1.305.225-2.37 4.56H3.75A.752.752 0 0 0 3 12v8.25c0 .413.338.75.75.75h16.5c.413 0 .75-.337.75-.75V12a.752.752 0 0 0-.75-.75zM8.752 16.125c0 .21-.165.375-.375.375H4.125a.371.371 0 0 1-.375-.375v-3.75c0-.21.165-.375.375-.375h4.252c.21 0 .375.165.375.375v3.75zm5.746 0c0 .21-.165.375-.375.375H9.87a.371.371 0 0 1-.375-.375v-3.75c0-.21.165-.375.375-.375h4.253c.21 0 .375.165.375.375v3.75zm5.752 0c0 .21-.165.375-.375.375h-4.252a.371.371 0 0 1-.375-.375v-3.75c0-.21.165-.375.375-.375h4.252c.21 0 .375.165.375.375v3.75z" fill-rule="nonzero"/>
        </g>
    </g>
</svg>
