<svg width="24" height="24" viewBox="0 0 24 24" xmlns="http://www.w3.org/2000/svg">
    <title>
        PIKTO/03_Reisen/01_Verkehrsmittel/3012_Sessellift_r
    </title>
    <g fill="none" fill-rule="evenodd">
        <path d="M22.5 0h-21C.675 0 0 .675 0 1.5v21c0 .825.675 1.5 1.5 1.5h21c.825 0 1.5-.675 1.5-1.5v-21c0-.825-.675-1.5-1.5-1.5z" fill="#2D327D"/>
        <g fill="#FFF">
            <path d="M8.212 5.13L21 3v.682L8.212 5.812zM6.412 5.43v.683L3 6.683V6zM4.725 17.025v-3.712a1.123 1.123 0 0 1 2.04-.653l1.86 2.625a.509.509 0 0 1-.413.802.498.498 0 0 1-.412-.217l-.75-1.058v1.576h2.063c.412 0 .75.337.75.75v3.172a.69.69 0 0 1-.698.69.688.688 0 0 1-.69-.69v-2.535h-3a.752.752 0 0 1-.75-.75z"/>
            <path d="M6.825 4.5H7.8v3.93l-3.825.637v9.458H7.8v.975H3V8.242l3.825-.637z"/>
            <path d="M5.985 11.775c-.577 0-1.05-.473-1.05-1.05 0-.577.473-1.05 1.05-1.05.578 0 1.05.473 1.05 1.05 0 .585-.472 1.05-1.05 1.05z"/>
        </g>
    </g>
</svg>
