<svg width="24" height="24" viewBox="0 0 24 24" xmlns="http://www.w3.org/2000/svg">
    <title>
        PIKTO/04_Funktionen/01_Auf-Abgaenge/4013_Lift
    </title>
    <g fill="none" fill-rule="evenodd">
        <path d="M22.5 0h-21C.675 0 0 .675 0 1.5v21c0 .825.675 1.5 1.5 1.5h21c.825 0 1.5-.675 1.5-1.5v-21c0-.825-.675-1.5-1.5-1.5z" fill="#E6EAF2"/>
        <g fill="#1E1E1E">
            <path d="M12.233 5.625V3.398l.922 1.004v-.675L12 2.573l-1.155 1.154v.675l.922-1.004v2.227zM11.767 18.375v2.228l-.922-1.006v.675L12 21.428l1.155-1.156v-.675l-.922 1.006v-2.228z"/>
            <path d="M17.925 6.075H6.075v11.85h11.85V6.075zm-.75 11.1H6.825V6.825h10.35v10.35z" fill-rule="nonzero"/>
            <path d="M18.75 3H21v18h-2.25zM3 3h2.25v18H3zM10.335 9.015a.78.78 0 1 0 .001-1.559.78.78 0 0 0-.001 1.559zM8.873 13.005a.293.293 0 0 0 .292-.293V10.47h.195v6.015c0 .217.173.39.39.39.217 0 .39-.172.39-.39v-3.48h.292v3.48c0 .217.173.39.39.39.218 0 .39-.172.39-.39V10.47h.195v2.242c0 .165.135.293.293.293a.298.298 0 0 0 .292-.293v-2.64a.78.78 0 0 0-.78-.78H9.36a.78.78 0 0 0-.78.78v2.64c0 .165.135.293.293.293z"/>
        </g>
    </g>
</svg>
