<svg width="52" height="49" viewBox="0 0 52 49" fill="none" xmlns="http://www.w3.org/2000/svg"><path d="M14.8182 48.7741C10.7667 48.7741 7.40078 47.8087 4.72055 45.8779C2.10265 43.9471 0.793701 40.7291 0.793701 36.2239C0.793701 32.4267 1.91566 29.3053 4.15957 26.8596C6.46582 24.3496 9.67587 22.5153 13.7897 21.3569C17.9036 20.134 22.703 19.5548 28.1882 19.6192V15.8541C28.1882 12.3787 27.596 9.6434 26.4117 7.64825C24.1678 3.31922 14.3 4.60979 13.2287 6.48978C12.1574 8.36976 12.9032 8.10234 14.2572 9.57904C15.6112 11.0557 15.2233 13.7302 14.1637 15.468C13.1041 17.1413 11.2965 17.978 8.7409 17.978C7.18263 17.978 5.87368 17.4631 4.81405 16.4333C3.75442 15.3392 3.22461 13.8268 3.22461 11.896C3.22461 9.9652 4.00375 8.16313 5.56202 6.48978C7.1203 4.81642 9.23955 3.46487 11.9198 2.43512C14.6623 1.341 17.7477 0.793945 21.1759 0.793945C26.8481 0.793945 31.1177 2.08114 33.9849 4.65553C36.8522 7.22991 38.2858 10.7697 38.2858 15.2749V38.673C38.2858 38.673 38.3216 43.7235 41.198 43.7235C43.7233 43.7235 42.4607 41.4371 42.4607 41.4371C39.9354 36.2239 47.1193 32.6471 50.0365 36.1477C55.7315 42.9817 47.5112 48.7741 37.9118 48.2914C35.6056 48.2914 33.6421 47.68 32.0215 46.4571C30.4632 45.2343 29.3725 43.3357 28.7491 40.7613C27.6272 42.8852 26.0066 44.7516 23.8873 46.3606C21.8304 47.9696 18.8074 48.7741 14.8182 48.7741ZM19.493 42.9817C21.3006 42.9817 22.8589 42.4668 24.1678 41.4371C25.4768 40.343 26.4741 39.0558 27.1597 37.5755C27.8453 36.0952 28.1882 34.6793 28.1882 33.3278V22.1042C23.264 21.9754 19.306 22.7799 16.3141 24.5176C13.3222 26.2553 10.739 29.6485 10.739 34.025C10.739 36.535 11.5354 38.6124 12.4704 39.8352C13.4053 40.9937 15.2233 42.1129 16.4076 42.499C17.6542 42.8208 18.6827 42.9817 19.493 42.9817Z" fill="white"/></svg>