<svg width="25" height="24" viewBox="0 0 25 24" fill="none" xmlns="http://www.w3.org/2000/svg">
  <path d="M7.41873 23.3423C5.5188 23.3423 3.94039 22.8896 2.68351 21.9841C1.45587 21.0787 0.842041 19.5696 0.842041 17.457C0.842041 15.6763 1.36818 14.2125 2.42045 13.0656C3.50195 11.8886 5.00728 11.0284 6.93644 10.4851C8.86561 9.9117 11.1163 9.64007 13.6885 9.67025V7.90466C13.6885 6.27488 13.4108 4.99218 12.8555 4.05657C11.8032 2.0265 7.17576 2.6317 6.67337 3.51331C6.17099 4.39492 6.52073 4.26951 7.15567 4.962C7.7906 5.65449 7.60873 6.90869 7.11182 7.72358C6.61492 8.50828 5.76725 8.90064 4.56883 8.90064C3.83809 8.90064 3.22426 8.65919 2.72736 8.17629C2.23045 7.66321 1.982 6.95396 1.982 6.04852C1.982 5.14309 2.34737 4.29802 3.07812 3.51331C3.80886 2.7286 4.80267 2.0948 6.05955 1.6119C7.34566 1.09882 8.79253 0.842285 10.4002 0.842285C13.0601 0.842285 15.0623 1.44591 16.4069 2.65315C17.7514 3.86039 18.4237 5.52035 18.4237 7.63303V18.6054C18.4237 18.6054 18.4405 20.9739 19.7894 20.9739C20.9736 20.9739 20.3815 19.9016 20.3815 19.9016C19.1973 17.457 22.5661 15.7796 23.9341 17.4212C26.6048 20.626 22.7499 23.3423 18.2484 23.1159C17.1669 23.1159 16.2461 22.8292 15.4861 22.2558C14.7554 21.6823 14.2439 20.792 13.9516 19.5847C13.4254 20.5807 12.6655 21.456 11.6717 22.2105C10.7071 22.965 9.28944 23.3423 7.41873 23.3423ZM9.61096 20.626C10.4586 20.626 11.1894 20.3845 11.8032 19.9016C12.417 19.3886 12.8847 18.7849 13.2062 18.0908C13.5277 17.3966 13.6885 16.7326 13.6885 16.0988V10.8356C11.3794 10.7752 9.52327 11.1525 8.12025 11.9674C6.71722 12.7823 5.50581 14.3735 5.50581 16.4258C5.50581 17.6028 5.8793 18.577 6.31775 19.1505C6.75619 19.6937 7.60873 20.2185 8.16409 20.3996C8.74869 20.5505 9.23098 20.626 9.61096 20.626Z" fill="white"/>
</svg>
