<svg width="21" height="20" viewBox="0 0 21 20" fill="none" xmlns="http://www.w3.org/2000/svg">
<path d="M10.4998 18.3332C5.90817 18.3332 2.1665 14.5915 2.1665 9.99984C2.1665 5.40817 5.90817 1.6665 10.4998 1.6665C15.0915 1.6665 18.8332 5.03317 18.8332 9.1665C18.8332 11.9248 16.5915 14.1665 13.8332 14.1665H12.3582C12.1248 14.1665 11.9415 14.3498 11.9415 14.5832C11.9415 14.6832 11.9832 14.7748 12.0498 14.8582C12.3915 15.2498 12.5832 15.7415 12.5832 16.2498C12.5832 17.3998 11.6498 18.3332 10.4998 18.3332ZM10.4998 3.33317C6.82484 3.33317 3.83317 6.32484 3.83317 9.99984C3.83317 13.6748 6.82484 16.6665 10.4998 16.6665C10.7332 16.6665 10.9165 16.4832 10.9165 16.2498C10.9165 16.1165 10.8498 16.0165 10.7998 15.9582C10.4582 15.5748 10.2748 15.0832 10.2748 14.5832C10.2748 13.4332 11.2082 12.4998 12.3582 12.4998H13.8332C15.6748 12.4998 17.1665 11.0082 17.1665 9.1665C17.1665 5.94984 14.1748 3.33317 10.4998 3.33317Z" fill="#14449E"/>
<path d="M5.9165 10.8335C6.60686 10.8335 7.1665 10.2739 7.1665 9.5835C7.1665 8.89314 6.60686 8.3335 5.9165 8.3335C5.22615 8.3335 4.6665 8.89314 4.6665 9.5835C4.6665 10.2739 5.22615 10.8335 5.9165 10.8335Z" fill="#14449E"/>
<path d="M8.4165 7.5C9.10686 7.5 9.6665 6.94036 9.6665 6.25C9.6665 5.55964 9.10686 5 8.4165 5C7.72615 5 7.1665 5.55964 7.1665 6.25C7.1665 6.94036 7.72615 7.5 8.4165 7.5Z" fill="#14449E"/>
<path d="M12.5835 7.5C13.2739 7.5 13.8335 6.94036 13.8335 6.25C13.8335 5.55964 13.2739 5 12.5835 5C11.8931 5 11.3335 5.55964 11.3335 6.25C11.3335 6.94036 11.8931 7.5 12.5835 7.5Z" fill="#14449E"/>
<path d="M15.0835 10.8335C15.7739 10.8335 16.3335 10.2739 16.3335 9.5835C16.3335 8.89314 15.7739 8.3335 15.0835 8.3335C14.3931 8.3335 13.8335 8.89314 13.8335 9.5835C13.8335 10.2739 14.3931 10.8335 15.0835 10.8335Z" fill="#14449E"/>
</svg>
