<svg width="100" height="121" viewBox="0 0 100 121" fill="none" xmlns="http://www.w3.org/2000/svg">
<g clip-path="url(#clip0_275_78412)">
<path d="M49.9867 0.373291H99.4575V73.0843C99.4575 99.2518 77.3441 120.418 50.013 120.418C22.7135 120.418 0.57373 99.2518 0.57373 73.0843V0.373291L49.9867 0.377924V0.373291Z" fill="#0093DD"/>
<path fill-rule="evenodd" clip-rule="evenodd" d="M0.200684 0L49.6136 0.0046333V3.49977e-05H99.8311V73.0843C99.8311 99.4732 77.535 120.791 50.0132 120.791C22.5232 120.791 0.200684 99.4733 0.200684 73.0843V0ZM50.3602 0.746626V0.751294L0.947274 0.746661V73.0843C0.947274 99.0304 22.9042 120.044 50.0132 120.044C77.1537 120.044 99.0845 99.0305 99.0845 73.0843V0.746626H50.3602Z" fill="black"/>
<path d="M50.013 120.413C22.7135 120.413 0.57373 99.2472 0.57373 73.0797V0.368652L49.9867 0.373286L50.013 120.418V120.413Z" fill="black"/>
<path d="M48.4338 45.1431C46.0961 45.1431 45.0273 44.6272 44.0638 44.1165C43.5478 43.8163 43.016 43.511 42.2842 43.3004C42.2684 43.2951 42.2473 43.2898 42.2262 43.2898C42.2052 43.2793 42.1894 43.274 42.1631 43.2635C41.6366 43.1266 41.01 43.0371 40.1834 43.0371H40.1571H40.1255C39.0251 43.0371 38.2774 43.1951 37.6719 43.4267C36.0029 44.0375 35.2342 45.1326 31.954 45.1431C31.059 45.1379 30.3482 45.0589 29.769 44.9325C27.3418 44.4113 27.0101 43.0371 23.7984 43.0371H23.7668H23.7405C19.7601 43.0371 20.0549 45.1431 15.4743 45.1431C10.8937 45.1431 11.3412 43.0371 7.35551 43.0371C3.65362 43.0371 3.52409 44.8062 0.758339 45.0536L0.757812 51.7614C3.52409 51.5139 3.65362 49.7501 7.35498 49.7501C11.3407 49.7501 10.8931 51.8561 15.4738 51.8561C16.1477 51.8561 16.7111 51.8088 17.2007 51.7298V51.735C19.9544 51.4876 20.0913 49.729 23.7663 49.7185C26.9569 49.729 27.2676 51.0927 29.7685 51.6192C30.3424 51.7456 31.0374 51.8246 31.9167 51.8246C31.9272 51.8246 31.9377 51.8193 31.9535 51.8193C31.9693 51.8193 31.9798 51.8246 31.9904 51.8246C35.439 51.8246 36.0761 50.7242 37.6714 50.1081C38.3032 49.8817 39.0667 49.7238 40.1565 49.7185C40.9832 49.7238 41.6255 49.8133 42.1625 49.9554C42.1889 49.9607 42.2047 49.966 42.2257 49.9712C42.2468 49.9712 42.2678 49.9818 42.2836 49.987C42.9892 50.1924 43.5104 50.4925 44.0632 50.7979C44.674 51.1454 45.2637 51.4876 46.1587 51.6561V51.6403C46.7642 51.7719 47.4908 51.8561 48.4333 51.8561C49.0335 51.8561 49.5495 51.8193 49.997 51.7614V45.0484C49.5495 45.1063 49.0335 45.1431 48.4333 45.1431" fill="white"/>
<path d="M48.4338 54.1255C46.0961 54.1255 45.0273 53.599 44.0638 53.0725C43.5478 52.7566 43.016 52.4775 42.2842 52.2669C42.2684 52.2617 42.2473 52.2564 42.2262 52.2564C42.2052 52.2459 42.1894 52.2406 42.1631 52.2353C41.6366 52.0932 41.01 52.0037 40.1834 52.0037H40.1571H40.1255C39.0251 52.0037 38.2774 52.1616 37.6719 52.3985C36.0029 53.0198 35.2342 54.0728 31.954 54.1255C31.059 54.1255 30.3482 54.0202 29.769 53.9149C27.3418 53.3884 27.0101 52.0037 23.7984 52.0037H23.7668H23.7405C19.7601 52.0037 20.0549 54.1255 15.4743 54.1255C10.8937 54.1255 11.3412 52.0037 7.35551 52.0037C3.65362 52.0037 3.52409 53.7569 0.758339 54.0202L0.757812 60.7069C3.52409 60.4963 3.65362 58.7061 7.35498 58.7061C11.3407 58.7061 10.8931 60.8122 15.4738 60.8122C16.1477 60.8122 16.7111 60.7595 17.2007 60.7069C19.9544 60.4436 20.0913 58.7061 23.7663 58.7061C26.9569 58.7061 27.2676 60.0751 29.7685 60.6016C30.3424 60.7069 31.0374 60.8122 31.9167 60.8122H31.9535H31.9904C35.439 60.8122 36.0761 59.7065 37.6714 59.0747C38.3032 58.8641 39.0667 58.7061 40.1565 58.7061C40.9832 58.7061 41.6255 58.7588 42.1625 58.9167H42.2257C42.2468 58.9167 42.2678 58.9694 42.2836 58.9694C42.9892 59.18 43.5104 59.4432 44.0632 59.7592C44.674 60.1277 45.2637 60.4436 46.1587 60.6016C46.7642 60.7595 47.4908 60.8122 48.4333 60.8122C49.0335 60.8122 49.5495 60.8122 49.997 60.7069V54.0202C49.5495 54.0728 49.0335 54.1255 48.4333 54.1255" fill="white"/>
<path d="M48.4338 63.076C46.0961 63.076 45.0273 62.5495 44.0638 62.023C43.5478 61.7597 43.016 61.4438 42.2842 61.2332H42.2262C42.2052 61.2332 42.1894 61.1806 42.1631 61.1806C41.6366 61.0753 41.01 60.97 40.1834 60.97H40.1571H40.1255C39.0251 60.97 38.2774 61.1279 37.6719 61.3385C36.0029 61.9703 35.2342 63.076 31.954 63.076C31.059 63.076 30.3482 62.9707 29.769 62.8654C27.3418 62.3389 27.0101 60.97 23.7984 60.97H23.7668H23.7405C19.7601 60.97 20.0549 63.076 15.4743 63.076C10.8937 63.076 11.3412 60.97 7.35551 60.97C3.65362 60.97 3.52409 62.7075 0.758339 62.9707L0.757812 69.71C3.52409 69.4468 3.65362 67.6566 7.35498 67.6566C11.3407 67.6566 10.8931 69.7627 15.4738 69.7627C16.1477 69.7627 16.7111 69.7627 17.2007 69.6574C19.9544 69.3941 20.0913 67.6566 23.7663 67.6566C26.9569 67.6566 27.2676 69.0256 29.7685 69.5521C30.3424 69.6574 31.0374 69.7627 31.9167 69.7627H31.9535H31.9904C35.439 69.7627 36.0761 68.657 37.6714 68.0252C38.3032 67.8146 39.0667 67.6566 40.1565 67.6566C40.9832 67.6566 41.6255 67.7619 42.1625 67.8672C42.1889 67.8672 42.2047 67.8672 42.2257 67.9199H42.2836C42.9892 68.1305 43.5104 68.4464 44.0632 68.7097C44.674 69.0782 45.2637 69.4468 46.1587 69.6047V69.5521C46.7642 69.71 47.4908 69.7627 48.4333 69.7627C49.0335 69.7627 49.5495 69.7627 49.997 69.71V62.9707C49.5495 63.0234 49.0335 63.076 48.4333 63.076" fill="white"/>
<path d="M86.3476 33.6863L89.2434 41.5155H96.8778L90.8756 45.6591L93.1396 53.0724L86.3476 48.7181L79.5556 53.0724L81.9249 45.6012L75.8174 41.5155H83.5044L86.3476 33.6863Z" fill="white"/>
<path fill-rule="evenodd" clip-rule="evenodd" d="M86.3443 32.6016L89.5032 41.1422H98.0755L91.3122 45.8113L93.7932 53.9349L86.3475 49.1616L78.8874 53.9441L81.4842 45.7556L74.5879 41.1422H83.2427L86.3443 32.6016ZM86.3507 34.7711L83.7659 41.8888H77.0467L82.3654 45.4469L80.2236 52.2007L86.3475 48.2748L92.4857 52.2099L90.4387 45.5071L95.6799 41.8888H88.9833L86.3507 34.7711Z" fill="black"/>
<path d="M62.7075 33.6863L65.5507 41.5155H73.2377L67.1828 45.6591L69.4995 53.0724L62.7075 48.7181L55.9682 53.0724L58.2848 45.6012L52.1562 41.5155H59.8117L62.7075 33.6863Z" fill="white"/>
<path fill-rule="evenodd" clip-rule="evenodd" d="M62.7107 32.6016L65.8122 41.1422H74.4442L67.6215 45.8113L70.1618 53.9405L62.7083 49.1621L55.3071 53.944L57.8457 45.7571L50.9233 41.1422H59.5518L62.7107 32.6016ZM62.7043 34.7711L60.0716 41.8888H53.3892L58.724 45.4454L56.6293 52.2009L62.7067 48.2743L68.8371 52.2044L66.7442 45.507L72.0312 41.8888H65.2891L62.7043 34.7711Z" fill="black"/>
<path d="M74.5536 54.3887L77.4494 62.2337H85.0838L78.9763 66.3404L81.3456 73.8169L74.5536 69.4469L67.7617 73.7642L70.0783 66.3404L64.0234 62.181H71.6578L74.5536 54.3887Z" fill="white"/>
<path fill-rule="evenodd" clip-rule="evenodd" d="M74.5549 53.3137L77.7096 61.8602H86.308L79.4167 66.4941L82.0142 74.6908L74.5525 69.8898L67.1017 74.6259L69.6399 66.492L62.8208 61.8076H71.3984L74.5549 53.3137ZM74.5525 55.4633L71.9174 62.5542H65.2262L70.5167 66.1886L68.4217 72.9022L74.5549 69.0036L80.6771 72.9427L78.536 66.1865L83.8597 62.6068H77.1894L74.5525 55.4633Z" fill="black"/>
<path fill-rule="evenodd" clip-rule="evenodd" d="M49.6567 120.396V0.298828H50.2011V120.396H49.6567Z" fill="black"/>
</g>
<defs>
<clipPath id="clip0_275_78412">
<rect width="100" height="120.885" fill="white"/>
</clipPath>
</defs>
</svg>
