<svg width="100" height="121" viewBox="0 0 100 121" fill="none" xmlns="http://www.w3.org/2000/svg">
<g clip-path="url(#clip0_275_78325)">
<path d="M49.9096 0.374756H99.5162V73.2105C99.5162 99.3794 77.3181 120.598 49.9451 120.598C22.5669 120.598 0.375977 99.3794 0.375977 73.2105V0.374756H49.9096Z" fill="white"/>
<path fill-rule="evenodd" clip-rule="evenodd" d="M0.200684 0L49.6136 0.0046287V3.4963e-05H99.8311V73.0118C99.8311 99.3745 77.535 120.671 50.0132 120.671C22.5232 120.671 0.200684 99.3746 0.200684 73.0118V0ZM50.3602 0.745885V0.750549L0.947274 0.74592V73.0118C0.947274 98.9321 22.9042 119.925 50.0132 119.925C77.1537 119.925 99.0845 98.9322 99.0845 73.0118V0.745885H50.3602Z" fill="black"/>
<path d="M32.7148 25.2011C38.006 27.1686 43.7813 29.4079 45.0705 30.4536C45.4383 30.7523 41.4422 34.0764 41.2627 40.6362C38.4825 41.7734 37.704 40.536 37.704 40.536C37.704 40.536 36.94 40.6515 36.7106 41.1476C34.6879 39.9835 35.148 38.4083 33.7155 39.3663C33.3793 39.5905 32.0185 36.9953 31.4348 38.1526C29.9803 37.8206 30.1282 36.251 29.73 36.1631C29.3383 36.081 28.5035 36.7117 28.2764 36.2862C27.9087 35.5686 27.4847 34.7205 27.3434 34.5955C27.1945 34.4743 27.0072 34.9924 26.3969 34.8006C25.7732 34.6021 25.4361 33.1463 24.8984 32.9392C23.7896 33.3295 23.226 31.6825 23.1593 31.4592C22.9779 31.9116 21.4813 32.0669 21.7009 31.3009C22.4715 28.6322 18.4356 28.0416 18.8977 25.4759C13.1138 24.5734 14.6238 15.2411 13.4891 15.0435C11.3965 14.6761 9.94878 14.8068 9.94878 14.8068C9.94878 14.8068 10.1837 13.3002 13.1062 13.1131C11.6097 12.14 9.58496 11.8862 9.58496 11.8862C9.58496 11.8862 10.4578 10.7079 14.0881 11.3367C13.3385 9.62686 11.4253 8.78442 11.4253 8.78442C11.4253 8.78442 13.663 8.27295 15.8989 10.1288C15.7872 7.98961 14.027 6.24831 14.027 6.24831C14.027 6.24831 16.2141 5.98207 18.2055 9.35501C18.7622 7.32744 18.0155 5.17212 18.0155 5.17212C18.0155 5.17212 20.3573 5.47451 20.9104 9.69745C22.8214 12.226 21.3622 15.9795 23.3143 20.3216C24.4001 22.7368 28.2881 23.5553 32.7148 25.2011Z" fill="#010202"/>
<path d="M39.9991 84.0156C41.6324 78.4588 47.1832 75.0048 52.8114 75.4666C53.1094 74.3216 53.3654 73.0507 53.2622 72.8485C49.9607 65.8833 47.9969 65.4253 47.9969 65.4253C47.9969 65.4253 40.7201 63.7956 36.3231 65.8337C35.4434 66.246 28.8735 70.1311 30.1676 70.4174C32.2925 70.8829 29.3214 72.2532 28.8478 73.3944C28.3808 74.5355 29.5458 74.2608 29.5984 74.398C29.7282 74.7454 26.6588 77.7145 27.4219 77.8711C30.2698 78.4207 26.1412 81.2487 27.0226 81.4587C29.4752 82.0349 26.4695 84.4968 27.3453 84.6226C27.6549 84.6626 28.2546 84.8173 28.7397 84.8859C28.4666 85.3705 27.7387 86.7637 27.8974 88.2063C27.9651 88.8741 28.7522 87.5976 29.1524 88.4772C27.1343 90.1108 30.9079 94.7822 31.1735 97.5643C29.8067 97.7169 30.0351 95.9956 28.8497 95.4861C28.2099 96.6483 26.9089 96.6349 25.3561 96.259C23.8109 95.8811 21.9999 95.1293 20.3468 95.1063C16.7013 94.1884 15.1874 95.4307 14.8551 95.8466C14.9639 95.8811 16.2439 96.171 18.0747 96.9553C14.9823 97.1805 14.4321 99.0371 14.4321 99.0371C14.4321 99.0371 16.0243 98.9455 18.004 99.331C14.7959 100.945 15.238 102.731 15.238 102.731C15.238 102.731 17.0145 101.689 18.8453 101.548C17.8549 102.281 17.0356 103.888 17.6419 105.037C18.3698 104.361 19.7737 103.72 20.2788 103.51C19.5979 105.048 19.7021 106.17 20.4527 106.991C22.4478 104.266 23.1678 104.433 23.7485 104.475C24.0656 104.504 24.928 104.777 26.1974 104.909C27.2536 105.019 28.5918 104.979 30.1228 105.067C33.7942 105.277 38.0585 105.397 40.8656 102.586C39.9974 96.3276 38.4223 89.3604 39.9991 84.0156Z" fill="#010202"/>
<path d="M46.2074 23.0592C46.2074 23.0592 46.0374 24.9312 47.4164 25.0524C47.8604 25.0878 49.4956 24.9351 51.612 25.2204C56.0626 25.811 61.113 27.3948 64.7998 23.8035C67.9783 20.6987 65.4837 16.1043 68.3411 14.1449C70.6868 12.5228 73.2692 13.9846 73.3724 14.6114C69.8653 13.3339 69.1282 14.4653 68.723 14.7355C65.8959 16.6341 70.1174 26.2937 59.3785 26.5799C55.6384 26.6801 51.7018 26.8813 49.9959 28.5301C49.0274 29.4585 48.059 29.406 46.6646 30.6644C42.859 34.0679 42.7233 38.3653 42.3289 40.472C42.1722 41.3003 42.603 41.037 42.603 41.037C42.603 41.037 45.0069 40.4293 46.4815 40.2546C46.745 40.2202 46.7766 40.3738 46.7766 40.3738C46.7766 40.3738 46.8568 40.663 46.5225 40.6867C41.6125 40.9759 28.5996 46.6605 22.7575 46.7206C22.3888 46.6404 18.9859 45.8723 18.5639 44.0499C19.0367 43.4773 21.2142 46.8283 23.2543 45.8046C20.8524 43.8344 19.3758 39.1611 16.6404 37.7556C14.8839 32.7284 12.6311 32.6414 12.6311 32.6414C12.6311 32.6414 13.9203 36.8587 13.5098 37.7048C9.96557 34.3102 7.99711 35.2737 7.99711 35.2737L11.1565 39.2468C11.1565 39.2468 7.51202 37.5895 5.8042 39.037C7.93305 39.7698 9.87657 41.1247 9.82596 41.5682C9.56044 41.6132 6.52034 41.3355 5.88244 43.0492C7.08978 43.1942 9.21765 43.7895 9.56435 44.3821C8.30273 44.947 5.99051 45.756 6.30176 47.6824C7.87755 47.3732 9.10689 46.4927 10.5164 46.7015C12.4294 46.1204 14.0646 48.1355 16.2441 50.2967C18.8064 52.8394 22.558 55.2505 24.3279 54.5407C24.7548 54.369 24.5057 53.9767 24.8189 53.9234C25.1399 53.8748 27.3049 55.7409 27.4673 55.2097C28.0069 53.4388 28.0834 54.4005 29.0575 54.8279C29.5521 55.0416 30.3372 54.8775 31.004 55.3814C31.4318 53.4799 34.1785 56.3394 34.8022 54.6972C36.1775 54.9005 37.6406 55.8345 37.425 54.2402C39.1996 55.3423 39.3599 54.7737 40.2558 55.1897C40.3399 53.5639 42.1467 54.8777 42.8201 54.8653C49.8969 54.7248 51.6409 52.6868 52.9912 49.9198C53.5375 48.8016 54.1411 48.8778 53.9617 49.5305C52.957 53.0578 50.4164 55.6103 44.4788 55.3326C44.1492 55.3164 43.9954 55.4481 43.8599 55.6493C43.7252 55.8506 43.7311 56.0128 43.7663 56.7255C43.8225 58.1911 47.9563 62.9084 50.2274 66.1524C53.2054 70.3963 54.3438 72.587 53.979 73.5316C53.3428 75.2069 52.0861 84.1262 52.1472 84.4086C52.2123 84.6909 52.6917 84.943 53.1729 84.5497C53.7497 85.1489 52.6399 87.4464 53.3563 87.5038C53.8912 87.164 54.5597 86.8702 54.5597 86.8702C54.5597 86.8702 53.4384 89.4502 55.0487 90.6828C55.2607 89.9615 55.8949 89.4349 55.8949 89.4349C55.8949 89.4349 55.5778 91.9346 57.1404 92.6331C57.1634 92.4766 57.1443 92.3735 57.3198 91.5797C58.2558 94.6023 58.6991 94.881 58.9397 94.6673C59.1917 94.4651 58.4888 93.404 59.3084 93.6368C59.589 96.274 60.4162 96.2396 60.4162 96.2396C60.4162 96.2396 60.5194 96.1289 60.9128 95.5144C61.8467 97.7547 67.0367 99.9911 66.0988 105.369C65.9154 105.489 65.4876 105.472 65.3614 105.056C65.2335 104.64 64.9086 103.415 64.7577 103.247C64.6088 103.079 64.1617 102.541 60.693 102.171C57.2164 101.812 55.4974 103.388 55.4974 103.388C55.4974 103.388 51.6541 102.243 49.5988 104.666C50.8137 104.411 53.8108 105.846 53.8108 105.846C53.8108 105.846 50.726 106.51 50.256 109.326C52.4489 108.311 54.6876 108.59 54.6876 108.59C54.6876 108.59 51.9656 110.452 52.5157 113.085C54.4316 111.288 56.4448 110.819 56.4448 110.819C56.4448 110.819 54.5956 113.593 56.1277 115.44C56.8766 114.471 58.2365 112.441 59.268 112.597C59.6844 115.345 61.434 116.318 61.6785 116.124C61.9135 115.933 61.2047 113.585 62.9678 112.135C65.9954 111.487 73.4296 110.214 76.3044 103.998C75.9663 102.08 69.8824 93.0718 70.0106 86.5895C70.0467 84.7747 70.3238 77.6075 70.3238 77.6075C70.3238 77.6075 70.5453 73.8159 68.8797 71.0201C69.9113 71.0966 70.3123 72.9361 70.9008 73.268C71.4986 73.6039 71.9665 72.7605 71.9665 72.7605L71.747 71.1804L72.9294 72.4588C72.9294 72.4588 73.9475 70.4476 73.0937 67.9611C72.2379 65.4746 68.2438 60.7975 67.6917 59.1564C67.3135 58.0152 66.5876 53.1616 66.3088 51.3888C66.0223 49.6179 66.1216 43.9009 66.1216 43.9009C66.1216 43.9009 66.9621 44.0259 67.5084 44.4619C67.9553 43.9886 67.2944 42.3828 67.493 42.1444C67.6802 42.4563 68.4348 42.4842 68.8837 42.9048C69.6057 41.5834 68.9678 40.2935 68.8991 40.1254C70.114 40.5949 71.2333 40.4947 71.4128 40.0729C70.9504 39.6494 70.3106 37.1379 70.3431 36.8211C70.813 36.6159 72.1462 37.6789 72.3793 37.2945C71.6533 36.2764 72.047 34.7012 70.9008 32.954C71.3247 32.6536 71.7736 33.2039 72.2876 32.4636C70.047 29.3034 72.7996 26.4373 72.5666 24.0807C72.1807 20.3272 69.881 19.6917 69.881 19.6917C69.881 19.6917 75.9362 19.665 74.6678 15.297C73.3881 10.9358 70.2438 13.7142 68.1846 12.5911C66.1255 11.4654 66.1751 8.48178 63.0042 8.31959C58.5154 8.08681 52.5269 11.1295 49.0438 11.1295C47.9617 11.1219 48.102 11.2993 45.5225 10.621C44.8463 13.8908 46.19 14.2343 45.8005 14.9985C45.0766 16.4269 45.3487 16.7884 45.3487 16.7884L45.7316 16.796C45.6264 17.3006 45.5817 18.2672 46.3753 19.3656C47.3277 18.0527 47.6428 17.2227 47.7487 16.8314L48.0123 16.839C47.9692 17.4391 47.9932 18.5412 48.6331 19.3656C49.5986 18.4982 49.9348 17.3961 50.0524 16.8744H50.1079C50.1079 16.8744 52.3035 16.7293 53.7018 17.422C55.1076 18.1128 55.0485 20.5517 55.0485 20.5517C55.0485 20.5517 51.2377 19.4105 49.5988 19.4459C47.2751 19.4889 43.6746 20.3668 41.4893 19.9095C39.2983 19.4496 37.3174 16.6475 37.3174 16.6475C37.3174 16.6475 33.8783 21.5136 41.5675 22.6699C43.2829 22.9266 44.8988 22.8301 46.2971 22.6298C46.2971 22.6298 49.9607 21.9122 50.7467 21.815C51.5243 21.7185 54.7255 22.1308 54.7255 22.1308C54.7255 22.1308 54.546 23.1669 52.9719 23.1669C52.4487 23.1689 46.2074 23.0592 46.2074 23.0592Z" fill="#010202"/>
<path d="M64.584 8.21013C66.2705 6.1684 72.8319 7.51645 69.8177 12.373C67.2295 13.0237 66.9737 8.58995 64.584 8.21013Z" fill="#010202"/>
<path d="M37.0435 19.0041C37.0435 19.3485 37.1085 19.6673 37.2449 19.9545C37.751 21.0842 39.2305 21.838 41.642 22.1978C43.064 22.4105 44.5559 22.399 46.2263 22.1587C46.252 22.1531 49.8728 21.445 50.6875 21.3438C51.3848 21.2579 53.5757 21.5099 54.4792 21.6216C54.4792 21.6216 54.7677 21.6587 54.8726 21.6721C54.9166 21.5004 54.9872 21.1856 55.0197 21.0195C54.9166 20.9841 54.5958 20.9098 54.5958 20.9098C53.7611 20.6712 50.9016 19.8861 49.6065 19.9157C48.7833 19.9328 47.7862 20.0559 46.7281 20.1875C44.8227 20.4252 42.8552 20.676 41.3862 20.3688C39.6708 20.0075 38.1171 18.3908 37.3921 17.5312C37.219 17.9279 37.0435 18.4499 37.0435 19.0041Z" fill="#E8423F"/>
<path d="M46.2075 68.013C46.2075 68.013 48.0948 67.4939 50.8806 68.471C51.2493 69.0892 51.9752 70.1463 52.4948 71.2914C51.4212 70.1617 46.2075 68.013 46.2075 68.013Z" fill="#E8423F"/>
<path d="M6.77051 38.992C7.93286 39.4854 9.31769 40.2629 9.91745 40.9422C10.1275 40.4576 10.6184 39.7658 10.7998 39.5301C10.2135 39.2956 8.17735 38.5551 6.77051 38.992Z" fill="#E8423F"/>
<path d="M6.55371 42.7526C7.39894 42.9167 8.79528 43.2897 9.52877 43.8021C9.51337 43.6138 9.49919 43.4282 9.49919 43.245C9.49919 42.8014 9.54589 42.3747 9.62242 41.9587C9.20799 41.9587 7.17376 41.9922 6.55371 42.7526Z" fill="#E8423F"/>
<path d="M8.73389 35.5535C8.90479 35.7682 11.3356 38.828 11.4253 38.9396C11.8542 38.6113 12.8226 38.0781 13.1349 37.9064C11.0033 35.8893 9.50675 35.542 8.73389 35.5535Z" fill="#E8423F"/>
<path d="M6.70459 47.1606C7.05031 47.0651 7.39897 46.9573 7.81731 46.8047C8.54885 46.5375 9.30728 46.2636 10.1295 46.2771C9.92611 45.8086 9.76181 45.3001 9.65007 44.7666C9.18014 44.9508 6.8019 45.9429 6.70459 47.1606Z" fill="#E8423F"/>
<path d="M13.9916 37.1813C13.9916 37.4216 13.9591 37.5972 13.9199 37.7423C14.2877 37.7013 15.4747 37.5858 16.1635 37.6622C15.1282 34.8008 13.9485 33.7111 13.2466 33.2971C13.5456 34.3657 13.9916 36.1241 13.9916 37.1813Z" fill="#E8423F"/>
<path d="M50.6304 104.316C52.0343 104.556 53.8013 105.388 54.0018 105.485C54.0018 105.485 54.1795 105.573 54.2903 105.617C54.2827 105.579 54.2827 105.541 54.2827 105.502C54.2827 104.739 54.5311 104.125 54.9895 103.659C53.9062 103.472 52.0267 103.35 50.6304 104.316Z" fill="#E8423F"/>
<path d="M54.932 108.914C54.9129 108.926 52.9645 110.307 52.8804 112.258C54.4141 111.017 55.8699 110.552 56.2271 110.456C56.0016 110.224 55.7992 109.949 55.6024 109.628C55.6063 109.632 55.6024 109.632 55.3082 109.075C55.3082 109.075 55.184 108.853 55.14 108.769C55.0999 108.792 55.0369 108.838 54.932 108.914Z" fill="#E8423F"/>
<path d="M53.8987 106.235C53.8777 106.239 51.6581 106.77 50.8921 108.685C52.8843 107.983 54.6684 108.174 54.7373 108.189C54.7373 108.189 54.8366 108.197 54.9131 108.208C54.5808 107.498 54.3801 106.808 54.3019 106.147C54.2425 106.163 54.1222 106.186 53.8987 106.235Z" fill="#E8423F"/>
<path d="M59.6729 112.51C59.6785 112.517 59.6785 112.529 59.6785 112.529C59.9496 114.292 60.7883 115.252 61.3098 115.593C61.3098 115.456 61.3098 115.196 61.3098 115.196C61.3098 114.467 61.4054 113.406 62.1178 112.468C61.4379 112.696 60.5841 112.716 59.6729 112.51Z" fill="#E8423F"/>
<path d="M56.7849 111.031C56.7754 111.046 55.9312 112.339 55.9312 113.67C55.9312 114.067 56.0189 114.418 56.1661 114.734C56.8651 113.792 57.8585 112.475 58.8651 112.242C58.1067 111.971 57.3847 111.555 56.7849 111.031Z" fill="#E8423F"/>
<path d="M20.449 9.54324C20.449 9.54324 20.453 9.54129 20.453 9.53762C20.1129 7.31367 19.2544 6.31735 18.6393 5.87573C18.7358 6.3193 18.8275 6.89575 18.8388 7.54254C18.8532 8.14463 18.7977 8.79728 18.62 9.44603L18.5674 9.6407C19.2439 9.45726 19.8913 9.42209 20.449 9.54324Z" fill="#E8423F"/>
<path d="M17.8283 9.5357C16.8207 7.82029 15.7682 7.12465 15.0405 6.8335C15.5782 7.58336 16.2535 8.75994 16.3261 10.108L16.3432 10.4695C16.8972 10.1842 17.452 9.96852 17.9965 9.8227L17.8283 9.5357Z" fill="#E8423F"/>
<path d="M14.0063 11.7139C12.3283 11.4211 11.3044 11.5403 10.7007 11.7188C11.4496 11.904 12.4762 12.2339 13.3645 12.8028L13.5048 12.8944C13.7437 12.5395 14.0511 12.1778 14.4073 11.8334L14.0063 11.7139Z" fill="#E8423F"/>
<path d="M13.1352 13.4978C11.6416 13.5943 10.9624 14.0454 10.6416 14.4023C11.078 14.4023 11.9778 14.4472 12.8851 14.5415C12.9052 14.2096 12.9969 13.8537 13.1687 13.4939L13.1352 13.4978Z" fill="#E8423F"/>
<path d="M15.9546 10.6899L15.6175 10.4066C14.5678 9.53925 13.5307 9.23198 12.7676 9.13477C14.0607 9.98307 14.6634 11.3607 14.7397 11.5382C14.8668 11.4095 15.4082 11.0087 15.8038 10.772C15.8505 10.7454 15.8991 10.7195 15.9546 10.6899Z" fill="#E8423F"/>
<path d="M19.62 101.469L19.09 101.862C18.3946 102.381 17.8398 103.319 17.8398 104.151C17.8398 104.224 17.857 104.285 17.8628 104.358C18.7262 103.747 19.856 103.258 20.111 103.151L20.8129 102.861C20.3535 102.453 19.9381 101.986 19.62 101.469Z" fill="#E8423F"/>
<path d="M18.8838 99.3428L18.1875 99.6862C16.4273 100.579 15.8618 101.48 15.6919 102.058C16.4063 101.717 17.5877 101.253 18.8122 101.156L19.4283 101.112C19.4027 101.06 19.3692 101.009 19.3462 100.951C19.1149 100.436 18.9621 99.8845 18.8838 99.3428Z" fill="#E8423F"/>
<path d="M18.9113 97.2932L18.0996 97.3504C16.3414 97.4764 15.5084 98.1557 15.1265 98.6442C15.7922 98.6557 16.8524 98.7128 18.0825 98.9534L18.8551 99.1022C18.7825 98.482 18.812 97.8579 18.9113 97.2932Z" fill="#E8423F"/>
<path d="M20.6488 103.67C20.3728 104.304 20.2275 104.861 20.2275 105.346C20.2275 105.708 20.3182 106.021 20.4664 106.308C21.5953 104.85 22.3363 104.304 22.939 104.14C22.2542 103.88 21.5693 103.48 20.961 102.976L20.6488 103.67Z" fill="#E8423F"/>
<path d="M15.7178 95.6789C16.2985 95.8506 17.1667 96.1368 18.2373 96.5948L18.9938 96.9192C19.1522 96.3086 19.395 95.7705 19.7158 95.3772C17.5821 94.9346 16.3395 95.3237 15.7178 95.6789Z" fill="#E8423F"/>
<path d="M69.1377 17.9259C69.1377 17.9259 68.725 17.9669 68.748 18.2227C68.7729 18.4831 69.0803 18.5241 69.0803 18.5241C69.0803 18.5241 70.7517 18.9755 71.1739 17.134C70.8932 18.0138 69.1377 17.9259 69.1377 17.9259Z" fill="#E8423F"/>
<path d="M69.3422 16.576C69.2009 16.5464 68.7655 16.7812 68.773 17.0406C68.7806 17.1798 68.9334 17.1876 69.0806 17.2103C69.7586 17.3068 71.2696 16.1102 70.5953 15.8899C70.3202 15.7983 70.2591 16.6304 69.3422 16.576Z" fill="#E8423F"/>
<path d="M61.5657 10.6709C61.3938 10.5012 56.0989 12.4274 55.9862 13.3731C55.9786 13.4496 56.0913 13.6956 56.3605 13.6374C56.5593 13.5964 59.1877 13.3245 61.2048 13.4322C61.9803 13.4752 62.6794 13.6469 63.0882 13.8072C63.6344 14.0143 64.3948 13.9342 64.4273 13.6995C64.4522 13.4591 62.5038 12.9046 61.6461 12.836C60.0913 12.7053 57.0045 13.0957 57.0045 13.0957C57.0045 13.0957 61.8065 10.9171 61.5657 10.6709Z" fill="#E8423F"/>
<path d="M46.0859 17.3633C46.0859 17.7048 46.1527 18.1351 46.3955 18.62C46.9131 17.8271 47.193 17.1994 47.3104 16.8652C46.8776 16.8376 46.4556 16.8728 46.1405 16.8518C46.1116 16.9805 46.0859 17.1542 46.0859 17.3633Z" fill="white"/>
<path d="M48.4136 17.2087C48.4136 17.6427 48.4747 18.2038 48.7153 18.7038C49.2605 18.0587 49.5185 17.2944 49.6282 16.8652C49.2214 16.8652 48.7991 16.8633 48.4268 16.8337C48.4194 16.9434 48.4136 17.0665 48.4136 17.2087Z" fill="white"/>
<path d="M20.3505 21.8847C21.4441 17.9166 18.6219 14.1526 18.6725 11.083C17.7595 13.4083 19.1424 15.8936 19.6295 18.3658C20.1652 21.068 19.9992 23.2919 18.1463 23.2758C17.7987 23.2843 17.8283 23.6241 18.027 23.6202C19.6505 23.5498 20.0344 22.8303 20.3505 21.8847Z" fill="white"/>
<path d="M61.0734 14.0532C61.2702 14.1934 61.3981 14.4206 61.3981 14.6724C61.3981 15.1028 61.0408 15.4443 60.6034 15.4443C60.1584 15.4443 59.8032 15.1028 59.8032 14.6724C59.8032 14.391 59.954 14.1524 60.191 14.0159C59.469 14.1705 58.8252 14.661 58.8252 14.9279C58.8252 15.2428 59.7095 15.9049 60.5748 15.9345C61.4 15.9641 62.2137 15.2218 62.2137 14.9756C62.2117 14.7784 61.6941 14.2506 61.0734 14.0532Z" fill="white"/>
<path d="M46.7042 21.5678C46.5398 21.8712 46.3364 22.3472 46.3364 22.8873C46.3364 23.473 46.5638 23.9749 46.9993 24.3452L47.0976 24.4254H48.9027L48.531 23.9224C48.2941 23.6105 48.1357 23.2153 47.956 22.7717C47.7526 22.2422 47.5511 21.7871 47.2264 21.4855L46.9073 21.2002L46.7042 21.5678Z" fill="#010202"/>
<path d="M49.0259 21.4746C48.8597 21.817 48.6562 22.381 48.6562 23.1509C48.6562 23.4382 48.6993 23.7625 48.7699 24.0974L48.8245 24.3627L49.7499 24.3236C49.7443 24.3236 50.5827 24.296 50.5827 24.296L51.1729 24.2806L50.8443 23.8092C50.6533 23.5324 50.4927 23.167 50.3171 22.776C50.1003 22.276 49.8827 21.7951 49.5893 21.4201L49.2626 21.0022L49.0259 21.4746Z" fill="#010202"/>
<path d="M47.6489 22.8856C47.456 22.4105 47.2755 21.9725 46.9956 21.7148C46.8122 22.0431 46.6689 22.4532 46.6689 22.8875C46.6689 22.9496 46.6729 23.0106 46.6795 23.0707C46.943 23.0746 47.3051 23.0832 47.7291 23.0907C47.7002 23.0182 47.6746 22.9542 47.6489 22.8856Z" fill="white"/>
<path d="M50.0223 22.899C49.8103 22.4362 49.5993 21.9631 49.3249 21.6091C49.1978 21.8734 49.0012 22.3895 48.9927 23.1081C49.3604 23.1157 49.7406 23.1225 50.1179 23.1301C50.0824 23.0517 50.0528 22.9772 50.0223 22.899Z" fill="white"/>
</g>
<defs>
<clipPath id="clip0_275_78325">
<rect width="100" height="120.88" fill="white"/>
</clipPath>
</defs>
</svg>
