<svg width="100" height="121" viewBox="0 0 100 121" fill="none" xmlns="http://www.w3.org/2000/svg">
<g clip-path="url(#clip0_275_78367)">
<path d="M49.9096 0.373779H99.5162V73.0153C99.5162 99.1144 77.3181 120.276 49.9451 120.276C22.5669 120.276 0.375977 99.1144 0.375977 73.0153V0.373779H49.9096Z" fill="white"/>
<path fill-rule="evenodd" clip-rule="evenodd" d="M0.200684 0L49.6136 0.00461636V3.48697e-05H99.8311V72.8171C99.8311 99.1096 77.535 120.349 50.0132 120.349C22.5232 120.349 0.200684 99.1097 0.200684 72.8171V0ZM50.3602 0.743896V0.748548L0.947274 0.743931V72.8171C0.947274 98.6684 22.9042 119.605 50.0132 119.605C77.1537 119.605 99.0845 98.6685 99.0845 72.8171V0.743896H50.3602Z" fill="black"/>
<path d="M1.59229 59.9783V60.2911C1.59229 60.2911 4.67145 60.727 5.93984 62.9077C7.20454 65.0826 17.7668 91.1665 17.6183 92.0288C17.783 92.0442 17.8996 91.9678 17.8996 91.9678L29.4116 63.4037C29.4116 63.4037 30.5212 60.5199 33.2452 60.5392C33.9393 60.4782 34.2629 60.4142 34.2629 60.4142V60.1013L23.7648 60.1663V60.4745H24.8984C24.8984 60.4745 28.0023 60.4669 26.8727 64.0926C25.7391 67.7195 19.5332 85.6109 19.5332 85.6109C19.5332 85.6109 11.445 65.3707 11.1281 62.8486C10.8102 60.3226 14.006 60.3495 14.006 60.3495H14.7357V60.0393L1.59229 59.9783Z" fill="#010202"/>
<path d="M83.9909 90.0181C83.9909 90.0181 81.4212 89.5832 81.107 88.0205C80.7891 86.4561 80.9788 74.9098 80.9788 74.9098C80.9788 74.9098 81.2546 74.6407 81.4232 74.721C81.5935 74.805 82.0225 75.3735 82.0225 75.3735C82.0225 75.3735 88.1041 89.5792 95.0433 89.6899C95.6715 89.6899 95.9394 89.791 96.4987 89.6669C89.4561 82.6957 88.0198 77.1821 87.3151 76.1137C86.6105 75.0414 87.6043 74.6065 87.9374 74.595C96.5232 74.3279 97.0462 67.784 97.0828 67.0438C97.2761 63.4074 94.1531 61.5913 92.1401 60.9234C90.122 60.2594 85.6833 60.1754 85.6833 60.1754L79.6036 60.4235H77.8477L73.4685 59.8511C73.4685 59.8511 73.2828 59.875 73.2636 59.9387C73.2482 60.0037 73.3038 60.0713 73.3249 60.1229C73.5433 60.5952 76.1284 60.9881 76.3465 61.7358C76.7754 63.2086 76.2813 87.2703 76.2813 87.2703C76.2813 87.2703 75.795 89.7658 72.645 90.0176C72.6796 90.0557 72.645 90.3268 72.645 90.3268H83.9904L83.9909 90.0181Z" fill="#010202"/>
<path d="M31.922 24.6159C36.8919 26.3158 44.847 29.4122 46.2392 30.305C45.6179 30.9182 42.7666 33.9366 41.6436 40.5185C39.1064 41.6634 38.351 40.4155 38.351 40.4155C38.351 40.4155 37.363 40.4604 37.1647 40.9598C35.2622 39.7837 35.6377 38.1915 34.3431 39.1588C34.0397 39.3869 32.614 36.834 32.1056 38.0094C30.7566 37.666 30.8465 36.0833 30.4762 35.9957C30.1115 35.9117 29.3571 36.5481 29.1397 36.1207C28.773 35.3901 28.3613 34.5324 28.2255 34.4113C28.0885 34.2863 27.6691 34.6365 27.0948 34.4389C26.5176 34.2433 26.1613 32.7705 25.6568 32.5588C24.6439 32.95 24.0772 31.2833 24.01 31.0574C23.8568 31.5143 22.4762 31.6709 22.661 30.8933C23.2968 28.1946 19.0669 28.2767 19.424 25.683C14.049 24.7682 15.198 14.8085 14.1409 14.6099C12.1983 14.2361 10.8647 14.3677 10.8647 14.3677C10.8647 14.3677 11.037 12.8414 13.7311 12.6583C12.3198 11.671 10.4414 11.4153 10.4414 11.4153C10.4414 11.4153 11.2103 10.2199 14.586 10.8583C13.8451 9.13175 12.0507 8.27607 12.0507 8.27607C12.0507 8.27607 14.11 7.76007 16.2299 9.63529C16.0586 7.47093 14.3801 5.71268 14.3801 5.71268C14.3801 5.71268 16.3946 5.44088 18.3353 8.85385C18.7919 6.80304 18.0355 4.62231 18.0355 4.62231C18.0355 4.62231 20.2078 4.93148 20.8407 9.20599C22.6799 11.7567 21.4429 15.5572 23.3664 19.947C24.4397 22.3951 27.6882 23.1687 31.922 24.6159Z" fill="#010202"/>
<path d="M40.8862 83.5658C42.5235 78.0102 48.0688 74.3166 53.7041 74.7821C54.0009 73.6336 54.2536 72.6033 54.158 72.4011C50.8512 65.4374 48.8884 64.6552 48.8884 64.6552C48.8884 64.6552 41.6024 63.106 37.2137 65.1476C36.3318 65.5598 29.7632 69.6843 31.0575 69.963C33.183 70.4323 30.2083 71.806 29.7392 72.943C29.2671 74.0878 30.4333 73.8131 30.4889 73.9542C30.62 74.2976 27.5458 77.27 28.3117 77.419C31.161 77.9799 27.0279 80.7997 27.9144 81.0095C30.3654 81.5894 27.3629 84.0468 28.2333 84.1765C28.5453 84.2224 29.1438 84.3711 29.6254 84.4398C29.3536 84.9243 28.6316 86.3208 28.7811 87.7631C28.8539 88.4271 29.6418 87.1526 30.0438 88.0264C28.0237 89.6632 31.7987 94.3336 32.061 97.119C30.6948 97.2755 30.9254 95.5546 29.7392 95.0472C29.0967 96.1996 27.7985 96.1956 26.2455 95.8142C24.6965 95.4325 22.886 94.6809 21.2316 94.6581C17.5963 93.7424 16.0825 94.99 15.7514 95.4022C15.8568 95.4367 17.132 95.7304 18.9644 96.5126C15.873 96.7319 15.3291 98.6018 15.3291 98.6018C15.3291 98.6018 16.9173 98.5026 18.8926 98.8936C15.6882 100.504 16.1313 102.286 16.1313 102.286C16.1313 102.286 17.9063 101.244 19.733 101.107C18.747 101.835 17.9293 103.438 18.5352 104.598C19.259 103.915 20.6607 103.274 21.1661 103.068C20.4901 104.606 20.5916 105.731 21.3355 106.548C23.3374 103.822 24.0566 103.991 24.6367 104.037C24.9546 104.06 25.8171 104.331 27.082 104.468C28.1391 104.575 29.4803 104.537 31.0092 104.629C34.6838 104.831 38.9387 104.953 41.7467 102.141C40.8862 95.8789 39.3102 88.9116 40.8862 83.5658Z" fill="#010202"/>
<path d="M65.4648 7.75044C67.1555 5.70525 73.7102 7.05691 70.7038 11.9134C68.1207 12.56 67.8545 8.12529 65.4648 7.75044Z" fill="#0A0406"/>
<path d="M51.458 23.5215V23.5234H51.4617L51.458 23.5215Z" fill="white"/>
<path d="M47.0923 67.559C47.0923 67.559 48.9862 67.0401 51.7722 68.0245C52.1418 68.6389 52.8636 69.6958 53.3884 70.8443C52.3141 69.7149 47.0923 67.559 47.0923 67.559Z" fill="#E8423F"/>
<path d="M46.8434 40.0652C33.9959 42.4662 23.828 50.794 18.7613 43.5251C20.2042 43.8083 21.4018 46.3869 23.3378 45.4596C20.9672 43.4096 19.3981 38.725 16.7221 37.2244C14.8648 32.1802 12.6961 32.0007 12.6961 32.0007C12.6961 32.0007 14.0567 36.2266 13.692 37.043C10.1763 33.5375 8.30177 34.4112 8.30177 34.4112L11.465 38.4711C11.465 38.4711 7.89392 36.6757 6.2998 38.0371C8.37652 38.8479 10.2902 40.2721 10.251 40.7062C9.99637 40.7417 7.05128 40.337 6.49417 41.9988C7.66696 42.1981 9.73118 42.8765 10.0902 43.4765C8.89049 43.9839 6.67897 44.6814 7.04172 46.6025C8.55152 46.3622 9.70814 45.5371 11.0763 45.8128C12.902 45.3204 16.0672 49.3508 16.3726 49.7476C16.6741 50.1434 22.8648 56.0092 25.1253 53.5708C25.2785 53.4028 27.3849 55.0321 27.7123 54.5791C28.8057 53.0824 28.6084 53.6138 29.3849 54.3298C29.7822 54.699 30.7866 54.2048 31.2547 54.8946C32.2763 53.2387 34.6535 55.4631 35.7765 54.1134C37.0116 54.7505 37.7594 55.4221 38.0782 53.8463C39.3927 55.459 39.7376 53.8502 40.8711 54.9672C40.7782 53.4255 41.7375 54.0465 43.5135 54.3386C44.6616 54.5293 46.2096 54.3576 47.8334 54.121C51.9675 53.5259 53.5951 50.0614 53.888 49.4624C54.426 48.3405 55.0427 48.4206 54.8513 49.077C53.8478 52.6035 51.6746 55.5513 45.7263 55.2697C45.4008 55.2543 45.2456 55.3938 45.1059 55.5904C44.9689 55.7896 44.9748 55.9537 45.0121 56.6673C45.0714 58.1325 49.0275 62.4556 51.3013 65.6989C54.2768 69.9494 55.2302 72.1358 54.8704 73.084C54.2346 74.759 52.8961 83.5217 52.9554 83.8059C53.0167 84.0902 53.4993 84.3439 53.9741 83.9434C54.5562 84.5425 53.4493 86.8433 54.1618 86.8968C54.6998 86.561 55.3643 86.2709 55.3643 86.2709C55.3643 86.2709 54.2422 88.8465 55.8584 90.079C56.0613 89.3654 56.6971 88.8314 56.6971 88.8314C56.6971 88.8314 56.3831 91.3269 57.938 92.029C57.9648 91.8688 57.94 91.7657 58.1199 90.9721C59.0562 93.998 59.4966 94.2803 59.7417 94.0666C59.9868 93.8624 59.2898 92.8055 60.1094 93.0326C60.3927 95.6712 61.2179 95.6348 61.2179 95.6348C61.2179 95.6348 61.3175 95.5279 61.7121 94.9157C62.6483 97.1535 67.9199 99.5421 66.9988 104.932C66.8074 105.042 66.3804 105.031 66.252 104.615C66.1275 104.203 65.802 102.974 65.6469 102.805C65.4976 102.637 65.0572 102.097 61.5836 101.732C58.1101 101.37 56.3829 102.942 56.3829 102.942C56.3829 102.942 52.5417 101.801 50.488 104.228C51.7106 103.968 54.7035 105.403 54.7035 105.403C54.7035 105.403 51.6226 106.069 51.1476 108.883C53.342 107.872 55.5824 108.147 55.5824 108.147C55.5824 108.147 52.8596 110.012 53.4148 112.645C55.3277 110.844 57.3363 110.379 57.3363 110.379C57.3363 110.379 55.4925 113.162 57.0224 115.003C57.7652 114.034 59.1324 112.01 60.1608 112.153C60.5858 114.912 62.3341 115.881 62.5716 115.688C62.8128 115.492 62.0966 113.145 63.866 111.701C66.8876 111.049 74.3248 109.776 77.1971 103.562C76.8716 101.637 70.7785 92.6287 70.9089 86.14C70.9395 84.3351 71.2152 77.16 71.2152 77.16C71.2152 77.16 71.4353 72.9685 69.7753 70.1792C70.813 70.2557 71.2057 72.0928 71.8013 72.4247C72.3949 72.7644 72.8621 71.9172 72.8621 71.9172L72.64 70.3375L73.8253 71.6195C73.8253 71.6195 74.8459 69.6088 73.9861 67.1169C73.1302 64.629 69.1378 59.7938 68.59 58.152C68.2052 57.0072 67.4851 52.708 67.2037 50.9376C66.9184 49.1632 67.0199 43.7681 67.0199 43.7681C67.0199 43.7681 67.8586 43.8911 68.4062 44.329C68.8486 43.8521 68.1878 42.2418 68.3851 42.0081C68.5709 42.3163 69.3309 42.3478 69.7714 42.7636C70.4991 41.4472 69.8689 40.1575 69.7924 39.9898C71.0103 40.4542 72.1304 40.357 72.3067 39.9353C71.8415 39.5128 71.2037 36.9973 71.2304 36.6862C71.6976 36.4774 73.038 37.5419 73.2755 37.1595C72.5442 36.1367 72.9385 34.5687 71.7974 32.8183C72.2224 32.515 72.6628 33.0664 73.1836 32.326C70.9432 29.1628 73.6969 25.9787 73.4554 23.6263C73.0706 19.8678 70.7765 19.2306 70.7765 19.2306C70.7765 19.2306 76.8275 19.2011 75.5579 14.8369C74.2826 10.4689 71.1385 13.2545 69.08 12.1317C67.0233 11.0079 67.0714 8.02323 63.8966 7.86108C59.4179 7.62835 53.4263 10.6745 49.9432 10.6745C48.8584 10.667 49 10.8406 46.4179 10.1622C45.741 13.4303 47.0785 13.7747 46.6917 14.5388C45.9689 15.9669 46.2371 16.3322 46.2371 16.3322L46.6238 16.3398C46.5138 16.8416 46.4726 17.8106 47.2643 18.9068C48.213 17.5981 48.5329 16.7671 48.6373 16.3752L48.9101 16.3808C48.864 16.9808 48.89 18.0863 49.5295 18.9068C50.4898 18.0416 50.8317 16.9437 50.9464 16.4182L51.0037 16.4201C51.0037 16.4201 53.1925 16.2714 54.5978 16.963C56.0032 17.6585 55.9459 20.3313 55.9459 20.3313C55.9459 20.3313 52.1314 19.1903 50.4876 19.2238C48.1677 19.2704 44.566 20.1461 42.3802 19.6866C40.1934 19.2297 38.2079 16.4279 38.2079 16.4279C38.2079 16.4279 34.7679 21.0602 42.4589 22.2126C44.1746 22.4712 45.7802 22.3747 47.1875 22.1755C47.1875 22.1755 50.8545 21.459 51.6415 21.3608C52.4265 21.2636 55.6204 21.6756 55.6204 21.6756C55.6204 21.6756 55.4366 22.7125 53.8665 22.7125C53.3417 22.7125 47.0937 22.6075 47.0937 22.6075C47.0937 22.6075 46.925 24.4771 48.3076 24.5945C48.751 24.6299 50.3861 24.481 52.503 24.7625C56.953 25.355 62.0045 26.9384 65.6846 23.3459C68.8633 20.2438 66.3721 15.6487 69.225 13.6855C71.5706 12.0638 74.1596 13.5273 74.2552 14.1539C70.7434 12.8784 70.0118 14.0042 69.6059 14.275C66.7873 16.1781 71.0001 25.8385 60.2692 26.1218C56.5314 26.2219 52.5944 26.4231 50.8866 28.0678C49.9187 28.9997 48.9508 28.9511 47.5442 30.2075C43.7432 33.6102 43.3429 37.7873 42.9456 39.8935C42.7885 40.7216 43.2118 40.4584 43.2118 40.4584C43.2118 40.4584 45.2339 39.8098 46.7101 39.6332C46.9706 39.6027 46.9983 39.7563 46.9983 39.7563C46.9983 39.7563 47.004 39.9385 46.7456 40.0655" fill="#010202"/>
<path d="M6.98975 37.9513C8.1569 38.4903 9.55273 39.323 10.1799 40.0319C10.3704 39.5474 10.8233 38.8634 10.988 38.6297C10.3981 38.3692 8.35494 37.5526 6.98975 37.9513Z" fill="#E8423F"/>
<path d="M7.0791 41.7671C7.92175 41.9627 9.31758 42.3881 10.0585 42.931C10.0394 42.7439 10.0173 42.5542 10.0117 42.3671C9.99258 41.9187 10.0203 41.4894 10.0786 41.0696C9.66709 41.0516 7.66121 41.0145 7.0791 41.7671Z" fill="#E8423F"/>
<path d="M8.90381 34.6223C9.08469 34.8494 11.5808 38.0556 11.6727 38.1698C12.0864 37.858 13.0293 37.3571 13.332 37.2006C11.1585 35.0621 9.6744 34.6499 8.90381 34.6223Z" fill="#E8423F"/>
<path d="M7.33203 46.2076C7.66144 46.1161 8.00213 46.012 8.40042 45.8633C9.11169 45.6076 9.84134 45.3444 10.6514 45.371C10.4198 44.8911 10.2301 44.3751 10.0943 43.8342C9.63939 44.0135 7.34919 44.9712 7.33203 46.2076Z" fill="#E8423F"/>
<path d="M14.0747 36.2735C14.0919 36.5157 14.0747 36.6952 14.0355 36.84C14.4041 36.8046 15.5684 36.6949 16.2586 36.7865C15.0274 33.8686 13.7904 32.7523 13.0684 32.3213C13.4392 33.4117 13.9963 35.2002 14.0747 36.2735Z" fill="#E8423F"/>
<path d="M51.5215 103.871C52.9288 104.119 54.6867 104.947 54.8935 105.038C54.8935 105.038 55.0698 105.128 55.1808 105.179C55.1808 105.139 55.1732 105.099 55.1732 105.055C55.1732 104.296 55.4163 103.682 55.8779 103.222C54.8014 103.026 52.9212 102.909 51.5215 103.871Z" fill="#E8423F"/>
<path d="M55.8203 108.467C55.8012 108.482 53.8556 109.867 53.7676 111.817C55.3034 110.577 56.7548 110.112 57.1242 110.012C56.8963 109.779 56.6818 109.505 56.4923 109.184C56.498 109.192 56.498 109.188 56.1955 108.631C56.1955 108.631 56.073 108.409 56.0308 108.322C55.9906 108.354 55.9333 108.394 55.8203 108.467Z" fill="#E8423F"/>
<path d="M54.7974 105.792C54.7687 105.8 52.5513 106.322 51.791 108.242C53.7748 107.545 55.5555 107.73 55.6322 107.742C55.6322 107.742 55.7241 107.753 55.8008 107.761C55.4753 107.057 55.2704 106.364 55.1937 105.7C55.1305 105.719 55.0194 105.748 54.7974 105.792Z" fill="#E8423F"/>
<path d="M60.5669 112.069C60.5689 112.076 60.5725 112.088 60.5725 112.088C60.8443 113.847 61.6755 114.81 62.1983 115.156C62.1983 115.014 62.1907 114.759 62.1907 114.759C62.1907 114.026 62.2941 112.962 63.0103 112.029C62.3267 112.257 61.4745 112.275 60.5669 112.069Z" fill="#E8423F"/>
<path d="M57.6777 110.584C57.6701 110.6 56.8218 111.893 56.8218 113.225C56.8218 113.618 56.9061 113.975 57.0612 114.291C57.7507 113.345 58.7463 112.033 59.7478 111.805C58.9911 111.532 58.2808 111.117 57.6777 110.584Z" fill="#E8423F"/>
<path d="M20.4724 8.81686L20.4773 8.81295C20.0062 6.52551 19.1157 5.51525 18.4868 5.08398C18.6103 5.53234 18.7339 6.12673 18.7922 6.7934C18.8459 7.4144 18.8373 8.09157 18.7099 8.76606L18.6706 8.96728C19.3157 8.76435 19.9314 8.70916 20.4724 8.81686Z" fill="#E8423F"/>
<path d="M17.939 8.81491C16.8868 7.0569 15.847 6.34724 15.1279 6.05615C15.6843 6.82417 16.386 8.02979 16.5162 9.42443L16.5524 9.79928C17.0684 9.49696 17.5902 9.26424 18.1083 9.1038L17.939 8.81491Z" fill="#E8423F"/>
<path d="M14.3256 11.1357C12.6904 10.884 11.7119 11.0271 11.147 11.2312C11.8823 11.4019 12.8923 11.7121 13.7808 12.2806L13.9215 12.3721C14.1274 11.9914 14.3982 11.6146 14.7276 11.2493L14.3256 11.1357Z" fill="#E8423F"/>
<path d="M13.7025 13.0073C12.2674 13.156 11.6432 13.6484 11.3691 14.0271C11.7865 14.0117 12.6549 14.0271 13.5378 14.0957C13.5272 13.7514 13.5961 13.3841 13.7292 13.0073H13.7025Z" fill="#E8423F"/>
<path d="M16.1629 10.0734L15.8239 9.78816C14.7766 8.90684 13.7646 8.60256 13.0254 8.5127C14.3073 9.36643 14.9506 10.783 15.033 10.9681C15.1546 10.8355 15.6612 10.4167 16.019 10.165C16.071 10.1325 16.1122 10.1049 16.1629 10.0734Z" fill="#E8423F"/>
<path d="M20.5136 101.028L19.9841 101.419C19.29 101.936 18.7319 102.881 18.7319 103.714C18.7319 103.777 18.751 103.846 18.7586 103.918C19.6175 103.304 20.7471 102.818 21.0057 102.713L21.7104 102.419C21.243 102.012 20.8314 101.537 20.5136 101.028Z" fill="#E8423F"/>
<path d="M19.7761 98.897L19.084 99.2498C17.3136 100.135 16.7545 101.036 16.5898 101.608C17.2945 101.276 18.4769 100.812 19.7023 100.715L20.32 100.664C20.2923 100.618 20.2607 100.562 20.2376 100.515C20.0077 99.9922 19.8565 99.4428 19.7761 98.897Z" fill="#E8423F"/>
<path d="M19.8078 96.8442L18.9958 96.9053C17.2389 97.0313 16.4061 97.7104 16.019 98.1988C16.6864 98.2064 17.7413 98.2638 18.9764 98.5041L19.7472 98.6606C19.6803 98.0347 19.7083 97.4127 19.8078 96.8442Z" fill="#E8423F"/>
<path d="M21.5478 103.23C21.2635 103.861 21.1274 104.418 21.1274 104.907C21.1274 105.267 21.2098 105.584 21.3573 105.864C22.489 104.407 23.2262 103.865 23.8284 103.697C23.1515 103.434 22.4613 103.037 21.8495 102.533L21.5478 103.23Z" fill="#E8423F"/>
<path d="M16.6138 95.2339C17.1939 95.4075 18.0623 95.6957 19.127 96.1516L19.888 96.4722C20.0432 95.8598 20.2863 95.3274 20.6062 94.9269C18.4701 94.4937 17.2351 94.8754 16.6138 95.2339Z" fill="#E8423F"/>
<path d="M70.0205 17.4604C70.0205 17.4604 69.6068 17.5053 69.6357 17.7605C69.6588 18.0182 69.9651 18.0592 69.9651 18.0592C69.9651 18.0592 71.6406 18.5171 72.058 16.6702C71.7803 17.5576 70.0205 17.4604 70.0205 17.4604Z" fill="#E8423F"/>
<path d="M70.2251 16.1135C70.0891 16.0849 69.643 16.3215 69.6545 16.577C69.6641 16.7191 69.8192 16.7277 69.9648 16.7487C70.6445 16.8478 72.1592 15.6507 71.4795 15.4285C71.2016 15.3362 71.1501 16.1745 70.2251 16.1135Z" fill="#E8423F"/>
<path d="M62.451 10.2058C62.2863 10.0361 56.988 11.9638 56.8751 12.9121C56.8655 12.9885 56.9824 13.2308 57.2483 13.1734C57.4476 13.1284 60.0726 12.8566 62.089 12.9702C62.8741 13.0112 63.5635 13.1773 63.977 13.3414C64.5209 13.5531 65.2792 13.471 65.3079 13.2344C65.3366 12.9978 63.3873 12.4408 62.5351 12.3702C60.9841 12.2356 57.8934 12.6325 57.8934 12.6325C57.8934 12.6325 62.7001 10.4537 62.451 10.2058Z" fill="#E8423F"/>
<path d="M20.6708 21.5279C21.5708 17.511 18.8556 13.7029 18.8181 10.5989C18.0416 12.9513 19.3811 15.4668 19.9105 17.964C20.4831 20.6969 20.3902 22.9472 18.6784 22.9301C18.3615 22.9377 18.3951 23.284 18.575 23.2793C20.0789 23.2153 20.4142 22.4847 20.6708 21.5279Z" fill="white"/>
<path d="M61.957 13.5894C62.1619 13.7325 62.2864 13.9576 62.2864 14.2133C62.2864 14.6367 61.9283 14.9813 61.4918 14.9813C61.0514 14.9813 60.6913 14.637 60.6913 14.2133C60.6913 13.9337 60.8484 13.6895 61.0801 13.5588C60.3543 13.7066 59.7109 14.2018 59.7109 14.469C59.7109 14.7838 60.5994 15.4419 61.4649 15.4734C62.2921 15.4983 63.1002 14.7598 63.1002 14.5137C63.0982 14.3164 62.5793 13.7889 61.957 13.5894Z" fill="white"/>
<path d="M47.5918 21.1053C47.4251 21.4106 47.2231 21.8885 47.2231 22.4245C47.2231 23.0101 47.453 23.5158 47.8856 23.8878L47.9825 23.9632H49.792L49.4178 23.4653C49.1803 23.1486 49.0175 22.7547 48.8413 22.3109C48.6354 21.7835 48.4374 21.3236 48.1116 21.025L47.7957 20.7378L47.5918 21.1053Z" fill="#010202"/>
<path d="M49.9174 21.0175C49.7488 21.3571 49.5508 21.9237 49.5508 22.6897C49.5508 22.9825 49.5844 23.3012 49.6572 23.6409L49.7118 23.9071L50.6395 23.8661C50.6356 23.8661 51.4697 23.8421 51.4697 23.8421L52.0574 23.825L51.7299 23.3518C51.5461 23.079 51.3814 22.7068 51.2091 22.3205C50.9907 21.8206 50.7687 21.3381 50.4787 20.963L50.1532 20.5442L49.9174 21.0175Z" fill="#010202"/>
<path d="M46.9668 16.9052C46.9668 17.2429 47.0416 17.6768 47.2827 18.1596C47.8036 17.3679 48.0822 16.7411 48.1979 16.4072C47.771 16.3777 47.345 16.4148 47.0251 16.3928C46.9925 16.5179 46.9668 16.6925 46.9668 16.9052Z" fill="white"/>
<path d="M49.3018 16.7489C49.3018 17.1792 49.363 17.7411 49.6015 18.2436C50.153 17.597 50.4116 16.8309 50.5177 16.4055C50.1155 16.4055 49.6866 16.4016 49.3152 16.3721C49.3094 16.4817 49.3018 16.6038 49.3018 16.7489Z" fill="white"/>
<path d="M48.5312 22.4227C48.3454 21.9494 48.1625 21.5098 47.8822 21.2542C47.7003 21.5843 47.5508 21.9924 47.5508 22.4246C47.5508 22.4866 47.5564 22.5487 47.5613 22.6134C47.8314 22.6173 48.1942 22.6229 48.6155 22.6288C48.5888 22.5628 48.5591 22.4923 48.5312 22.4227Z" fill="white"/>
<path d="M50.9066 22.4417C50.7037 21.9763 50.4863 21.5059 50.2135 21.1521C50.0823 21.4163 49.886 21.9296 49.8784 22.6508C50.249 22.6583 50.6358 22.6642 51.0081 22.6708C50.9755 22.5924 50.9448 22.5201 50.9066 22.4417Z" fill="white"/>
<path d="M91.7788 67.1431C91.7788 67.1431 92.2038 68.2496 91.3479 70.5659C90.494 72.8762 86.5033 73.5573 86.5033 73.5573C86.5033 73.5573 82.4744 74.0858 81.2281 73.8015C80.5771 72.4528 81.1075 62.2515 81.1075 62.2515C81.1075 62.2515 82.3406 61.4999 85.3394 61.4007C90.9151 61.2107 91.7788 67.1431 91.7788 67.1431Z" fill="white"/>
<path d="M37.9316 18.8036C37.9316 19.1183 37.9995 19.416 38.128 19.6832C38.6412 20.723 40.1213 21.4182 42.5331 21.7523C43.9473 21.9479 45.4437 21.9345 47.1162 21.7169C47.1392 21.7113 50.7571 21.0568 51.5731 20.9652C52.2738 20.8851 54.4645 21.1169 55.3721 21.2209C55.3721 21.2209 55.6593 21.2544 55.7664 21.2676C55.801 21.1054 55.8738 20.8182 55.9062 20.6656C55.7971 20.637 55.4868 20.5665 55.4868 20.5665C54.652 20.3452 51.7912 19.6231 50.4939 19.6458C49.6723 19.6602 48.6728 19.7745 47.612 19.9005C45.7059 20.1191 43.7356 20.3489 42.2706 20.0666C40.5473 19.7318 39.0039 18.2417 38.2782 17.4443C38.1079 17.8077 37.9316 18.2903 37.9316 18.8036Z" fill="#E8423F"/>
</g>
<defs>
<clipPath id="clip0_275_78367">
<rect width="100" height="120.88" fill="white"/>
</clipPath>
</defs>
</svg>
