<svg width="100" height="121" viewBox="0 0 100 121" fill="none" xmlns="http://www.w3.org/2000/svg">
<g clip-path="url(#clip0_275_78498)">
<path d="M49.9096 0.374756H99.5162V73.2105C99.5162 99.3794 77.3181 120.598 49.9451 120.598C22.5669 120.598 0.375977 99.3794 0.375977 73.2105V0.374756H49.9096Z" fill="#FFD72E"/>
<path d="M94.9778 49.6956C94.0525 47.9718 87.1613 41.0826 78.5618 36.3941C74.7726 34.3259 63.0559 28.0324 53.4581 26.271C52.4195 26.0813 51.5176 25.6257 50.4694 25.8682C50.0345 25.9688 49.3849 25.34 50.1335 24.9104C50.5443 24.6726 50.9628 24.476 53.0895 24.5155C51.2814 23.2489 50.6814 23.4436 47.8004 23.4973C48.4136 22.3248 51.7689 22.3228 51.7689 22.3228C51.7689 22.3228 50.2237 21.3678 45.6207 21.7006C46.5517 20.9306 48.3591 20.573 48.3591 20.573C48.3591 20.573 45.8463 19.5403 42.9613 20.8616C42.7271 20.9682 42.4537 21.1935 41.892 21.2269C41.3296 21.2605 39.936 21.06 39.7075 21.0111C39.4839 20.9593 38.6008 20.8069 38.6996 19.9976C38.7918 19.1903 39.4876 19.1731 39.6642 19.1567C39.837 19.1336 41.9168 19.289 42.4571 18.291C42.8227 17.612 43.509 14.9591 41.6335 14.1948C38.9529 13.1047 37.6006 14.0041 37.1994 14.0988C36.7945 14.1889 36.2407 13.7765 36.2407 13.7765C36.2407 13.7765 34.1723 11.671 33.5023 11.1686C32.8296 10.67 30.8994 9.76872 29.4328 9.51565C29.1085 9.46386 28.5306 9.30481 28.4424 9.23092C28.1085 8.95184 27.0055 8.79278 26.6131 8.82445C26.1237 8.86568 25.062 8.69877 24.4883 9.56646C24.1227 10.1178 23.8394 10.1322 23.1082 10.2501C22.3787 10.3689 20.4544 10.2596 20.4544 10.2596C20.4544 10.2596 17.9743 10.2481 17.1738 9.70171C16.8004 9.44472 15.6448 8.40545 15.3301 8.02868C15.021 7.65386 14.5345 7.8819 14.5758 8.02107C14.7657 8.7162 14.6171 9.98276 13.878 10.8055C13.0286 11.7385 12.0689 12.6207 11.9018 12.8266C11.7311 13.0308 11.4556 14.0242 12.0497 14.401C12.6409 14.7721 13.1075 15.0509 13.1075 15.0509C13.1075 15.0509 12.7254 17.5112 12.808 18.2514C12.2485 18.0136 11.2773 17.4873 10.6898 17.0166C6.85073 13.9358 6.53009 10.4918 5.73648 10.3615C4.94188 10.2321 3.85343 14.2792 6.04065 17.0578C8.56866 20.2743 13.4212 21.0263 13.4212 21.0263C13.4212 21.0263 12.6293 22.0302 12.7198 23.4119C11.877 23.8309 11.761 24.1176 11.761 24.1176C11.761 24.1176 11.69 24.665 12.2284 25.0994C27.1932 24.7472 38.008 38.9972 35.5077 55.3659C35.1458 57.74 33.3628 63.6798 32.6495 65.4056C31.9316 67.1314 31.7195 69.937 31.7195 69.937C31.7195 69.937 31.4814 70.8096 31.0458 70.7482C30.6208 70.6888 30.5937 70.3437 30.6092 70.1211C30.6841 69.7951 30.3932 68.516 30.5094 67.7107C30.6313 66.9149 30.1667 66.3396 30.1667 66.3396C30.1667 66.3396 31.3185 63.7794 28.3431 61.5627C28.8758 64.464 27.918 65.1123 27.918 65.1123C27.918 65.1123 26.6836 61.2444 22.8158 61.373C24.4868 62.8015 24.7421 64.8572 24.8026 65.003C24.3257 64.073 20.4787 61.5264 18.2301 64.9915C22.0298 65.2198 22.6603 66.6483 22.6603 66.6483C22.6603 66.6483 18.136 64.98 16.1952 69.3253C18.3537 68.7654 20.6198 69.1986 20.6198 69.1986C20.6198 69.1986 17.9266 69.8083 17.894 72.1596C19.3721 71.4423 21.6716 71.9293 21.6716 71.9293C21.6716 71.9293 21.6045 71.9293 21.6284 72.1556C21.992 72.2708 23.6583 74.7675 25.0461 75.4271C26.4357 76.0829 34.3414 76.5623 37.7188 75.0051C38.5758 74.6102 38.6325 74.7673 38.9512 73.7089C39.9984 70.2303 44.1522 60.7149 47.0669 54.8873C49.019 50.9735 50.8284 48.2676 50.836 48.0221C50.8515 47.5388 48.4394 44.8292 48.1601 44.5204C47.8866 44.2107 48.3981 44.0401 48.3981 44.0401C48.3981 44.0401 50.2237 44.4792 50.9723 45.5491C51.7266 46.6201 51.8591 46.812 51.7018 47.3815C51.5406 47.9529 50.1787 52.0557 50.1787 52.0557C50.1787 52.0557 71.2812 53.7481 71.4193 54.4489C71.5633 55.1516 64.8296 55.7758 63.0655 56.1499C60.0325 56.7933 57.1878 60.4002 57.4854 61.4243C58.7139 65.6815 59.1574 76.3549 59.2551 77.1642C59.3588 77.9734 60.4394 78.3799 60.8542 78.403C61.265 78.4221 63.4512 78.4433 63.6566 78.7867C63.8544 79.1318 63.5434 79.266 63.5434 79.266C63.5434 79.266 63.0559 79.619 62.1864 79.5382C61.3168 79.4653 56.2493 78.0579 55.42 77.1411C54.5984 76.2206 54.1839 75.7528 54.1839 75.7528C54.1839 75.7528 54.6792 71.6375 50.7286 72.0901C52.149 74.0768 51.0741 74.959 51.0741 74.959C51.0741 74.959 49.4886 71.9254 44.5746 73.3942C47.8945 74.6676 47.9827 75.6149 47.9827 75.6149C47.9827 75.6149 45.2532 74.3876 42.466 76.9725C46.1458 77.0147 46.6429 78.4413 46.6429 78.4413C46.6429 78.4413 42.491 77.5822 41.6463 82.0159C44.6082 80.1885 46.2139 81.3676 46.2139 81.3676C46.2139 81.3676 41.6357 82.7981 42.894 86.8234C44.6849 85.0573 46.951 84.6104 46.951 84.6104L47.0124 84.8001C47.0124 84.8001 48.0989 85.2584 49.0856 85.2719C50.0704 85.2834 50.3102 85.13 50.1787 84.5873C50.0473 84.0446 50.2556 83.4309 50.2652 83.2218C50.2787 83.0166 50.6289 82.9609 50.6289 82.9609C50.6289 82.9609 50.8515 82.9091 50.9244 83.2274C51.0935 83.9388 50.5559 84.5217 51.2507 85.3349C51.9475 86.1481 53.0225 85.9658 53.3623 86.0924C53.7001 86.2171 55.5851 86.5738 55.5851 86.5738C55.5851 86.5738 60.8812 87.4999 62.5529 86.7866C63.7355 86.2841 67.206 84.0443 68.1542 82.4911C68.6148 81.7356 68.8146 80.769 68.9259 79.7066C69.3328 75.6298 70.3809 70.7399 73.3254 68.4308C73.5519 68.2468 74.0318 68.1125 74.2851 67.9552C74.5692 67.7826 74.8227 67.7212 74.9301 67.4451C75.0107 66.8008 73.8974 58.4935 73.7362 56.1887C73.4522 52.0179 70.3271 48.7992 70.3271 48.7992C70.3271 48.7992 70.3271 48.526 70.665 48.4561C71.0048 48.3812 71.5441 48.5165 71.5441 48.5165C71.5441 48.5165 73.5058 48.432 74.9647 56.1065C76.4198 63.775 76.5579 69.919 78.0898 72.8206C78.5581 73.6988 80.7004 77.1544 82.4279 80.5314C83.8561 83.3234 84.2782 85.2831 84.8542 86.4339C86.1289 88.9765 84.9004 92.11 84.3974 92.4532C83.8905 92.8002 83.8561 92.4782 83.6795 92.3727C83.4991 92.2595 83.7409 91.0362 83.7409 91.0362C83.7409 91.0362 84.2362 90.4456 83.5566 89.3869C82.8694 88.3246 79.7635 87.5652 79.7635 87.5652C79.7635 87.5652 79.3028 87.2316 79.0033 87.0703C79.322 83.9714 74.1372 83.6798 74.1372 83.6798C74.1372 83.6798 75.6325 85.7969 75.4215 87.841C71.6957 85.1008 68.6763 87.8334 68.6763 87.8334C68.6763 87.8334 71.4903 88.3283 72.7571 90.5565C67.8163 89.291 67.2787 92.9421 67.2787 92.9421C67.2787 92.9421 69.2846 92.0293 71.4289 93.69C66.7797 94.0351 67.4937 97.7055 67.4937 97.7055C67.4937 97.7055 68.707 96.1061 72.3156 97.3105C72.2466 97.418 69.3517 99.5695 71.1524 103.073C71.5748 102.166 72.6613 100.693 73.9512 100.158C74.0817 100.323 74.1048 100.312 74.147 100.352C74.147 100.352 77.0188 99.1247 78.4814 99.0844C79.948 99.0442 81.1458 98.9561 83.0424 98.7621C84.9389 98.5645 86.033 97.6728 86.9237 97.161C87.8104 96.651 91.3004 92.1751 92.1871 91.4024C93.0738 90.6257 93.3004 89.3064 93.3004 89.3064C93.3004 89.3064 93.8839 87.4348 94.2217 83.1374C94.5596 78.8362 94.8094 72.9183 94.7173 69.1503C94.5866 64.0207 91.5117 52.4516 91.5117 52.4516C91.5117 52.4516 91.5001 52.0653 91.7765 51.9683C92.0586 51.8743 92.049 51.9713 92.433 52.583C92.8131 53.188 93.55 56.4739 94.1642 56.9523C94.4023 57.1354 94.362 57.8345 95.308 57.469C95.5999 57.3588 96.0377 55.4899 96.1986 54.4708C96.3674 53.4359 95.8991 51.4175 94.9778 49.6956ZM15.5918 16.1015C15.704 16.1427 15.8279 16.207 15.8279 16.207C15.8279 16.207 15.5765 18.4009 15.8969 19.3864C14.5389 18.8734 13.4399 18.4775 13.4399 18.4775C13.4399 18.4775 14.7325 16.4783 15.5918 16.1015ZM15.6473 23.5199C15.5935 23.5239 15.4372 23.5008 15.2163 23.4807C14.2163 22.6522 14.1298 21.2151 14.1298 21.2151C14.1298 21.2151 16.3468 21.7548 16.7203 21.9274C16.5419 22.3962 15.7566 22.9897 15.6473 23.5199ZM18.3672 23.9637C18.0937 23.8773 17.4669 23.3078 17.4419 22.9387C17.4178 22.4343 17.2979 22.1142 17.2979 22.1142C17.2979 22.1142 20.5372 23.0059 21.4805 24.6156C20.164 24.2899 18.6409 24.0501 18.3672 23.9637ZM16.2348 19.5313C16.2348 19.5313 17.2981 17.8428 18.2139 17.4113C21.2669 19.0018 22.7296 21.7546 23.2517 23.7021C21.5576 21.5619 16.2348 19.5313 16.2348 19.5313Z" fill="black"/>
<path d="M16.3325 47.9236C20.2687 46.7769 24.3274 42.3969 27.1711 39.557C28.7873 37.9404 29.9544 37.1024 30.2787 36.8454C30.7549 37.2318 32.8259 40.653 33.8289 43.9617C34.6033 46.5159 34.5382 49.1632 34.5006 49.9226C34.3773 52.2343 32.8522 52.6936 32.8522 52.6936C32.8522 52.6936 23.5586 55.7417 21.9588 55.7024C21.2237 55.6803 15.5429 57.0409 13.8959 56.8865C9.56547 56.4704 8.52027 54.4042 8.52027 54.4042L6.35589 50.6494C6.35589 50.6494 6.08243 49.7702 6.87506 50.0348C7.66867 50.306 7.77235 50.3215 8.4866 50.5181C9.19962 50.7184 8.6296 50.008 8.6296 50.008C8.6296 50.008 7.92616 49.6148 7.30896 49.3436C5.31559 48.4683 5.10331 45.5496 5.10331 45.5496C5.10331 45.5496 5.00159 43.1372 5.09938 41.3712C5.19643 39.6061 1.09717 39.7183 1.09717 39.7183C1.09717 39.7183 2.66646 36.4861 7.48537 38.3633C7.52862 36.629 3.30282 35.3278 3.30282 35.3278C3.30282 35.3278 5.89815 32.5809 10.6719 36.4171C10.9215 33.627 8.49987 31.4025 8.49987 31.4025C8.49987 31.4025 12.3188 30.7093 13.8802 36.0325C15.5031 34.7227 14.5166 31.155 14.5166 31.155C14.5166 31.155 18.2117 33.2068 17.0561 36.9588C18.9805 36.6194 19.7023 34.112 19.7023 34.112C19.7023 34.112 21.1861 36.7257 18.7859 39.2944C17.8837 40.258 17.6812 39.975 17.6812 39.975C17.6812 39.975 13.8451 44.9811 16.304 51.3409C16.6178 52.1597 17.1488 51.5431 17.2198 51.1759C17.2886 50.8104 17.0878 49.4558 16.3325 47.9236Z" fill="black"/>
<path d="M33.7485 10.5894C33.7485 10.5894 36.5692 13.1245 36.8343 13.4468C37.0648 13.719 38.7643 12.7948 39.6473 13.001C40.1856 13.1267 39.3603 11.4794 39.0225 11.0018C38.6817 10.53 37.5539 9.33636 36.193 9.56267C35.0355 9.75535 33.7485 10.5894 33.7485 10.5894Z" fill="black"/>
<path d="M21.6422 23.8066C20.1938 22.0643 17.068 21.3385 13.4631 20.4249C10.8574 19.7614 8.03087 18.6348 6.62472 16.6213C5.88566 15.5732 5.53431 14.4188 5.49131 13.3835C5.45961 12.6078 5.56993 11.9309 5.71293 11.4812C5.7859 11.6184 5.85495 11.764 5.91932 11.8992C6.55667 13.2426 7.58639 15.5236 10.2201 17.5678C11.4763 18.5361 13.7137 19.2035 15.8952 20.029C18.238 20.8333 20.7478 22.0263 22.2739 23.5746C22.2739 23.5746 23.2404 24.6475 23.3326 25.0081C23.1127 24.9668 22.7672 24.8863 22.3422 24.8164C22.193 24.4288 21.6422 23.8066 21.6422 23.8066Z" fill="#D50029"/>
<path d="M21.6422 23.8066C20.1938 22.0643 17.068 21.3385 13.4631 20.4249C10.8574 19.7614 8.03087 18.6348 6.62472 16.6213C5.88566 15.5732 5.53431 14.4188 5.49131 13.3835C5.45961 12.6078 5.56993 11.9309 5.71293 11.4812C5.7859 11.6184 5.85495 11.764 5.91932 11.8992C6.55667 13.2426 7.58639 15.5236 10.2201 17.5678C11.4763 18.5361 13.7137 19.2035 15.8952 20.029C18.238 20.8333 20.7478 22.0263 22.2739 23.5746C22.2739 23.5746 23.2404 24.6475 23.3326 25.0081C23.1127 24.9668 22.7672 24.8863 22.3422 24.8164C22.193 24.4288 21.6422 23.8066 21.6422 23.8066Z" stroke="#E41E2E" stroke-width="0.888"/>
<path d="M13.2219 23.4098C13.5954 23.4022 14.0703 23.359 14.4504 23.4022C13.9197 23.0291 13.6951 21.5679 13.6951 21.5679C13.6951 21.5679 13.1625 22.3963 13.2219 23.4098Z" fill="white"/>
<path d="M16.1543 23.6045C16.5238 23.6236 16.7857 23.7041 17.4069 23.8107C16.8597 23.4454 17.0882 22.7665 16.8742 22.4692C16.4939 23.0905 16.2607 23.1548 16.1543 23.6045Z" fill="white"/>
<path d="M16.276 18.6031C16.8519 17.6922 17.6339 17.14 17.6772 17.1284C17.4104 17.0047 16.3037 16.4448 16.3037 16.4448C16.3037 16.4448 16.2192 18.5206 16.276 18.6031Z" fill="white"/>
<path d="M13.3101 17.7959C13.3101 17.7959 14.5204 16.1286 15.055 15.8792C14.2258 15.6357 13.8803 15.4391 13.6049 15.2827C13.3725 16.5704 13.3101 17.7959 13.3101 17.7959Z" fill="white"/>
<path d="M68.9487 57.9367C68.9487 57.9367 72.2274 57.462 74.0509 59.0076C74.0278 58.7047 73.8168 56.973 73.8168 56.973C73.8168 56.973 70.6188 55.8378 68.9487 57.9367Z" fill="#D50029"/>
<path d="M68.9487 57.9367C68.9487 57.9367 72.2274 57.462 74.0509 59.0076C74.0278 58.7047 73.8168 56.973 73.8168 56.973C73.8168 56.973 70.6188 55.8378 68.9487 57.9367Z" stroke="#E41E2E" stroke-width="0.888"/>
<path d="M26.9216 10.5481C26.9216 10.5481 27.8142 10.621 28.1329 11.4887C28.437 12.3326 28.579 13.578 27.94 16.1428C27.8835 16.3787 27.4169 16.3288 27.4053 16.0382C27.3958 15.7459 27.6923 14.4695 27.7729 13.7295C27.8535 12.9894 27.7528 12.0775 27.5051 11.8539C27.3026 11.6708 26.9216 11.5203 26.839 11.5039C26.7564 11.4848 26.312 11.3947 26.4041 10.9737C26.4992 10.552 26.9216 10.5481 26.9216 10.5481Z" fill="white"/>
<path d="M27.1315 13.0535C27.5777 12.9298 27.3812 12.4705 26.8293 12.2702C26.2784 12.068 25.0212 12.392 24.6315 13.5744C24.2696 14.6558 26.0192 15.5515 26.3812 15.5341C27.0003 15.5083 27.1615 14.6855 26.79 14.5164C26.4244 14.3439 25.8428 14.2825 25.8937 13.8056C25.9423 13.3269 26.6873 13.1811 27.1315 13.0535Z" fill="white"/>
<path d="M17.3491 37.6643C17.3491 37.6643 18.3857 37.7055 19.4098 36.1619C19.3273 37.5426 18.2246 38.7065 18.2246 38.7065L17.3491 37.6643Z" fill="#D50029"/>
<path d="M2.76074 39.0901C4.25902 37.8724 7.27548 39.0871 7.27548 39.0871L5.73691 40.4209C5.73691 40.4192 5.11602 39.0719 2.76074 39.0901Z" fill="#D50029"/>
<path d="M5.18799 35.2531C7.35605 34.5636 10.4052 37.2148 10.4052 37.2148C10.4052 37.2148 8.79266 38.0432 8.31772 38.2791C8.35335 38.0997 8.08357 36.1544 5.18799 35.2531Z" fill="#D50029"/>
<path d="M10.1489 32.291C12.2826 33.0178 13.1118 36.5327 13.1118 36.5327L11.4054 36.8722C11.4035 36.8722 11.887 34.6364 10.1489 32.291Z" fill="#D50029"/>
<path d="M14.5562 36.5272C15.3527 35.6988 15.8788 34.393 15.539 32.8606C16.0994 33.3756 16.8031 35.4983 16.1896 37.0439C15.9382 36.9116 15.6311 36.5761 14.5562 36.5272Z" fill="#D50029"/>
<path d="M29.5457 65.8888C29.2491 65.7047 28.7874 65.6242 28.4688 65.6203C29.3545 64.7688 29.1606 63.4917 29.1606 63.4917C29.1606 63.4917 30.0034 64.8304 29.5457 65.8888Z" fill="#D50029"/>
<path d="M27.2595 65.6474C26.4148 65.7279 25.8306 65.912 25.6654 66.0004C25.5396 63.5785 24.6787 62.4644 24.6787 62.4644C24.6787 62.4644 26.6568 63.5993 27.2595 65.6474Z" fill="#D50029"/>
<path d="M24.8849 66.2953C24.455 66.6022 24.5336 66.4794 23.8569 66.9915C23.0614 65.6913 22.1965 64.5963 19.395 64.5273C21.5297 62.9971 24.2601 64.8305 24.8849 66.2953Z" fill="#D50029"/>
<path d="M17.7422 68.351C18.5206 66.8667 21.7051 66.7862 23.2655 67.6434C22.7913 68.2013 22.679 68.4546 22.5007 69.0663C21.0842 68.1748 18.5073 68.2705 17.7422 68.351Z" fill="#D50029"/>
<path d="M18.9707 71.1164C20.0284 69.705 22.1724 69.7011 22.2061 69.7664C22.139 69.8584 21.7675 71.0204 21.7675 71.1738C21.6621 71.1048 20.4881 70.798 18.9707 71.1164Z" fill="#D50029"/>
<path d="M53.4163 75.5844C52.9325 75.4769 52.2875 75.3542 51.8384 75.2815C52.015 75.109 52.5332 73.7398 51.9153 72.7234C52.3566 72.8385 53.3856 73.2067 53.4163 75.5844Z" fill="#D50029"/>
<path d="M48.9203 75.7378C49.526 75.362 49.9213 75.3159 50.3926 75.339C49.8427 74.0157 47.2004 73.4941 46.7407 73.6399C47.0334 73.7705 48.8454 74.6603 48.9203 75.7378Z" fill="#D50029"/>
<path d="M44.3423 76.4817C46.116 75.6226 47.785 76.2709 47.9145 76.359C47.7157 76.547 47.1946 77.1108 46.975 77.6342C46.5833 76.7196 44.3423 76.4817 44.3423 76.4817Z" fill="#D50029"/>
<path d="M42.6665 80.7467C42.8075 80.4092 44.4842 78.7408 46.3655 79.2739C46.0766 79.7916 46.0296 80.0947 46.1707 80.5319C44.3346 79.7918 42.7289 80.7275 42.6665 80.7467Z" fill="#D50029"/>
<path d="M43.4009 85.468C43.8395 83.2398 45.4653 82.6031 46.2628 82.231C46.2397 82.58 46.3635 83.5618 46.5478 83.834C46.3282 83.7881 44.3193 84.348 43.4009 85.468Z" fill="#D50029"/>
<path d="M77.9171 87.2668C77.3528 87.4202 76.5196 87.7693 76.2203 87.9573C76.3201 86.6149 75.8977 85.3032 75.5083 84.7202C76.1511 84.8083 78.0859 85.6139 77.9171 87.2668Z" fill="#D50029"/>
<path d="M73.629 90.3962C73.4487 89.8172 71.8094 87.9608 70.3389 87.6694C71.4713 87.0519 73.4484 87.1211 75.2644 88.6321C74.5465 89.0999 73.7902 90.0894 73.629 90.3962Z" fill="#D50029"/>
<path d="M68.4385 92.0684C69.3771 90.3848 72.2967 91.0635 73.1223 91.3857C72.7653 91.777 72.4427 92.4557 72.3584 93.5183C71.6363 92.2296 69.3675 91.8268 68.4385 92.0684Z" fill="#D50029"/>
<path d="M68.2924 96.3794C68.231 96.5367 68.7184 94.2776 72.2391 94.4504C72.1354 95.3075 72.1238 95.6661 72.2545 96.5061C69.974 95.5549 68.2924 96.3794 68.2924 96.3794Z" fill="#D50029"/>
<path d="M71.3599 101.38C71.3599 101.38 71.0373 99.5778 72.5692 98.178C72.7228 98.949 72.9569 99.3977 73.2641 99.7005C72.3274 100.007 71.3599 101.38 71.3599 101.38Z" fill="#D50029"/>
<path d="M15.0792 38.2214C14.3239 38.9222 13.5205 38.7892 12.8362 39.5724C12.3392 40.1419 10.9984 42.0807 11.7104 45.2535C12.176 47.3198 12.6107 50.9528 12.8775 52.1283C13.2355 53.7056 12.3217 55.1974 11.6846 55.2215" stroke="white" stroke-linecap="round" stroke-linejoin="round"/>
<path d="M52.1528 76.8464C52.2143 77.7554 52.2143 78.2846 52.5098 79.1245C52.7209 79.7305 53.8919 80.1792 56.1263 80.816C57.4931 81.2072 60.0268 82.0778 60.8177 82.4154C62.6413 83.19 61.8659 84.4308 61.8966 85.1154" stroke="white" stroke-linecap="round" stroke-linejoin="round"/>
<path d="M0.374512 73.2029C0.374512 99.3746 22.5681 120.591 49.9406 120.591C61.3052 120.591 71.7782 116.933 80.1396 110.781L0.374512 62.4143V73.2029Z" fill="#D50029"/>
<path d="M99.5042 0.374023H49.9091H25.5771L99.5042 45.2044V0.374023Z" fill="#D50029"/>
<path fill-rule="evenodd" clip-rule="evenodd" d="M0.200684 0L49.6136 0.0046287V3.4963e-05H99.8311V73.0118C99.8311 99.3745 77.535 120.671 50.0132 120.671C22.5232 120.671 0.200684 99.3746 0.200684 73.0118V0ZM50.3602 0.745885V0.750549L0.947274 0.74592V73.0118C0.947274 98.9321 22.9042 119.925 50.0132 119.925C77.1537 119.925 99.0845 98.9322 99.0845 73.0118V0.745885H50.3602Z" fill="black"/>
</g>
<defs>
<clipPath id="clip0_275_78498">
<rect width="100" height="120.88" fill="white"/>
</clipPath>
</defs>
</svg>
