<svg width="100" height="121" viewBox="0 0 100 121" fill="none" xmlns="http://www.w3.org/2000/svg">
<g clip-path="url(#clip0_275_78539)">
<path d="M49.9096 0.373779H99.5162V73.0153C99.5162 99.1144 77.3181 120.276 49.9451 120.276C22.5669 120.276 0.375977 99.1144 0.375977 73.0153V0.373779H49.9096Z" fill="white"/>
<path fill-rule="evenodd" clip-rule="evenodd" d="M0.200684 0L49.6136 0.00461636V3.48697e-05H99.8311V72.8171C99.8311 99.1096 77.535 120.349 50.0132 120.349C22.5232 120.349 0.200684 99.1097 0.200684 72.8171V0ZM50.3602 0.743896V0.748548L0.947274 0.743931V72.8171C0.947274 98.6684 22.9042 119.605 50.0132 119.605C77.1537 119.605 99.0845 98.6685 99.0845 72.8171V0.743896H50.3602Z" fill="black"/>
<path d="M59.4926 5.56056C58.9189 5.56052 58.3509 5.67346 57.8208 5.89292C57.2908 6.11238 56.8092 6.43406 56.4035 6.83961C55.9978 7.24515 55.676 7.72661 55.4564 8.2565C55.2369 8.78639 55.1238 9.35433 55.1238 9.92788C55.1243 10.6259 55.2922 11.3137 55.6133 11.9335C53.9561 12.7653 52.4198 13.6604 51.0057 14.6297C50.5999 14.0836 50.072 13.6398 49.4642 13.3337C48.8564 13.0277 48.1855 12.8678 47.505 12.8669C46.3464 12.867 45.2353 13.3271 44.4161 14.1461C43.5969 14.9652 43.1367 16.076 43.1366 17.2342C43.1371 17.8619 43.2728 18.482 43.5346 19.0524C43.7964 19.6229 44.1781 20.1302 44.6537 20.5399C43.6126 21.8912 42.7101 23.3491 41.9514 24.9305C41.3192 24.5928 40.6135 24.4157 39.8967 24.4151C39.3229 24.415 38.7548 24.528 38.2248 24.7475C37.6947 24.9669 37.2131 25.2887 36.8074 25.6943C36.4017 26.0999 36.0799 26.5814 35.8603 27.1113C35.6408 27.6412 35.5278 28.2092 35.5279 28.7828C35.5279 29.8669 35.9312 30.9121 36.6592 31.7154C37.3873 32.5187 38.3882 33.0226 39.4672 33.1291C39.4208 33.4179 39.3747 33.7071 39.3343 34.002C33.6917 75.2166 34.9293 85.608 29.4458 108.81C34.0468 107.254 37.9097 95.3636 42.1384 88.5956L48.3368 113.679L54.9781 87.7103C59.0461 94.9795 61.3208 106.911 67.2279 109.4C63.7555 88.4473 60.4713 65.2449 58.5205 40.6416C57.9409 33.3322 59.3946 31.0316 61.7673 26.9192C64.2053 22.6938 77.6304 18.0866 79.4773 29.5751C80.9822 38.937 70.7081 38.6468 67.9658 33.1167L62.948 37.1005C66.99 40.3627 68.7716 45.5421 78.0005 43.6627C78.2595 44.5776 78.81 45.383 79.5685 45.9566C80.3269 46.5302 81.2519 46.8407 82.203 46.8409C82.7766 46.8409 83.3447 46.7279 83.8747 46.5084C84.4047 46.2889 84.8863 45.9671 85.292 45.5616C85.6976 45.156 86.0194 44.6745 86.2389 44.1446C86.4584 43.6147 86.5713 43.0467 86.5713 42.4731C86.5696 41.3769 86.1557 40.3215 85.4117 39.5162C86.3242 38.101 87.0857 36.3121 87.6892 34.3255C88.1495 34.487 88.6336 34.5704 89.1215 34.572C90.28 34.572 91.3911 34.1118 92.2103 33.2928C93.0295 32.4738 93.4898 31.363 93.4898 30.2047C93.4899 29.6311 93.3769 29.0632 93.1574 28.5333C92.9379 28.0034 92.6161 27.5219 92.2105 27.1163C91.8048 26.7107 91.3233 26.389 90.7932 26.1694C90.2632 25.9499 89.6952 25.8369 89.1215 25.8369C89.0542 25.8378 88.987 25.8402 88.9198 25.8442C88.8221 24.0571 88.4542 22.3154 87.7547 20.6636C88.3909 20.2733 88.9164 19.7265 89.2811 19.0755C89.6459 18.4244 89.8377 17.6908 89.8383 16.9446C89.8383 15.7864 89.378 14.6755 88.5588 13.8565C87.7396 13.0375 86.6285 12.5774 85.4699 12.5773C84.8683 12.5783 84.2733 12.7036 83.7223 12.9453C83.1713 13.187 82.6762 13.5398 82.268 13.9818C80.8414 12.9208 79.26 12.0212 77.5954 11.2874C77.7294 10.8628 77.7977 10.4203 77.7979 9.97507C77.7979 8.8168 77.3376 7.70598 76.5184 6.88696C75.6992 6.06793 74.5881 5.60779 73.4296 5.60774C72.4309 5.60832 71.4625 5.95098 70.6859 6.57865C69.9092 7.20632 69.371 8.08109 69.1611 9.05725C68.3762 8.97633 67.5974 8.92933 66.8319 8.91978C65.7827 8.90669 64.7598 8.96469 63.7757 9.08795C63.5811 8.09497 63.0475 7.20038 62.2663 6.55701C61.4852 5.91365 60.5048 5.56144 59.4926 5.56055V5.56056Z" fill="#FF0000" stroke="#0B0000" stroke-linecap="round"/>
<path d="M48.3368 113.679C48.3368 113.679 48.141 74.1839 47.8941 54.5114C47.8373 49.9845 48.0984 45.6053 48.3369 41.0843C48.5329 37.3679 47.4267 33.1613 49.9603 27.3621C51.2559 24.3967 52.6471 22.6069 54.683 20.8699C56.9926 18.8995 60.0395 17.4857 62.8002 16.7385C64.9892 16.146 68.828 15.6287 71.065 16.0007C73.5885 16.4204 75.8438 16.9878 78.0016 18.3616C79.9108 19.5771 81.6105 21.7033 82.7243 23.6734C83.7118 25.42 84.3757 27.4217 84.3477 29.4278C84.5334 35.7765 80.5344 38.0446 77.5588 38.1236C74.3752 38.2082 73.7263 37.2048 71.9506 36.6187" stroke="black"/>
<path d="M63.6487 40.4136H33.1025V54.7745H63.6487V40.4136Z" fill="#FF0000" stroke="black" stroke-linecap="round"/>
<path d="M67.0919 43.988H29.6592V51.1999H67.0919V43.988Z" fill="#FF0000" stroke="black" stroke-linecap="round"/>
</g>
<defs>
<clipPath id="clip0_275_78539">
<rect width="100" height="120.88" fill="white"/>
</clipPath>
</defs>
</svg>
