<svg width="100" height="121" viewBox="0 0 100 121" fill="none" xmlns="http://www.w3.org/2000/svg">
<g clip-path="url(#clip0_275_78546)">
<path d="M99.6314 0.365234V73.1378C99.6314 99.2912 77.3682 120.448 49.9735 120.448C22.5524 120.448 0.36296 99.2912 0.36296 73.1378L0.361328 0.365234H99.6314Z" fill="white"/>
<path fill-rule="evenodd" clip-rule="evenodd" d="M-0.000488281 -0.000244141H99.9927V73.1375C99.9927 99.5127 77.5472 120.813 49.9733 120.813C22.3724 120.813 0.00115149 99.5121 0.00115149 73.1375L-0.000488281 -0.000244141ZM0.722686 0.730139L0.724309 73.1375C0.724309 99.0697 22.732 120.082 49.9733 120.082C77.1888 120.082 99.2696 99.0692 99.2696 73.1375V0.730139H0.722686Z" fill="black"/>
<path d="M36.9581 28.7422C38.1266 30.624 38.9055 41.2077 26.4476 40.8196C18.9371 40.6017 13.5423 31.6234 15.7108 21.9806C17.8792 12.2794 27.6687 6.62876 36.2371 6.79355C51.1423 7.1816 58.7371 18.5413 60.9476 24.9149C62.895 30.7888 64.0529 38.603 64.0002 43.536H41.6845C43.2423 34.5577 42.295 30.9004 42.295 30.9004C42.295 30.9004 40.1266 21.7574 33.6213 21.7574C27.116 21.7574 25.7792 27.4665 25.7792 27.4665C25.7792 27.4665 25.0581 31.8998 28.3371 32.6174C29.1739 32.7875 30.895 32.6759 30.895 30.5124C30.895 29.4599 30.0055 28.4605 28.4476 28.6838C29.1739 25.1913 33.9529 23.8624 36.9581 28.7422ZM35.4581 49.4683C33.7897 49.4683 32.4529 50.7973 32.4529 52.4611C32.4529 54.1143 33.7897 55.4964 35.4581 55.4964H35.5108H70.2634C71.9476 55.4964 73.316 54.1143 73.316 52.4611C73.316 50.7973 71.9476 49.4683 70.2634 49.4683H35.4581ZM38.6845 44.647C37.7371 44.647 37.0108 45.4762 37.0108 46.4756C37.0108 47.5281 37.7371 48.3042 38.6845 48.3042H67.0002C67.895 48.3042 68.6845 47.5281 68.6845 46.4756C68.6845 45.4762 67.895 44.647 67.0002 44.647H38.6845ZM37.1266 56.6127C36.1266 56.6127 35.2897 57.4632 35.2897 58.42C35.2897 59.43 36.1266 60.2806 37.1266 60.2806H68.5266C69.5266 60.2806 70.3687 59.43 70.3687 58.42C70.3687 57.4632 69.5266 56.6127 68.5266 56.6127H37.1266ZM38.3476 61.2905L30.7845 109.079L43.6897 99.3513L52.8423 109.239L62.0529 99.3513L74.9476 109.079L67.316 61.2905H38.3476Z" fill="black"/>
</g>
<defs>
<clipPath id="clip0_275_78546">
<rect width="100" height="120.88" fill="white"/>
</clipPath>
</defs>
</svg>
