<svg width="100" height="121" viewBox="0 0 100 121" fill="none" xmlns="http://www.w3.org/2000/svg">
<g clip-path="url(#clip0_275_78558)">
<path d="M49.9096 0.374756H99.5162V73.2105C99.5162 99.3794 77.3181 120.598 49.9451 120.598C22.5669 120.598 0.375977 99.3794 0.375977 73.2105V0.374756H49.9096Z" fill="white"/>
<path fill-rule="evenodd" clip-rule="evenodd" d="M0.200684 0L49.6136 0.00462871V3.4963e-05H99.8311V73.0118C99.8311 99.3746 77.535 120.671 50.0132 120.671C22.5232 120.671 0.200684 99.3747 0.200684 73.0118V0ZM50.3602 0.745885V0.750549L0.947274 0.74592V73.0118C0.947274 98.9322 22.9042 119.925 50.0132 119.925C77.1537 119.925 99.0845 98.9323 99.0845 73.0118V0.745885H50.3602Z" fill="black"/>
<path d="M0.248047 0.247803V60.6011H99.4216V0.247803H0.248047Z" fill="black"/>
</g>
<defs>
<clipPath id="clip0_275_78558">
<rect width="100" height="120.88" fill="white"/>
</clipPath>
</defs>
</svg>
