<svg width="100" height="121" viewBox="0 0 100 121" fill="none" xmlns="http://www.w3.org/2000/svg">
<g clip-path="url(#clip0_275_78705)">
<path d="M49.9115 1.35156H98.5454V73.003C98.5454 98.7464 76.7826 119.62 49.9463 119.62C23.1049 119.62 1.34912 98.7464 1.34912 73.003V1.35156H49.9115Z" fill="#FFD72E"/>
<path fill-rule="evenodd" clip-rule="evenodd" d="M1.17725 0.982666L49.6213 0.987219V0.9827H98.8541V72.8073C98.8541 98.7414 76.9952 119.692 50.0131 119.692C23.0621 119.692 1.17725 98.7415 1.17725 72.8073V0.982666ZM50.3533 1.71642V1.72101L1.9092 1.71646V72.8073C1.9092 98.3062 23.4356 118.958 50.0131 118.958C76.6214 118.958 98.1221 98.3063 98.1221 72.8073V1.71642H50.3533Z" fill="black"/>
<path d="M49.9658 1.3501H98.6556V73.0804C98.6556 98.852 76.8725 119.747 49.9969 119.747L49.9658 1.3501Z" fill="#EF3340"/>
<path d="M85.4845 20.7668V27.3343H90.0344V31.2503H85.4845V37.8178H81.5071V31.2503H76.9611V27.3343H81.5071V20.7668H85.4845ZM91.0499 43.0002V38.3279H95.8108V36.1143V20.1955H91.0499V15.5853H95.8108V9.23798L88.6704 9.22468V13.5571L82.6811 13.628V9.20776H75.4746V20.1955H70.5685L70.5439 38.3279H75.4746V49.41H82.6811V44.954L88.6704 44.8803V49.342L95.8108 49.3495V43.0002H91.0499Z" fill="#FFD100" stroke="#010202"/>
<path d="M72.5529 8.34093C72.5529 7.62901 72.1967 6.99711 71.6712 6.60065C71.56 5.50243 70.6424 4.64136 69.5196 4.64136C68.4043 4.64136 67.4961 5.48648 67.3794 6.57333C66.8254 6.96616 66.475 7.61402 66.475 8.34117C66.475 8.39968 66.4712 8.45914 66.475 8.51305V74.1723H72.5529V8.46084V8.34093ZM66.605 70.7398C66.5937 73.9126 66.7501 83.8504 57.5466 87.3744L57.5391 93.4104C66.737 96.9419 66.6464 104.859 66.6578 108.043H72.3626C72.3701 104.859 71.9557 96.9344 81.1573 93.4028V87.3971C71.9555 83.873 72.3701 73.9126 72.3626 70.7398H66.605ZM69.3708 85.1006C70.7931 85.1006 71.9405 86.2375 71.9632 87.6388C73.3667 87.6749 74.4953 88.8096 74.4953 90.2149C74.4953 91.6199 73.367 92.7682 71.9632 92.7909C71.933 94.1923 70.7856 95.3141 69.3708 95.3141C67.9595 95.3141 66.8122 94.1923 66.7859 92.7909C65.3824 92.7568 64.2613 91.6162 64.2613 90.2149C64.2613 88.8135 65.3824 87.6765 66.7859 87.6388C66.7972 86.2336 67.9559 85.1006 69.3708 85.1006Z" fill="#FFD100" stroke="#010202" stroke-miterlimit="10"/>
<path d="M49.997 119.747C23.1298 119.747 1.34863 98.852 1.34863 73.0804V1.34985H49.9659L49.997 119.747Z" fill="#FFD100"/>
<path d="M69.4764 73.8672C69.4505 77.1961 67.8153 87.2198 57.5994 90.1619C57.4662 89.0457 56.4261 88.1717 55.1653 88.1751C53.8126 88.1751 52.7085 89.1742 52.7085 90.4037C52.7085 91.6331 53.8126 92.6322 55.1653 92.6322C56.4542 92.6322 57.5127 91.7243 57.607 90.5699C70.3517 93.9666 69.1755 105.336 69.4764 106.124C69.6034 104.442 69.9378 92.7695 81.0292 90.517C81.0948 91.6933 82.1641 92.6322 83.4709 92.6322C84.8294 92.6322 85.9126 91.637 85.9126 90.4037C85.9126 89.1742 84.8294 88.1715 83.4709 88.1751C82.2062 88.1751 81.1622 89.054 81.0368 90.177C71.6517 87.6189 69.3772 77.7792 69.4764 73.8672ZM69.3709 85.1005C70.7932 85.1005 71.9406 86.2374 71.9633 87.6388C73.3668 87.6748 74.4954 88.8096 74.4954 90.2148C74.4954 91.6198 73.367 92.7681 71.9633 92.7908C71.9331 94.1922 70.7857 95.314 69.3709 95.314C67.9596 95.314 66.8122 94.1922 66.786 92.7908C65.3824 92.7568 64.2614 91.6162 64.2614 90.2148C64.2614 88.8134 65.3824 87.6765 66.786 87.6388C66.7973 86.2335 67.956 85.1005 69.3709 85.1005ZM69.4764 106.525C68.116 106.525 67.0196 107.524 67.0196 108.761C67.0196 109.987 68.116 110.989 69.4764 110.989C70.8309 110.989 71.9256 109.988 71.9256 108.761C71.9256 107.524 70.8309 106.523 69.4764 106.525Z" fill="#FFD100" stroke="#010202" stroke-miterlimit="10" stroke-linecap="square"/>
<path d="M73.0144 108.777C73.0465 108.777 73.0672 108.781 73.0993 108.781C74.0244 108.781 74.7667 108.02 74.7667 107.096C74.7667 106.169 74.0244 105.413 73.0993 105.413H73.086H65.8683H65.8514C64.9263 105.413 64.184 106.169 64.184 107.096C64.184 108.023 64.9302 108.781 65.8514 108.781C65.8834 108.781 65.9078 108.777 65.9343 108.777H73.0144ZM55.214 93.9571C55.214 93.9835 55.2046 94.0101 55.2046 94.0364C55.2046 94.9693 55.9527 95.7172 56.8852 95.7172C57.8122 95.7172 58.562 94.9693 58.562 94.0364C58.562 94.0364 58.5581 94.0364 58.5581 94.0325H58.562V86.7879C58.562 86.784 58.5658 86.7804 58.5658 86.7804C58.5658 85.8511 57.8141 85.0957 56.8891 85.0957C55.9546 85.0957 55.2084 85.8511 55.2084 86.7804C55.2084 86.8031 55.2159 86.8333 55.2159 86.8597V93.9569H55.214V93.9571ZM83.4557 86.8372C83.4557 86.807 83.4632 86.7862 83.4632 86.7673C83.4632 85.8325 82.7057 85.079 81.7807 85.079C80.8537 85.079 80.1039 85.8325 80.1039 86.7673H80.1001V94.0026H80.1039V94.0195C80.1039 94.9468 80.8537 95.6984 81.7807 95.6984C82.7057 95.6984 83.4632 94.9468 83.4632 94.0195C83.4632 93.9873 83.4557 93.9685 83.4557 93.9402V86.8372ZM73.4495 71.4224H65.5403C64.6736 71.4224 63.9841 72.1213 63.9841 72.9787C63.9841 73.8401 64.6661 74.5406 65.529 74.5445H73.442H73.4495C74.3048 74.5445 75.0001 73.8439 75.0001 72.9787C75.0001 72.1213 74.3087 71.4224 73.4495 71.4224ZM73.3347 66.4895H65.5046C64.6586 66.4895 63.9692 67.177 63.9692 68.0267C63.9692 68.8747 64.655 69.5564 65.4952 69.5603H73.3308H73.3347C74.1807 69.5603 74.874 68.8747 74.874 68.0267C74.874 67.1768 74.1807 66.4895 73.3347 66.4895Z" fill="#FFD100" stroke="#010202" stroke-miterlimit="10"/>
<path d="M39.0385 77.855L26.392 92.1478C26.392 92.1478 25.515 92.9487 23.6045 92.8503C21.2938 92.7483 20.0682 90.2364 19.1195 88.5406C18.7587 88.4236 17.973 88.2573 17.973 88.2573L16.3491 89.5641C16.3491 89.5641 15.847 90.0437 16.14 90.5915C16.4282 91.1393 19.5898 94.331 20.8209 94.4405C21.3881 94.4895 20.9207 94.8976 20.7842 94.9542C19.3947 95.4529 17.1264 94.4746 17.1264 94.4746C17.1264 94.4746 16.9587 94.431 15.6172 94.3007C14.2749 94.1799 14.4811 95.1507 14.4811 95.1507C14.4811 95.1507 14.9984 96.7372 15.3592 97.2471C16.1805 98.3992 21.4418 96.5332 21.4418 96.5332C21.4418 96.5332 22.5439 96.3558 22.8463 97.0053C20.7748 98.962 19.3703 100.394 18.7204 101.447C17.6089 103.366 18.2644 104.356 18.4744 104.613C18.9143 105.002 20.674 105.062 21.519 104.106C21.9994 103.555 22.5364 101.326 23.9523 99.2678C25.0148 97.7267 26.8613 96.2083 27.9767 95.8873C30.4034 95.1884 33.9433 97.0885 33.9433 97.0885C33.9433 97.0885 35.6739 97.8212 36.4359 95.706C36.6404 95.1318 36.6913 94.6559 36.6913 94.6559L36.4557 93.9797C36.4557 93.9797 32.1243 92.8655 30.3166 93.6418C29.6064 93.9478 29.5273 93.2847 29.726 92.8938C30.0275 92.295 31.1098 90.7805 32.6934 88.9298C35.6515 85.4717 39.816 80.8656 40.0769 78.9844C39.1063 78.4028 39.0385 77.855 39.0385 77.855Z" fill="#EF3340" stroke="#010202"/>
<path d="M30.4962 13.5279C30.419 13.8801 30.482 15.2607 31.0962 15.5911C31.3714 15.7422 31.6161 15.5856 31.798 15.3182C31.9788 15.0557 31.9412 14.694 31.9412 14.694C31.9364 14.6865 31.4994 13.9243 32.0222 13.1094C32.5969 12.2266 34.123 11.1622 38.136 11.132C42.1443 11.1642 43.6703 12.2264 44.2421 13.1094C44.7649 13.9243 44.3306 14.6863 44.327 14.694C44.327 14.694 44.2865 15.0576 44.4693 15.3182C44.6492 15.5853 44.8997 15.7422 45.1739 15.5911C45.7852 15.2607 45.8513 13.8782 45.7739 13.5279C45.4093 11.8396 43.7919 9.8167 38.138 9.77246C32.4773 9.8167 30.8608 11.8393 30.4962 13.5279ZM32.3943 26.5081C28.8986 24.6573 24.6294 24.9085 24.6294 24.9085C24.6294 24.9085 23.6703 25.3513 23.5837 26.1737C22.2697 25.4326 22.41 23.9802 22.41 23.9802C22.41 23.9802 22.5183 20.269 26.6642 21.6525C27.1589 21.8169 28.3374 21.6421 28.2658 21.1859C28.1922 20.7431 29.3633 19.6156 30.7272 20.5845C32.0912 21.5553 41.082 31.1586 42.4346 34.4202C35.6606 30.9367 30.4822 30.4958 30.4822 30.4958C30.4822 30.4958 28.9005 30.3853 27.2163 30.4315C28.3118 29.3758 30.537 28.1301 31.4705 28.4362C32.7112 28.8459 36.1504 30.0312 36.1504 30.0312L32.3943 26.5081ZM20.9961 23.0604C20.5948 25.5798 21.292 25.7829 22.1501 26.2758C23.1072 26.8216 29.5543 26.3635 30.8167 26.4769C32.0743 26.5929 35.6719 30.0689 35.6719 30.0689C35.6719 30.0689 32.7226 28.301 31.0034 28.0122C28.5108 27.5872 24.7777 27.98 22.2887 28.2994C19.7906 28.6158 19.1773 26.2719 19.1773 26.2719C19.1773 26.2719 18.7946 23.9877 20.9961 23.0604Z" fill="#EF3340" stroke="#010202"/>
<path d="M50.0156 1.37109V119.568" stroke="#010202"/>
<path d="M49.9659 1.3501H98.6557V73.0804C98.6557 98.852 76.8726 119.747 49.997 119.747C23.1298 119.747 1.34863 98.852 1.34863 73.0804V1.34985H49.9659V1.3501Z" stroke="#010202"/>
<path d="M21.4944 107.015C20.2744 106.029 20.265 104.763 20.2848 103.997C20.3074 103.007 18.6005 104.322 18.7389 104.952C18.8144 105.309 18.2699 107.604 21.4944 107.015Z" fill="#EF3340" stroke="#010202"/>
<path d="M12.859 99.6302C12.859 99.6302 13.1284 96.7444 15.3902 96.3252C16.7505 96.0646 15.8838 94.9901 15.8838 94.9901C15.8838 94.9901 13.7209 94.3006 12.2513 97.0751C11.7805 97.9627 12.859 99.6302 12.859 99.6302Z" fill="#EF3340" stroke="#010202"/>
<path d="M12.3203 90.1989C12.4578 89.3642 13.5148 86.331 16.7214 88.1025C17.9093 88.7559 17.5917 89.6683 17.5917 89.6683C17.5917 89.6683 16.9568 90.4803 16.1617 89.9252C14.0875 88.4765 14.2674 88.1555 12.3203 90.1989Z" fill="#EF3340" stroke="#010202"/>
<path d="M37.5938 99.2789C38.7403 98.7954 38.973 96.8729 38.6942 96.4914C37.2813 94.5897 35.5064 94.448 35.5064 94.448C35.5064 94.448 34.5946 95.2262 36.375 96.5216C38.1533 97.8154 37.6363 98.9013 37.5938 99.2789Z" fill="#EF3340" stroke="#010202"/>
<path d="M39.2408 10.64C39.2408 11.2006 38.739 11.655 38.1199 11.655C37.5009 11.655 36.999 11.2006 36.999 10.64C36.999 10.0794 37.5009 9.62491 38.1199 9.62491C38.739 9.62491 39.2408 10.0794 39.2408 10.64ZM40.4741 5.61034C40.4741 6.8461 39.3944 7.84788 38.0625 7.84788C36.7307 7.84788 35.651 6.8461 35.651 5.61034C35.651 4.37458 36.7307 3.3728 38.0625 3.3728C39.3944 3.3728 40.4741 4.37458 40.4741 5.61034ZM39.2589 8.65795C39.2589 9.21878 38.7568 9.67688 38.1341 9.67688C37.5161 9.67688 37.0169 9.21878 37.0169 8.65795C37.0169 8.10267 37.5161 7.64844 38.1341 7.64844C38.7568 7.64844 39.2589 8.10267 39.2589 8.65795ZM39.2408 14.7128C39.2408 15.2703 38.739 15.7223 38.1199 15.7223C37.5009 15.7223 36.999 15.2703 36.999 14.7128C36.999 14.1553 37.5009 13.7033 38.1199 13.7033C38.739 13.7033 39.2408 14.1553 39.2408 14.7128ZM39.2408 12.6788C39.2408 13.2383 38.739 13.6919 38.1199 13.6919C37.5009 13.6919 36.999 13.2383 36.999 12.6788C36.999 12.1193 37.5009 11.6657 38.1199 11.6657C38.739 11.6657 39.2408 12.1193 39.2408 12.6788ZM45.8294 13.4908C45.8294 14.0516 46.3315 14.5059 46.9542 14.5059C47.5674 14.5059 48.0734 14.0516 48.0734 13.4908C48.0734 12.93 47.5674 12.4777 46.9542 12.4777C46.3315 12.4777 45.8294 12.93 45.8294 13.4908ZM45.058 11.5777C45.058 12.1489 45.5555 12.6089 46.1789 12.6089C46.796 12.6089 47.2981 12.1491 47.2981 11.5777C47.2981 11.0091 46.796 10.5493 46.1789 10.5493C45.5552 10.5493 45.058 11.0093 45.058 11.5777ZM43.4642 10.1471C43.4642 10.7043 43.9682 11.1585 44.5908 11.1585C45.207 11.1585 45.7117 10.7043 45.7117 10.1471C45.7117 9.58429 45.2068 9.13006 44.5908 9.13006C43.9679 9.13006 43.4642 9.58429 43.4642 10.1471ZM41.4406 9.26326C41.4406 9.8224 41.9437 10.2728 42.5654 10.2728C43.1825 10.2728 43.6846 9.8224 43.6846 9.26326C43.6846 8.70242 43.1825 8.2482 42.5654 8.2482C41.9437 8.2482 41.4406 8.70242 41.4406 9.26326ZM41.4961 8.8071C41.4961 9.36663 40.9934 9.82023 40.3733 9.82023C39.7532 9.82023 39.2505 9.36663 39.2505 8.8071C39.2505 8.24756 39.7532 7.79397 40.3733 7.79397C40.9934 7.79397 41.4961 8.24756 41.4961 8.8071ZM30.4473 13.4908C30.4473 14.0514 29.9446 14.5059 29.3245 14.5059C28.7044 14.5059 28.2017 14.0514 28.2017 13.4908C28.2017 12.9302 28.7044 12.4757 29.3245 12.4757C29.9446 12.4757 30.4473 12.9302 30.4473 13.4908ZM30.1024 10.5476C30.7222 10.5476 31.2253 11.0093 31.2253 11.5779C31.2253 12.1472 30.7222 12.6092 30.1024 12.6092C29.4827 12.6092 28.9796 12.1474 28.9796 11.5779C28.9796 11.0093 29.4827 10.5476 30.1024 10.5476ZM32.8087 10.1471C32.8087 10.7057 32.3069 11.1585 31.6878 11.1585C31.0688 11.1585 30.5669 10.7057 30.5669 10.1471C30.5669 9.58846 31.0688 9.13562 31.6878 9.13562C32.3069 9.13562 32.8087 9.58846 32.8087 10.1471ZM34.839 9.26326C34.839 9.82079 34.3363 10.2728 33.7162 10.2728C33.0961 10.2728 32.5933 9.82079 32.5933 9.26326C32.5933 8.70573 33.0961 8.25376 33.7162 8.25376C34.3363 8.25376 34.839 8.70573 34.839 9.26326ZM37.0282 8.8071C37.0282 9.36663 36.5255 9.82023 35.9054 9.82023C35.2853 9.82023 34.7826 9.36663 34.7826 8.8071C34.7826 8.24756 35.2853 7.79397 35.9054 7.79397C36.5255 7.79397 37.0282 8.24756 37.0282 8.8071ZM30.1024 10.5476C30.7222 10.5476 31.2253 11.0093 31.2253 11.5779C31.2253 12.1472 30.7222 12.6092 30.1024 12.6092C29.4827 12.6092 28.9796 12.1474 28.9796 11.5779C28.9796 11.0093 29.4827 10.5476 30.1024 10.5476ZM44.7302 17.4587V17.4548C44.7302 17.4548 31.6475 17.4587 31.6437 17.4587C31.2424 17.4587 30.9147 17.8421 30.9147 18.3217C30.9147 18.7996 31.2424 19.1857 31.6437 19.1857H44.7244C45.1296 19.1857 45.4554 18.7994 45.4554 18.3217C45.4554 17.846 45.1332 17.4655 44.7302 17.4587ZM45.3934 15.7327V15.7288L31.0437 15.7308C30.598 15.7308 30.2392 16.1171 30.2392 16.5947C30.2392 17.0763 30.598 17.4606 31.0437 17.4606C31.056 17.4606 31.0673 17.4568 31.0823 17.4551H45.349C45.365 17.457 45.3782 17.4606 45.3896 17.4606C45.8333 17.4606 46.1921 17.0763 46.1921 16.5947C46.1883 16.1187 45.8333 15.7363 45.3934 15.7327Z" fill="#EF3340" stroke="#010202"/>
<path d="M49.8292 28.9641C49.8292 28.9641 48.2834 27.2239 48.1026 27.2369C49.1463 26.3181 49.9271 25.7865 49.8292 25.1737C49.2461 25.711 46.8384 25.083 46.6858 23.9111C47.3188 23.6287 47.1587 23.8025 48.5321 22.1821C44.327 22.7413 44.7763 18.9888 44.7763 18.9888L31.6492 18.8575L30.3569 21.4514L42.1255 33.8915C42.1255 33.8915 43.8872 37.139 43.8541 38.0823C42.0597 37.682 41.4293 36.9691 37.2826 40.1871C33.2394 38.698 34.2445 39.4346 27.3009 41.6489C24.9666 42.393 22.7462 40.8519 22.7462 40.8519C22.7462 40.8519 20.4656 38.2314 24.0094 36.6904C24.2412 36.1503 21.4433 32.443 17.6988 28.0453C12.7335 20.7987 7.78879 11.4296 4.91566 6.55225C0.459107 13.0367 3.80225 19.78 9.06909 25.7734C10.4295 27.3902 13.4834 30.7044 14.9463 31.9537C17.4427 34.373 18.0353 34.8195 18.0353 35.3381C17.5163 35.3153 16.6826 35.0369 16.3086 35.0245C15.4325 34.7913 6.28543 30.1557 3.55941 27.5466C1.36272 35.4314 6.06043 37.0131 9.62689 38.0112C12.3454 38.7667 14.8532 39.2946 16.9351 39.6391C16.8777 39.8733 16.9257 39.794 16.8758 39.9045C13.4854 40.7997 6.70673 41.2718 2.95001 40.505C1.98538 48.7657 14.5161 45.8648 17.5042 43.8101C17.6841 43.8062 17.7538 43.8101 17.7538 43.8101C17.7538 43.8101 17.653 44.1275 17.5645 44.4079C14.3579 47.3172 6.12193 50.5618 3.72171 51.4713C8.349 60.8425 18.6328 48.8566 19.9686 47.12C20.1861 47.1274 20.2172 47.12 20.3981 47.12C21.504 48.4788 7.66967 66.3684 5.36157 69.1484C14.9485 74.7991 21.3919 56.5591 25.0092 48.9821C25.4662 49.0727 25.6244 49.05 25.6244 49.05C25.6244 49.05 25.6649 50.2142 25.5029 50.5788C25.5981 51.2559 17.5296 76.7857 14.0357 84.1663C28.9232 84.4041 27.9709 60.6412 30.3607 49.4455C30.4398 49.2038 30.762 49.1697 31.102 49.249C31.914 50.4538 30.9315 70.0905 30.2259 75.9072C41.5875 72.5555 36.3264 50.6527 36.7815 48.2825C37.2308 47.1927 37.9928 47.5118 37.9928 47.5118C37.9928 47.5118 42.4571 60.7246 42.3204 61.904C41.7975 63.0201 31.962 83.2111 31.962 83.2111L37.1167 82.1422C37.1167 82.1422 39.9739 91.3133 40.4449 91.5134C44.1027 78.1837 44.9072 73.9117 45.4998 73.3035C46.6612 77.2619 50.1213 84.5255 48.534 93.398C46.9617 102.267 40.2404 108.356 36.203 108.035C33.9817 107.986 33.9337 106.441 34.3181 106.01C37.0726 102.907 36.0561 99.6228 32.7759 99.3849C31.3432 99.281 27.8293 99.6228 26.8977 102.237C26.6585 102.909 27.251 102.92 27.251 102.92C27.251 102.92 28.0517 102.188 29.5485 101.993C33.9798 101.421 26.5143 106.586 26.9966 110.169C27.1558 111.338 27.8585 112.273 28.3295 112.716C29.6201 113.933 32.1682 113.865 32.6336 113.829C33.3072 113.785 40.5353 114.507 48.4841 102.503C48.7064 102.163 48.9372 102.571 48.8704 103.7C48.731 106.344 45.3604 110.766 43.8428 112.388C43.401 112.854 42.7991 115.185 44.4408 115.763C46.9004 116.639 49.7689 119.529 49.7689 119.529L49.8292 28.9641Z" fill="#010202"/>
<path d="M39.1967 22.1566C39.1967 22.6307 38.5835 23.0092 37.8234 23.0092C37.0668 23.0092 36.4517 22.6307 36.4517 22.1566C36.4517 21.691 37.0668 21.3096 37.8234 21.3096C38.5835 21.3076 39.1967 21.691 39.1967 22.1566Z" fill="white"/>
<path d="M37.9505 22.0215C37.9505 22.3519 37.6416 22.6193 37.2637 22.6193C36.8812 22.6193 36.5732 22.3522 36.5732 22.0215C36.5732 21.6946 36.8812 21.4294 37.2637 21.4294C37.6416 21.4294 37.9505 21.6949 37.9505 22.0215Z" fill="#010202"/>
<path d="M35.3477 20.2539C35.3477 20.2539 34.2719 20.4391 34.2813 21.217C34.3059 22.5108 38.0183 20.4294 40.2538 20.8703C38.6315 20.1178 35.1762 21.6079 34.9351 21.0234C34.8635 20.8592 35.3477 20.2539 35.3477 20.2539Z" fill="white"/>
</g>
<defs>
<clipPath id="clip0_275_78705">
<rect width="100" height="120.88" fill="white"/>
</clipPath>
</defs>
</svg>
