<svg width="100" height="121" viewBox="0 0 100 121" fill="none" xmlns="http://www.w3.org/2000/svg">
<g clip-path="url(#clip0_275_78730)">
<path d="M49.4721 0.370361H98.6419V72.6883C98.6419 98.6748 76.6374 119.741 49.5036 119.741C22.3667 119.741 0.370117 98.6748 0.370117 72.6883V0.370361H49.4721Z" fill="#E8423F"/>
<path d="M70.2748 15.0756C70.2748 21.734 64.3651 27.1348 57.0742 27.1348C49.7823 27.1348 43.8726 21.734 43.8726 15.0756C43.8726 8.41326 49.7823 3.0144 57.0742 3.0144C64.3653 3.0144 70.2748 8.41326 70.2748 15.0756Z" fill="#FFD730"/>
<path fill-rule="evenodd" clip-rule="evenodd" d="M57.0742 3.42047C49.971 3.42047 44.2768 8.67216 44.2768 15.0751C44.2768 21.4781 49.9708 26.7297 57.0742 26.7297C64.1792 26.7297 69.8725 21.478 69.8725 15.0751C69.8725 8.67216 64.1792 3.42047 57.0742 3.42047ZM43.4683 15.0751C43.4683 8.15736 49.5955 2.61133 57.0742 2.61133C64.5548 2.61133 70.6811 8.15736 70.6811 15.0751C70.6811 21.9928 64.5548 27.5389 57.0742 27.5389C49.5953 27.5389 43.4683 21.9928 43.4683 15.0751Z" fill="#010202"/>
<path d="M11.4609 7.84188L23.9919 109.155L27.7117 108.743L16.0902 7.32495L11.4609 7.84188Z" fill="#010202"/>
<path d="M12.3979 8.58243C12.4189 8.73476 24.7072 108.083 24.7272 108.229C24.8614 108.21 26.6422 108.018 26.7822 108.002C26.7613 107.848 15.3672 8.4072 15.3502 8.25098C15.2072 8.27121 12.5397 8.56732 12.3979 8.58243Z" fill="#FFD730"/>
<path d="M13.2122 4.00237C10.8252 4.30311 9.05856 5.92725 9.27069 7.62573C9.48866 9.32421 11.6043 10.456 13.9873 10.1543C15.3926 9.97908 16.6512 9.32786 17.358 8.42074C17.808 7.83241 18.0087 7.17924 17.9269 6.52997C17.713 4.83174 15.5972 3.69674 13.2122 4.00237Z" fill="#010202"/>
<path d="M13.3151 4.83539C11.4836 5.06571 10.0947 6.16537 10.0947 7.33448C10.0947 7.39541 10.0986 7.45829 10.1062 7.5202C10.264 8.75878 11.9576 9.56792 13.8859 9.3225C15.0693 9.17212 16.1216 8.64179 16.6923 7.90406C17.0052 7.49656 17.144 7.05665 17.0929 6.63696C16.936 5.39911 15.2425 4.59167 13.3151 4.83539Z" fill="#FFD730"/>
<path d="M16.4712 29.788C14.168 30.085 12.4698 31.6597 12.682 33.2963C12.8941 34.9338 14.9357 36.0257 17.235 35.7296C19.5362 35.4364 21.2305 33.8598 21.0242 32.2212C20.814 30.5839 18.7724 29.4918 16.4712 29.788Z" fill="#010202"/>
<path d="M16.5772 30.6251C14.8314 30.8488 13.5044 31.8961 13.5044 33.0137C13.5044 33.0718 13.5083 33.1346 13.5158 33.1926C13.6681 34.3683 15.2871 35.1348 17.128 34.8967C18.966 34.6606 20.3406 33.5087 20.1857 32.3311C20.0391 31.1515 18.4198 30.385 16.5772 30.6251Z" fill="#FFD730"/>
<path d="M26.2075 39.5663C36.1852 38.7028 48.208 35.2164 53.5754 22.2137C58.8535 22.2137 60.3337 21.8586 60.3337 21.8586C60.3337 21.8586 62.2781 24.4262 71.5556 29.315C73.3137 30.2384 78.6677 49.4437 78.6677 49.4437C78.6677 49.4437 79.6572 53.2443 76.8906 53.564C74.1242 53.8752 69.1087 53.6708 69.1087 53.6708C69.1087 53.6708 75.5606 104.543 75.6084 104.977C75.243 105.08 73.0456 106.246 70.5359 107.559C68.0471 108.854 65.2389 110.305 63.5835 110.716C63.4768 110.747 62.2516 111.048 61.6885 109.924C61.1252 108.808 61.8977 107.959 61.8977 107.959L67.3241 103.172C67.3241 103.172 67.4763 102.9 67.4687 102.715C67.4553 102.525 67.2157 102.453 67.2157 102.453L58.3454 102.384L50.0003 59.3409L49.0205 59.5607L57.1163 102.513L39.7915 102.525L44.3723 46.2525L26.7859 46.203C26.7879 46.203 26.256 40.0851 26.2075 39.5663Z" fill="#010202"/>
<path d="M60.2255 27.1292L60.8684 22.2119L59.3197 25.5755H54.7285L53.4385 22.471L54.0132 27.1292H60.2255Z" fill="white"/>
<path d="M64.9438 38.1917H53.3032V46.026H64.9438V38.1917Z" fill="#FFD730"/>
<path d="M52.7916 38.1917H51.043V46.026H52.7916V38.1917Z" fill="#FFD730"/>
<path d="M50.5881 38.1917H49.4902V46.026H50.5881V38.1917Z" fill="#FFD730"/>
<path d="M65.6231 15.0754C65.6231 19.6107 61.679 23.2838 56.8157 23.2838C51.9488 23.2838 48.0054 19.611 48.0054 15.0754C48.0054 10.541 51.9485 6.86499 56.8157 6.86499C61.6787 6.86499 65.6231 10.5408 65.6231 15.0754Z" fill="#010202"/>
<path d="M56.6198 11.4437C58.6443 11.4827 62.1813 10.7391 61.4716 15.0519C61.3233 15.9534 61.4716 17.1406 61.4716 17.1406C61.4716 17.1406 61.6048 18.521 61.4336 19.435C61.1292 22.1958 60.4938 22.7242 57.3278 22.8375C53.5909 22.9708 53.6593 22.6014 53.0504 21.0849C51.6691 16.8732 52.2399 13.6391 52.2399 13.6391C52.2399 13.6391 52.5804 11.3749 56.6198 11.4437Z" fill="white"/>
<path d="M46.1463 103.372C46.1463 103.372 42.0081 103.372 39.665 103.359C38.1 105.558 33.3595 104.901 32.0952 104.969C30.9849 105.034 30.2212 105.754 30.2212 106.912C30.2212 108.075 31.1839 108.865 32.2199 108.865H44.1201C45.5662 108.865 45.999 107.559 45.999 107.559L46.1463 103.372Z" fill="#010202"/>
<path d="M58.8914 52.0912L58.1742 46.5466L54.3403 46.5731H50.7593C50.6071 46.5731 50.4797 46.733 50.4797 46.9207C50.4797 47.1159 50.6034 47.2719 50.7593 47.2719H53.6058C53.6058 47.2719 53.6781 47.7669 53.467 47.7783C53.467 47.7783 50.3294 47.8354 50.1887 47.8354C50.044 47.8354 49.1451 47.0433 49.1451 47.0433C49.0927 46.9909 49.0708 46.967 49.0499 46.9365C49.0129 46.8831 48.9995 46.7956 48.9995 46.7956C48.9995 46.6358 48.95 46.491 48.7693 46.4795C48.5857 46.4681 48.4459 46.5834 48.4259 46.7471C48.3811 47.1061 48.4403 47.1383 48.4668 47.1776C48.4907 47.2185 48.5258 47.2814 49.6112 48.3608C49.6636 48.4371 49.7995 48.4866 49.8872 48.4846L52.7537 48.4685L52.7802 49.0008H49.866C49.7099 49.0008 49.5854 49.157 49.5854 49.352C49.5854 49.5433 49.7082 49.6996 49.866 49.6996H52.8065L52.8331 50.1945H50.0021C49.848 50.1945 49.7196 50.3508 49.7196 50.5411C49.7196 50.7363 49.8463 50.8887 50.0021 50.8887H52.8676L52.8866 51.4114H50.1848C50.026 51.4114 49.9013 51.5677 49.9013 51.758C49.9013 51.9532 50.024 52.1092 50.1848 52.1092H53.8265C53.8379 52.1092 53.853 52.0968 53.8683 52.0968H58.8914V52.0912Z" fill="white"/>
<path d="M14.4614 39.9253C14.4614 40.3718 14.7744 41.0879 15.6592 41.0879H19.0203V46.2584L33.0468 46.206L32.4036 39.4008L14.4614 39.3838V39.9253Z" fill="#010202"/>
<path d="M26.3785 45.6746L25.839 39.9367L14.9966 39.9253C14.9966 40.149 15.1364 40.5602 15.6607 40.5602H19.5535V45.6868L26.3785 45.6746Z" fill="white"/>
<path d="M15.9729 40.5649C15.4802 40.5649 15.0806 40.9839 15.0806 41.5045C15.0806 42.0224 15.4802 42.4404 15.9729 42.4404H19.371C19.8676 42.4404 20.2653 42.0204 20.2653 41.5045C20.2653 40.9817 19.8676 40.5649 19.371 40.5649H15.9729Z" fill="#010202"/>
<path d="M15.973 41.0972C15.776 41.0972 15.6162 41.28 15.6162 41.5047C15.6162 41.7245 15.776 41.9083 15.973 41.9083H19.3711C19.5718 41.9083 19.7355 41.7245 19.7355 41.5047C19.7355 41.28 19.5718 41.0972 19.3711 41.0972H15.973Z" fill="white"/>
<path d="M16.2222 42.0149C15.7295 42.0149 15.3354 42.4299 15.3354 42.9449C15.3354 43.4523 15.7293 43.8713 16.2222 43.8713H19.5071C19.9941 43.8713 20.3918 43.4523 20.3918 42.9449C20.3918 42.4299 19.9941 42.0149 19.5071 42.0149H16.2222Z" fill="#010202"/>
<path d="M16.222 42.5471C16.027 42.5471 15.8672 42.7233 15.8672 42.9432C15.8672 43.1554 16.027 43.3353 16.222 43.3353H19.5069C19.7 43.3353 19.8598 43.1554 19.8598 42.9432C19.8598 42.7233 19.7 42.5471 19.5069 42.5471H16.222Z" fill="white"/>
<path d="M16.3431 43.4268C15.8579 43.4268 15.4727 43.8104 15.4727 44.2827C15.4727 44.7511 15.8579 45.1386 16.3431 45.1386H19.6613C20.1445 45.1386 20.5356 44.7511 20.5356 44.2827C20.5356 43.8104 20.1447 43.4268 19.6613 43.4268H16.3431Z" fill="#010202"/>
<path d="M16.3431 43.9646C16.148 43.9646 15.9883 44.1055 15.9883 44.2846C15.9883 44.4645 16.148 44.6046 16.3431 44.6046H19.6614C19.8584 44.6046 20.0133 44.4647 20.0133 44.2846C20.0133 44.1057 19.8581 43.9646 19.6614 43.9646H16.3431Z" fill="white"/>
<path d="M16.5533 44.6433C16.0757 44.6433 15.6865 45.006 15.6865 45.4544C15.6865 45.9065 16.0757 46.277 16.5533 46.277H19.6984C20.1799 46.277 20.5668 45.9085 20.5668 45.4544C20.5668 45.006 20.1796 44.6433 19.6984 44.6433H16.5533Z" fill="#010202"/>
<path d="M16.5531 45.1758C16.3685 45.1758 16.2183 45.3006 16.2183 45.4548C16.2183 45.6111 16.3685 45.7395 16.5531 45.7395H19.6982C19.8884 45.7395 20.0331 45.6111 20.0331 45.4548C20.0331 45.3025 19.8884 45.1758 19.6982 45.1758H16.5531Z" fill="white"/>
<path d="M54.5037 16.3016C54.5037 16.6011 54.2602 16.8395 53.9691 16.8395C53.6742 16.8395 53.4346 16.6009 53.4346 16.3016C53.4346 16.0055 53.6742 15.7656 53.9691 15.7656C54.2602 15.7637 54.5037 16.0055 54.5037 16.3016Z" fill="#010202"/>
<path d="M59.3633 16.3016C59.3633 16.6011 59.1237 16.8395 58.8229 16.8395C58.5336 16.8395 58.29 16.6009 58.29 16.3016C58.29 16.0055 58.5336 15.7656 58.8229 15.7656C59.1237 15.7637 59.3633 16.0055 59.3633 16.3016Z" fill="#010202"/>
<path d="M57.3864 14.5157C57.2702 14.612 57.2626 14.7775 57.3503 14.8947C57.4472 15.0071 57.7785 15.1089 57.8907 15.0136C57.9212 14.9881 58.8269 14.4967 59.0551 14.5377C59.4584 14.6157 59.9494 14.7558 60.5163 15.0405C60.6496 15.107 60.8018 15.1014 60.8931 14.9844C60.9844 14.8616 60.9121 14.6313 60.7847 14.5435C58.9752 13.2296 57.4036 14.5023 57.3864 14.5157Z" fill="#010202"/>
<path d="M53.2345 14.4928C53.0993 14.5488 53.0385 14.707 53.0957 14.8459C53.1566 14.9822 53.4116 15.0916 53.5448 15.0307C53.8341 14.9078 54.5837 14.6081 55.0365 14.9212C55.3029 15.1145 55.4171 15.5049 55.3752 16.0874C55.204 18.5246 55.2191 19.2263 55.2191 19.2577C55.223 19.4005 55.3353 19.5168 55.478 19.5234L57.6774 19.6072C57.8257 19.6128 57.8411 19.0732 57.6984 19.0664C57.6984 19.0664 56.1762 19.1198 55.7729 19.1017C55.7824 18.7296 55.8014 17.7747 55.9176 16.1306C55.9251 16.0411 55.9251 15.9592 55.9251 15.8715C55.9251 15.2261 56.0014 14.7538 55.6263 14.4767C54.7871 13.8645 53.2859 14.4652 53.2345 14.4928Z" fill="#010202"/>
<path d="M55.4858 20.7371C55.2632 20.7371 55.0825 20.915 55.0825 21.1387C55.0825 21.3615 55.2632 21.5443 55.4858 21.5443H57.9212C58.1458 21.5443 58.3284 21.3615 58.3284 21.1387C58.3284 20.915 58.1458 20.7371 57.9212 20.7371H55.4858Z" fill="#010202"/>
<path fill-rule="evenodd" clip-rule="evenodd" d="M-0.000976562 -0.000976562H99.0131V72.6884C99.0131 98.8953 76.8269 120.113 49.5036 120.113C22.1774 120.113 -0.000976562 98.8952 -0.000976562 72.6884V-0.000976562ZM0.741337 0.741878V72.6884C0.741337 98.4545 22.5562 119.37 49.5036 119.37C76.4481 119.37 98.2708 98.4545 98.2708 72.6884V0.741878H0.741337Z" fill="#010202"/>
</g>
<defs>
<clipPath id="clip0_275_78730">
<rect width="100" height="120.88" fill="white" transform="translate(-0.000976562 -0.000976562)"/>
</clipPath>
</defs>
</svg>
