<svg width="100" height="121" viewBox="0 0 100 121" fill="none" xmlns="http://www.w3.org/2000/svg">
<g clip-path="url(#clip0_275_78779)">
<path d="M99.344 1.3606V73.205C99.344 99.0249 77.1452 119.912 49.8296 119.912C22.4878 119.912 0.362467 99.0249 0.362467 73.205L0.36084 1.3606H99.344Z" fill="white"/>
<rect x="99.7114" y="51.8525" width="24.9278" height="25.9249" transform="rotate(180 99.7114 51.8525)" fill="#FAB20B"/>
<rect x="49.856" y="51.8525" width="24.9278" height="25.9249" transform="rotate(-90 49.856 51.8525)" fill="#176FC1"/>
<rect x="99.7114" y="1" width="24.9278" height="25.9249" transform="rotate(90 99.7114 1)" fill="#176FC1"/>
<mask id="path-5-outside-1_275_78779" maskUnits="userSpaceOnUse" x="79.7144" y="31.9075" width="20" height="20" fill="black">
<rect fill="white" x="79.7144" y="31.9075" width="20" height="20"/>
<path fill-rule="evenodd" clip-rule="evenodd" d="M98.7144 50.8555L98.7144 32.9075L80.7664 32.9075L80.7664 50.8555L98.7144 50.8555Z"/>
</mask>
<path fill-rule="evenodd" clip-rule="evenodd" d="M98.7144 50.8555L98.7144 32.9075L80.7664 32.9075L80.7664 50.8555L98.7144 50.8555Z" fill="#176FC1"/>
<path d="M98.7144 32.9075L98.7144 31.9075L99.7144 31.9075L99.7144 32.9075L98.7144 32.9075ZM80.7664 32.9075L79.7664 32.9075L79.7664 31.9075L80.7664 31.9075L80.7664 32.9075ZM80.7664 50.8555L80.7664 51.8555L79.7664 51.8555L79.7664 50.8555L80.7664 50.8555ZM97.7144 50.8555L97.7144 32.9075L99.7144 32.9075L99.7144 50.8555L97.7144 50.8555ZM98.7144 33.9075L80.7664 33.9075L80.7664 31.9075L98.7144 31.9075L98.7144 33.9075ZM81.7664 32.9075L81.7664 50.8555L79.7664 50.8555L79.7664 32.9075L81.7664 32.9075ZM80.7664 49.8555L98.7144 49.8555L98.7144 51.8555L80.7664 51.8555L80.7664 49.8555Z" fill="black" mask="url(#path-5-outside-1_275_78779)"/>
<mask id="path-7-outside-2_275_78779" maskUnits="userSpaceOnUse" x="49.8008" y="31.8555" width="20" height="20" fill="black">
<rect fill="white" x="49.8008" y="31.8555" width="20" height="20"/>
<path fill-rule="evenodd" clip-rule="evenodd" d="M50.8528 50.8555L68.8008 50.8555L68.8008 32.9075L50.8528 32.9075L50.8528 50.8555Z"/>
</mask>
<path fill-rule="evenodd" clip-rule="evenodd" d="M50.8528 50.8555L68.8008 50.8555L68.8008 32.9075L50.8528 32.9075L50.8528 50.8555Z" fill="#FAB20B"/>
<path d="M68.8008 50.8555L69.8008 50.8555L69.8008 51.8555L68.8008 51.8555L68.8008 50.8555ZM68.8008 32.9075L68.8008 31.9075L69.8008 31.9075L69.8008 32.9075L68.8008 32.9075ZM50.8528 32.9075L49.8528 32.9075L49.8528 31.9075L50.8528 31.9075L50.8528 32.9075ZM50.8528 49.8555L68.8008 49.8555L68.8008 51.8555L50.8528 51.8555L50.8528 49.8555ZM67.8008 50.8555L67.8008 32.9075L69.8008 32.9075L69.8008 50.8555L67.8008 50.8555ZM68.8008 33.9075L50.8528 33.9075L50.8528 31.9075L68.8008 31.9075L68.8008 33.9075ZM51.8528 32.9075L51.8528 50.8555L49.8528 50.8555L49.8528 32.9075L51.8528 32.9075Z" fill="black" mask="url(#path-7-outside-2_275_78779)"/>
<mask id="path-9-outside-3_275_78779" maskUnits="userSpaceOnUse" x="79.7661" y="0.997068" width="20" height="20" fill="black">
<rect fill="white" x="79.7661" y="0.997068" width="20" height="20"/>
<path fill-rule="evenodd" clip-rule="evenodd" d="M98.7141 1.99707L80.7661 1.99707L80.7661 19.9451L98.7141 19.9451L98.7141 1.99707Z"/>
</mask>
<path fill-rule="evenodd" clip-rule="evenodd" d="M98.7141 1.99707L80.7661 1.99707L80.7661 19.9451L98.7141 19.9451L98.7141 1.99707Z" fill="#FAB20B"/>
<path d="M80.7661 1.99707L79.7661 1.99707L79.7661 0.99707L80.7661 0.99707L80.7661 1.99707ZM80.7661 19.9451L80.7661 20.9451L79.7661 20.9451L79.7661 19.9451L80.7661 19.9451ZM98.7141 19.9451L99.7141 19.9451L99.7141 20.9451L98.7141 20.9451L98.7141 19.9451ZM98.7141 2.99707L80.7661 2.99707L80.7661 0.99707L98.7141 0.997068L98.7141 2.99707ZM81.7661 1.99707L81.7661 19.9451L79.7661 19.9451L79.7661 1.99707L81.7661 1.99707ZM80.7661 18.9451L98.7141 18.9451L98.7141 20.9451L80.7661 20.9451L80.7661 18.9451ZM97.7141 19.9451L97.7141 1.99707L99.7141 1.99707L99.7141 19.9451L97.7141 19.9451Z" fill="black" mask="url(#path-9-outside-3_275_78779)"/>
<rect x="49.856" y="1" width="24.9278" height="25.9249" fill="#FAB20B"/>
<path fill-rule="evenodd" clip-rule="evenodd" d="M0 0.999756H99.7043V73.2047C99.7043 99.2436 77.3236 120.272 49.8293 120.272C22.3082 120.272 0.00163503 99.243 0.00163503 73.2047L0 0.999756ZM0.721085 1.72082L0.722703 73.2047C0.722703 98.8063 22.6668 119.551 49.8293 119.551C76.9662 119.551 98.9832 98.8057 98.9832 73.2047V1.72082H0.721085Z" fill="black"/>
<mask id="path-13-outside-4_275_78779" maskUnits="userSpaceOnUse" x="49.8525" y="0.945068" width="20" height="20" fill="black">
<rect fill="white" x="49.8525" y="0.945068" width="20" height="20"/>
<path fill-rule="evenodd" clip-rule="evenodd" d="M50.8525 1.99708V19.9451H68.8005V1.99708H50.8525Z"/>
</mask>
<path fill-rule="evenodd" clip-rule="evenodd" d="M50.8525 1.99708V19.9451H68.8005V1.99708H50.8525Z" fill="#176FC1"/>
<path d="M50.8525 19.9451V20.9451H49.8525V19.9451H50.8525ZM68.8005 19.9451H69.8005V20.9451H68.8005V19.9451ZM68.8005 1.99708V0.99708H69.8005V1.99708H68.8005ZM51.8525 1.99708V19.9451H49.8525V1.99708H51.8525ZM50.8525 18.9451H68.8005V20.9451H50.8525V18.9451ZM67.8005 19.9451V1.99708H69.8005V19.9451H67.8005ZM68.8005 2.99708H50.8525V0.99708H68.8005V2.99708Z" fill="black" mask="url(#path-13-outside-4_275_78779)"/>
<path fill-rule="evenodd" clip-rule="evenodd" d="M52.9547 59.1407C52.5816 59.079 51.592 59.2651 51.2681 59.3532C50.9135 59.4503 49.983 59.8207 49.9278 60.1817C49.8731 60.5427 50.1785 60.6951 50.4568 60.6665C50.5194 60.6594 50.5702 60.6587 50.6269 60.6547C50.415 60.4571 50.2776 60.2029 50.6159 59.9872C51.2717 59.5695 52.8284 59.5832 52.8284 59.5832C52.8284 59.5832 52.9159 59.5857 53.0418 59.5934C53.0702 59.403 53.1538 59.1733 52.9547 59.1407Z" fill="#ED1C24"/>
<path fill-rule="evenodd" clip-rule="evenodd" d="M54.926 59.5738C54.732 59.5505 54.6321 59.7149 54.5439 59.9078C54.8311 60.022 55.1028 60.1755 55.3067 60.3864C55.5132 60.6003 55.7102 60.8016 55.8903 60.9846C55.9604 60.8943 56.0275 60.7985 56.0813 60.6858C56.2052 60.4244 55.4843 59.6426 54.926 59.5738Z" fill="#ED1C24"/>
<path d="M44.4782 63.8401C44.4782 63.8401 44.4687 63.7446 44.4092 63.645C44.2961 63.4526 43.6317 63.3826 43.0429 63.5475C41.9236 63.8613 40.8582 63.8401 39.7561 63.1797C39.4194 62.978 39.0256 62.5603 38.9149 62.1595C38.7462 61.552 38.9713 60.9629 39.6044 60.6215C40.1833 62.1486 41.5668 62.0396 42.748 62.2476C43.6266 62.4022 44.5397 62.3422 45.4374 62.3767C46.3206 62.4109 47.1299 62.5962 47.6335 63.7586L44.4782 63.8401Z" fill="#231F20"/>
<path d="M54.927 59.5739C54.5383 59.5266 54.5284 60.2294 54.2279 60.4099C53.9285 60.5904 53.0234 60.5381 53.0309 59.6816C53.0323 59.483 53.1851 59.1787 52.9547 59.1407C52.5816 59.0791 51.592 59.2652 51.2681 59.3533C50.9135 59.4504 49.983 59.8208 49.9284 60.1818C49.8732 60.5427 50.1785 60.6952 50.4568 60.6666C50.9756 60.6128 51.2681 60.6423 51.6449 60.7986C52.0702 60.9744 52.6204 61.5791 53.3538 61.6539C54.3054 61.7512 55.5851 61.7301 56.0816 60.6853C56.2055 60.4245 55.4846 59.6427 54.927 59.5739ZM47.4537 63.7587C47.8368 63.7587 48.2045 63.4113 48.2045 62.8825C48.2045 62.2296 47.7066 61.8452 47.0836 61.801C46.192 61.7378 45.2961 61.7161 44.4018 61.7192C44.0487 61.7207 43.7158 61.7497 43.7941 61.2533C43.8576 60.8508 43.7507 60.2804 44.4648 60.329C45.0176 60.3669 45.5785 60.346 46.1305 60.2916C46.3185 60.273 46.6705 60.2394 46.6687 59.953C46.6669 59.6776 46.315 59.5718 46.115 59.577C45.7263 59.5889 44.5815 59.7423 44.6146 59.4995C44.7465 58.5416 45.0624 58.1961 46.0741 58.0358C47.086 57.8756 49.1003 57.5457 49.7135 57.387C50.3269 57.2283 50.512 56.8112 52.0866 56.4938C53.6613 56.1772 53.9487 55.726 53.4487 54.2135C54.3607 54.1441 54.6509 54.4702 55.136 56.1072C55.8532 55.7142 55.9682 55.1549 55.5159 54.2561C56.1816 54.1621 56.7846 54.6006 57.0688 55.3547C57.1569 55.5881 57.2174 55.9694 57.4345 55.9812C57.6517 55.9937 58.4106 56.0768 58.9956 55.7276C60.1115 55.0631 60.8823 54.6321 61.436 58.3627C61.4569 58.5042 62.0121 57.2727 61.9748 56.6799C61.942 56.1654 62.1189 55.9749 62.5906 56.0278C63.2166 56.0985 65.4921 56.266 66.2167 56.0456C67.9032 55.4745 67.5056 58.1847 67.5056 58.7501C67.6032 58.7703 67.7011 58.7915 67.7988 58.8118C67.9942 58.2294 68.1898 57.6469 68.4241 56.9506C69.5898 57.2983 70.7883 57.6717 71.9973 58.0038C72.2773 58.0801 72.6122 58.0887 72.8863 58.0038C73.7212 57.7465 74.4131 58.2537 74.3952 59.1728C74.3883 59.5017 74.2197 60.7426 74.4018 61.1963C74.754 60.825 75.0033 59.0965 75.8564 59.6785C76.5863 60.0775 77.3136 60.4846 78.0648 60.8369C78.3522 60.9713 78.7045 61.0339 79.0193 61.0127C79.97 60.9489 80.5209 61.4459 80.4315 62.4235C80.3918 62.8655 80.242 63.3002 80.1052 63.7259C80.0013 64.048 79.8378 64.349 79.701 64.6593C79.7522 64.7053 79.8018 64.7505 79.8523 64.7956C80.1411 64.7567 80.8885 63.9407 80.9902 63.56C84.9333 67.3149 83.836 73.4631 81.3783 73.4569C83.7145 68.0432 74.0555 59.4131 58.4255 59.9592C58.1987 59.954 57.836 59.8783 57.7375 60.3C57.6398 60.714 57.7204 61.4329 58.1091 61.4578C58.8906 61.5091 60.1981 61.7114 60.7539 61.2072C61.2861 60.7242 61.9697 60.9006 62.2718 61.9199C62.4106 62.6124 62.4086 64.2345 62.4086 64.2345C62.4086 64.2345 63.1465 62.2856 64.0539 62.5806C64.6539 62.7752 65.9787 63.0668 66.4519 62.6939C67.0853 62.1938 68.0226 62.7042 68.0459 63.5585C68.0653 64.2893 67.7734 65.9082 67.7734 65.9082C67.7734 65.9082 68.9704 64.3396 69.5608 64.5647C70.1504 64.7888 71.8012 65.6888 71.9952 65.5746C72.5862 65.226 73.0331 65.2547 73.3534 65.6748C74.2743 66.733 73.163 68.9722 73.163 68.9722C73.163 68.9722 74.2803 67.1693 75.1803 68.0012C75.8242 68.5869 76.643 69.8991 77.8539 69.9068C78.5623 69.9105 78.8008 71.0553 78.278 71.8168C77.9877 72.2401 77.3037 73.0097 77.3037 73.0097C77.3037 73.0097 78.249 72.5522 78.6479 72.6254C81.7085 79.9668 76.2057 83.0252 75.8639 82.1008C75.7958 81.7912 78.7862 80.2023 76.3818 75.2543C74.6997 71.7919 71.2504 69.7223 67.6847 67.9881C64.4757 66.4264 57.9673 65.8279 57.733 65.8818C57.727 65.9792 57.7204 66.0757 57.7145 66.1728C58.6076 66.3853 59.4921 66.6744 60.3972 66.7905C61.5249 66.9347 64.3772 67.0473 64.1593 68.4596C64.0488 69.177 61.1315 69.1957 60.0592 69.103C59.2189 69.0307 58.401 68.6361 57.5837 68.3482C57.224 68.2212 56.9443 68.2698 56.7762 68.6112C56.6085 68.952 55.9822 69.5573 56.7607 69.9308C57.3518 70.214 58.0315 70.2974 58.6628 70.467C57.9837 71.6954 57.0703 72.1414 55.7345 71.918C55.5494 71.8868 55.1905 71.8153 55.1374 72.0916C55.0846 72.3686 55.33 72.5886 55.4957 72.6587C56.0204 72.8812 56.5792 73.0181 57.1189 73.1862C56.71 74.1028 55.9091 74.4357 54.7264 74.1976C54.5031 74.1525 54.1269 74.099 54.0046 74.3449C53.8822 74.5907 54.2353 74.9284 54.4374 75.0295C54.8807 75.2496 55.9434 75.5166 55.9434 75.5166C55.5264 76.8275 53.7285 76.3031 53.3403 76.6152C52.9523 76.9271 53.9732 78.3711 56.9951 79.4177C59.5816 80.3132 61.5713 81.4292 63.2957 84.0456C64.9653 83.0108 66.7579 82.9414 68.5957 83.0538C70.4847 83.1687 72.348 83.1039 73.757 81.3168C74.5296 84.7447 69.9474 84.735 69.8838 85.0967C70.9122 85.4975 71.8316 85.2401 73.1116 85.0879C72.4465 86.0901 71.3764 86.5824 70.2818 86.6973C68.8474 86.847 67.6623 86.0957 66.4823 85.3827C65.7504 84.9414 65.3758 84.9199 64.5548 85.3475C66.3689 86.3556 68.2584 91.0762 68.8608 91.7136C69.7459 92.6497 70.1883 92.6002 71.0504 91.8163C71.5728 91.3413 71.8898 91.3628 72.3146 91.951C72.7958 92.617 73.2549 93.2058 73.6988 93.9945C74.143 94.7834 73.9242 96.1513 74.3683 96.7161C75.448 98.1767 76.9421 99.8131 78.0198 101.276C78.5524 101.998 78.7167 102.879 78.3789 103.789C78.2238 104.206 78.0075 104.417 77.5085 104.372C75.8982 104.227 75.5355 104.503 74.8803 106.005C74.7884 106.216 74.3779 106.443 74.166 106.398C73.3406 106.227 72.3421 105.977 71.7301 105.69C71.1182 105.402 70.7624 105.124 70.74 104.874C70.7176 104.624 74.5257 103.18 73.5869 100.413C73.0033 98.6912 71.4833 97.3616 70.6504 97.0889C70.3286 98.4051 70.4877 100.019 68.7415 100.482C68.8539 99.805 69.0549 99.2227 69.0152 98.6594C68.9758 98.0843 68.7003 97.5266 68.3853 96.9925C68.2205 97.834 68.0788 98.6824 67.8838 99.5174C67.6704 100.433 67.0644 100.929 66.0832 101.194C66.6002 99.7963 66.9674 98.5168 65.9876 97.117C65.7196 99.0833 65.7384 101.083 63.319 101.473C63.4399 101.253 63.5503 101.027 63.6832 100.816C64.6255 99.3254 64.416 97.9209 63.7704 96.3034C63.1285 94.6963 62.3832 94.765 61.2047 93.0266C59.9801 91.2187 59.6151 88.2176 59.1174 87.4445C58.401 86.3341 56.5688 85.6105 54.3657 84.9946C54.2816 85.4878 54.2359 86.0104 54.1732 86.377C55.1966 86.4312 59.1688 86.5572 59.0488 88.9138C58.9852 90.1624 59.3509 91.3295 60.1062 92.2855C60.5279 92.8202 60.3249 93.6518 59.6787 94.1038C58.821 94.7028 57.6509 94.2805 57.292 93.2584C56.4144 90.7565 57.7927 89.3672 57.5389 89.1146C54.3374 89.592 46.9296 94.6686 51.1785 96.8372C51.7523 97.1304 52.3592 97.2626 52.3816 97.7049C52.4239 98.5638 48.789 100.169 47.2517 100.976C46.6866 101.273 46.0621 101.461 45.4478 101.637C42.9878 102.336 40.8949 103.589 39.4686 105.866C39.1949 106.303 38.7435 106.416 38.3626 106.09C37.6089 105.446 36.9942 105.371 36.3686 106.04C35.8704 106.574 35.3516 106.607 34.7958 106.381C34.1298 106.11 33.4516 105.81 32.8754 105.381C32.2951 104.95 32.4029 104.555 32.9262 104.036C34.9996 101.978 37.6969 101.334 40.2803 100.402C41.5343 99.9494 42.74 99.3413 43.946 98.755C44.4487 98.5103 44.8009 98.0899 44.6361 97.4739C43.951 97.9343 43.3191 98.5517 42.5731 98.8069C41.8134 99.0665 40.9235 99.1334 40.028 98.5352C41.3406 98.1997 42.5188 97.8468 43.1579 96.5449C42.1806 96.9418 41.2687 97.4045 40.3075 97.6768C39.3194 97.9576 37.9745 97.4092 37.6271 96.7678C38.4662 96.661 39.331 96.6324 40.1522 96.4205C40.9486 96.2156 41.8089 95.9562 42.0116 94.7395C40.2441 95.9801 36.7185 96.6452 35.925 94.1874C38.4581 95.1258 40.9546 93.8815 41.4895 92.4418C41.8235 91.542 44.5654 87.9894 51.9965 86.6294C51.8643 85.8725 51.7547 85.2392 51.6383 84.5716C46.6305 84.4689 43.6057 85.4695 42.1958 87.0225C41.7247 87.4878 41.4232 87.4915 40.9669 87.1099C37.9515 84.5875 34.5709 82.8275 30.7904 81.9685C29.0115 81.564 27.1951 81.3362 25.3825 81.7488C24.7043 81.9035 24.0508 82.1942 23.4022 82.4643C22.8308 82.7018 22.4446 82.5447 22.2857 81.9449C21.9896 80.8286 21.1565 80.376 20.1428 80.7816C19.0532 81.2182 17.5732 80.7918 16.8556 79.8355C16.3887 79.2139 16.494 78.6714 17.1564 78.2809C18.2607 77.6304 19.4938 77.5255 20.692 77.6226C22.9819 77.8094 25.258 78.1797 27.5446 78.4241C28.3029 78.5056 29.0954 78.5491 29.8381 78.4116C31.4548 78.1113 32.9506 78.4231 34.4614 78.9992C35.4504 79.3764 36.5029 79.578 37.534 79.827C38.0948 79.963 38.6701 80.0355 39.3026 80.1482C38.7113 79.3935 38.0062 78.992 37.1241 78.9167C36.0551 78.8246 35.9665 78.6559 36.4268 77.6295C39.2328 70.9245 46.3568 70.1642 48.5269 68.304C49.2176 67.7329 49.1872 67.1226 49.5517 66.4118C51.2368 66.9966 53.0478 66.9586 54.6673 65.6695C54.6562 65.5809 54.6443 65.4921 54.633 65.4031C52.3099 66.2132 51.624 65.9923 50.4323 65.5404C48.9755 64.9886 48.2015 65.2936 47.6902 66.2188C46.7299 67.9561 45.503 68.9317 43.6054 68.8984C41.4051 68.788 41.751 68.1702 42.5534 68.037C43.7033 67.8462 44.4474 67.0847 44.9884 66.0648C45.2433 65.584 45.1836 65.2587 44.6645 64.9683C44.2821 64.7546 43.8248 64.4906 43.78 64.2619C43.7352 64.0331 44.0158 63.8542 44.4092 63.8442C44.803 63.833 47.1824 63.7587 47.4537 63.7587Z" fill="#231F20"/>
<path d="M38.4143 73.1576C37.5901 74.2677 36.8104 75.3187 35.9581 76.4666C35.371 75.8861 32.4279 72.8688 29.9166 71.5342C28.1921 70.618 26.7109 70.5819 25.0431 70.5222C24.5136 70.5026 23.9601 70.9009 23.4342 71.1478C22.8078 71.4412 22.3651 71.2526 22.1592 70.5595C21.8723 69.5948 20.7523 68.9639 19.8636 69.3514C19.269 69.6113 19.0063 69.3691 18.795 68.858C18.4812 68.0972 18.0809 67.3617 17.866 66.5718C17.5666 65.475 17.9198 65.1116 18.9854 65.209C23.1356 65.6376 29.105 68.5403 30.002 68.9172C30.1757 68.9904 30.3873 69.0479 30.5649 69.0149C32.5417 68.6526 34.0157 69.4874 35.3053 70.9899C36.117 71.936 37.0931 72.7293 38.4143 73.1576Z" fill="#231F20"/>
<path d="M29.6725 111.667C29.6029 111.405 31.7531 108.288 32.9024 106.528C33.686 106.783 34.3445 107.017 35.0141 107.211C35.7314 107.42 35.8893 107.669 35.5842 108.413C34.9613 109.93 33.7191 110.759 32.3331 111.343C31.5558 111.67 29.7424 111.927 29.6725 111.667Z" fill="#231F20"/>
<path d="M15.5516 80.4732C16.0158 80.2412 16.3143 80.3841 16.7355 80.6319C17.3872 81.0149 18.3594 81.3632 18.6391 81.4308C18.9185 81.4986 19.2716 81.4955 19.3322 81.6788C19.3935 81.8627 19.3499 82.1677 19.2376 82.2985C18.9116 82.6784 18.6188 82.9066 18.2492 83.0276C16.1343 83.7248 13.9385 83.0118 11.9453 82.1839C11.9453 82.1839 14.8119 80.8422 15.5516 80.4732Z" fill="#231F20"/>
<path d="M12.1646 67.1088C12.1646 67.1088 14.9735 66.9974 16.0192 66.9408C16.9813 66.8879 17.4243 67.0665 17.6518 67.9933C17.7326 68.3232 17.9691 68.612 18.1368 68.9176C18.4697 69.523 18.2858 70.0605 17.6261 70.1346C17.0631 70.1984 16.4595 70.161 15.9111 70.0162C14.6679 69.6879 13.6093 68.983 12.7294 68.0098C12.3875 67.6317 12.1646 67.1088 12.1646 67.1088Z" fill="#231F20"/>
<path d="M32.4331 106.032C32.4331 106.032 30.6027 109.033 29.5833 110.495C29.3758 110.794 28.2444 110.887 28.1996 110.662C28.1548 110.437 31.8167 105.134 31.8167 105.134L32.4331 106.032Z" fill="#231F20"/>
<path d="M10.9683 80.3904C12.6157 79.7576 14.1486 79.1694 15.7 78.5744C16.0172 79.3328 15.956 79.725 15.1951 79.9313C14.4082 80.1442 13.6387 80.4725 12.9052 80.8444C12.1754 81.2141 11.6354 80.995 10.9683 80.3904Z" fill="#231F20"/>
<path d="M12.6651 65.1738L15.5956 65.1816C15.5956 65.1816 16.2428 65.1738 16.7365 65.3667C16.9067 65.4327 17.1452 65.692 17.1452 65.8865C17.1452 66.0801 16.8404 66.2061 16.687 66.208L13.1431 66.1457C12.892 66.1277 12.5236 65.692 12.4281 65.5015C12.2613 65.1685 12.6651 65.1738 12.6651 65.1738Z" fill="#231F20"/>
<path d="M69.1358 111.498C68.9313 111.279 70.9283 107.161 71.0835 106.77C71.2387 106.38 71.4014 106.197 71.8358 106.36C72.4702 106.596 73.1218 106.784 73.7701 106.977C74.3238 107.143 74.4567 107.522 74.2209 108.018C73.594 109.336 71.9537 110.529 71.2949 110.799C70.6352 111.07 69.3397 111.717 69.1358 111.498Z" fill="#231F20"/>
<path d="M67.586 110.747C67.4742 110.494 69.7404 105.88 69.8667 105.762C70.3897 105.269 70.7906 105.954 70.615 106.26C70.0449 107.621 69.1861 109.631 68.8129 110.299C68.4398 110.966 67.698 111.001 67.586 110.747Z" fill="#231F20"/>
<path d="M44.4782 63.8401C44.4782 63.8401 44.4687 63.7446 44.4092 63.645C44.2961 63.4526 43.6317 63.3826 43.0429 63.5475C41.9236 63.8613 40.8582 63.8401 39.7561 63.1797C39.4194 62.978 39.0256 62.5603 38.9149 62.1595C38.7462 61.552 38.9713 60.9629 39.6044 60.6215C40.1833 62.1486 41.5668 62.0396 42.748 62.2476C43.6266 62.4022 44.5397 62.3422 45.4374 62.3767C46.3206 62.4109 47.1299 62.5962 47.6335 63.7586L44.4782 63.8401Z" fill="#ED1C24"/>
<rect x="0.997559" y="1.99707" width="26.922" height="49.8555" fill="#2B2B2B"/>
<rect x="0.5" y="1.5" width="49.8526" height="49.8526" stroke="black"/>
<rect x="50.356" y="1.5" width="48.8555" height="49.8526" stroke="black"/>
<line x1="50.853" y1="26.4248" x2="98.7143" y2="26.4248" stroke="black"/>
<line x1="75.2837" y1="1.99707" x2="75.2837" y2="50.8555" stroke="black"/>
</g>
<defs>
<clipPath id="clip0_275_78779">
<rect width="100" height="121" fill="white"/>
</clipPath>
</defs>
</svg>
