<svg width="100" height="121" viewBox="0 0 100 121" fill="none" xmlns="http://www.w3.org/2000/svg">
<g clip-path="url(#clip0_275_78811)">
<path d="M49.9653 1.3501H98.65V73.0119C98.65 98.759 76.8687 119.636 49.9964 119.636C23.1285 119.636 1.34863 98.7595 1.34863 73.0119V1.3501H49.9653Z" fill="white"/>
<path d="M98.65 1.3501H49.9805V17.9584H98.65V1.3501Z" fill="#E8423F"/>
<path d="M98.6485 34.9019H49.979V51.8492H98.6485V34.9019Z" fill="#E8423F"/>
<path d="M49.979 85.7372H96.8181C98.0076 81.6973 98.6504 77.4197 98.6504 73.0099V68.7927H49.979V85.7372Z" fill="#E8423F"/>
<path d="M87.5249 102.689H49.979V119.636H50.1354C65.183 119.588 78.6254 113.007 87.5249 102.689Z" fill="#E8423F"/>
<path d="M49.9785 51.8493H98.6497V34.9038H49.9785V51.8493ZM87.5244 102.689H49.9785V119.636H50.1349C65.1826 119.588 78.625 113.008 87.5244 102.689ZM49.9785 102.689H87.5205C91.7544 97.7772 94.9534 92.031 96.8157 85.7372H49.9785V102.689ZM49.9785 85.7372H96.8176C98.0072 81.6973 98.6499 77.4197 98.6499 73.0099V68.7927H49.9785V85.7372ZM49.9785 68.7927H98.6497V51.8493H49.9785V68.7927ZM98.6499 17.9584V1.3501H49.9785V17.9584H98.6499ZM49.9785 34.9038H98.6497V17.9565H49.9785V34.9038Z" stroke="#010202"/>
<path d="M49.9653 1.3501H98.65V73.0119C98.65 98.759 76.8687 119.636 49.9964 119.636C23.1285 119.636 1.34863 98.7595 1.34863 73.0119V1.3501H49.9653V1.3501Z" stroke="#010202"/>
<path d="M5.50635 18.2215C5.50635 23.2608 7.90982 29.2129 14.6857 29.3811C15.9676 29.4161 19.1787 29.2612 21.3003 27.1895C22.571 25.9463 23.2157 24.2256 23.2157 22.0802C23.2157 18.4745 21.3853 16.8802 19.8509 16.1744C17.9904 15.3297 15.7951 15.4184 14.5218 15.7997C14.9291 14.7396 15.9365 13.0105 19.4248 12.9001C20.8236 12.8539 22.8236 13.2106 24.4146 15.1693C26.3213 17.5138 28.034 22.6598 25.3467 33.8486L25.2403 34.3007H39.0249L39.0304 33.9373C39.202 22.3039 36.8183 13.8942 31.9387 8.93684C27.8518 4.78463 23.1846 4.33447 21.3645 4.33447C5.68997 4.33641 5.50635 18.0829 5.50635 18.2215Z" fill="#E8423F"/>
<path d="M21.3624 3.96899C13.1181 3.96899 9.15106 7.74063 7.2707 10.9046C5.16498 14.4657 5.13965 18.0685 5.13965 18.2195C5.13965 23.425 7.63746 29.5723 14.6715 29.7519H14.7977L14.9437 29.7538C16.9729 29.7538 23.582 29.2017 23.582 22.082C23.582 16.9671 19.9588 15.1416 16.5695 15.1416C16.1274 15.1416 15.6468 15.1747 15.1886 15.2464C15.7561 14.3459 16.9106 13.3465 19.4357 13.2653C19.5187 13.2614 19.5827 13.2614 19.6459 13.2614C20.924 13.2614 22.7476 13.6476 24.1937 15.4842C26.0043 17.7845 27.6123 22.8238 24.9873 33.7615L24.7713 34.6695H25.7015H38.6594H39.3833L39.3946 33.9408C39.5662 22.2074 37.1475 13.708 32.1965 8.67985C28.0138 4.42689 23.2266 3.96899 21.3624 3.96899ZM5.87751 18.2139C5.87751 17.6352 6.18756 4.70525 21.3624 4.70525C24.7829 4.70525 38.623 6.33336 38.671 32.6599C38.671 33.0772 38.669 33.5037 38.6616 33.9314H25.7037C26.6744 29.885 27.0949 26.5145 27.0949 23.7367C27.093 15.5712 23.4756 12.5254 19.6481 12.5254C19.5708 12.5254 19.4917 12.5254 19.4143 12.531C14.4225 12.6895 14.0852 16.1782 13.8731 16.449C13.9966 16.3425 14.2311 16.2347 14.5441 16.1395C14.6213 16.1187 14.7043 16.0951 14.7909 16.0743C15.2716 15.9583 15.89 15.8788 16.5714 15.8788C19.2388 15.8788 22.8504 17.0964 22.8504 22.082C22.8504 28.3719 17.1208 29.0175 14.9454 29.0175C14.8529 29.0175 14.7699 29.0137 14.6927 29.0137C8.31452 28.8532 5.8792 23.2684 5.8792 18.2195V18.2139H5.87751Z" fill="#010202"/>
<path d="M41.5036 35.8352H22.8311V38.6149H41.5036V35.8352Z" fill="#E8423F"/>
<path d="M41.5036 35.8352H22.8311V38.6149H41.5036V35.8352Z" stroke="#010202" stroke-miterlimit="10"/>
<path d="M41.6665 44.6714H23.0391V47.6168H41.6665V44.6714Z" fill="#E8423F"/>
<path d="M41.6665 44.6714H23.0391V47.6168H41.6665V44.6714Z" stroke="#010202" stroke-miterlimit="10"/>
<path d="M44.8364 40.2534H18.6274V43.0351H44.8364V40.2534Z" fill="#E8423F"/>
<path d="M44.8364 40.2534H18.6274V43.0351H44.8364V40.2534Z" stroke="#010202" stroke-miterlimit="10"/>
<path d="M25.8292 90.6133L17.647 100.072L23.9757 49.0894H40.663L47.0587 100.072L38.8097 90.6748L32.3537 110.942L25.8292 90.6133Z" fill="#E8423F"/>
<path d="M25.8292 90.6133L17.647 100.072L23.9757 49.0894H40.663L47.0587 100.072L38.8097 90.6748L32.3537 110.942L25.8292 90.6133Z" stroke="#010202" stroke-miterlimit="10"/>
</g>
<defs>
<clipPath id="clip0_275_78811">
<rect width="100" height="120.88" fill="white"/>
</clipPath>
</defs>
</svg>
