<svg width="100" height="121" viewBox="0 0 100 121" fill="none" xmlns="http://www.w3.org/2000/svg">
<g clip-path="url(#clip0_275_78480)">
<path d="M49.9867 0.373291H99.4575V73.0843C99.4575 99.2518 77.3441 120.418 50.013 120.418C22.7135 120.418 0.57373 99.2518 0.57373 73.0843V0.373291L49.9867 0.377924V0.373291Z" fill="white"/>
<path d="M67.438 0.43018V117.846C86.1759 111.109 99.5226 93.8496 99.6188 73.5856V0.429688L67.438 0.43018Z" fill="#E8423F"/>
<path d="M0.374023 0.432129V73.3718C0.374023 94.397 14.6509 112.224 34.4307 118.471V0.432375L0.374023 0.432129Z" fill="#16A74E"/>
<path d="M96.8236 14.7501H85.2129V3.08154H81.7605V14.7501H70.3594V18.205H81.7605V29.4922H85.2129V18.205H96.8236V14.7501Z" fill="white"/>
<path fill-rule="evenodd" clip-rule="evenodd" d="M0.200684 0L49.6136 0.0046333V3.49977e-05H99.8311V73.0843C99.8311 99.4732 77.535 120.791 50.0132 120.791C22.5232 120.791 0.200684 99.4733 0.200684 73.0843V0ZM50.3602 0.746626V0.751294L0.947274 0.746661V73.0843C0.947274 99.0304 22.9042 120.044 50.0132 120.044C77.1537 120.044 99.0845 99.0305 99.0845 73.0843V0.746626H50.3602Z" fill="black"/>
</g>
<defs>
<clipPath id="clip0_275_78480">
<rect width="100" height="120.885" fill="white"/>
</clipPath>
</defs>
</svg>
