<svg width="100" height="121" viewBox="0 0 100 121" fill="none" xmlns="http://www.w3.org/2000/svg">
<g clip-path="url(#clip0_275_78836)">
<path d="M49.9685 1.3584H99.4212V73.3753C99.4212 99.2931 77.3159 120.257 50.0001 120.257C22.7054 120.257 0.573807 99.2931 0.573807 73.3753L0.572754 1.3584L49.9675 1.3609L49.9685 1.3584Z" fill="#E7423F" stroke="black" stroke-miterlimit="10" stroke-linecap="square"/>
<path d="M58.895 45.0146H65.6845V50.6101H76.2108V45.0146H80.9477V50.6101H92.5266V44.2637H88.2634V39.2105H92.5266V32.8015H80.9477V38.397H76.2108V32.8015H69.9477V27.8839H76.2108V22.2883H80.9477V27.8839H92.5266V21.5426H88.2634V16.4894H92.5266V10.1482H80.9477V15.6707H76.2108V10.1482H65.6845V15.6707H58.895V45.0146Z" fill="white" stroke="black" stroke-miterlimit="10" stroke-linecap="square"/>
<path d="M40.9368 45.0146H34.1894V50.6101H23.6526V45.0146H18.9V50.6101H7.33154V44.2637H11.6V39.2105H7.33154V32.8015H18.9V38.397H23.6526V32.8015H29.921V27.8839H23.6526V22.2883H18.9V27.8839H7.33154V21.5426H11.6V16.4894H7.33154V10.1482H18.9V15.6707H23.6526V10.1482H34.1894V15.6707H40.9368V45.0146Z" fill="white" stroke="black" stroke-miterlimit="10" stroke-linecap="square"/>
<path d="M51.0051 4.6236L51.0683 72.0515C51.0683 72.1558 51.1578 78.9351 58.1578 78.9351C61.9473 78.9351 63.6315 77.6835 65.2104 76.5362C66.9999 75.2325 68.7894 73.9288 73.4209 73.8767C75.1051 73.8767 79.0525 74.0853 81.6315 76.6405C83.3157 78.3093 84.1578 80.6038 84.1578 83.5763C84.1578 86.288 82.3683 88.9476 79.4736 90.5642C75.6315 92.598 70.9473 92.4415 67.1578 89.9384L66.2104 89.3126C64.0525 87.8524 61.0525 85.8187 57.5262 87.5396C55.263 88.6347 54.0525 90.512 54.2104 92.7022C54.2104 94.0581 54.6315 94.8403 55.1578 95.7269C55.9473 97.0306 56.8946 98.6472 56.8946 103.028C56.8946 105.635 56.0525 110.172 50.5946 110.641C46.2209 111.058 43.0315 106.834 43.0104 103.028C42.9841 98.6472 43.963 97.0306 44.7262 95.7269C45.2473 94.8403 45.6946 94.0581 45.6946 92.7544C45.8367 90.512 44.6209 88.6347 42.3525 87.5396C38.8367 85.8187 35.8736 87.8524 33.6841 89.3126L32.7473 89.9384C28.9209 92.4937 24.263 92.598 20.442 90.5642C17.5315 88.9476 15.7262 86.288 15.7262 83.5763C15.7262 80.6038 16.5788 78.3093 18.2525 76.6405C20.8525 74.0853 24.7946 73.8767 26.3683 73.8767C31.0999 73.9288 32.9104 75.2325 34.663 76.5362C36.2894 77.6835 37.9683 78.9351 41.7315 78.9351C48.7367 78.9351 48.8262 72.1558 48.8262 72.0515L48.8841 4.6236L40.2894 4.58813V68.5742C40.2894 69.7215 39.9736 70.5037 39.3946 70.7645C38.7262 71.0773 37.6946 70.6602 36.5736 69.6693C33.6052 67.0098 28.5946 65.8104 24.9473 65.8104C21.2736 65.8104 7.54199 68.7828 7.54199 83.4887C7.54199 91.3631 13.5157 99.8633 26.642 99.8633C30.6683 99.8633 34.563 97.8295 36.6683 96.3693C35.5736 98.2988 34.842 100.541 34.842 102.94C34.842 104.974 35.2262 107.06 36.0209 109.094C38.1683 114.465 42.6315 117.959 48.263 118.585C48.7525 118.689 49.5104 118.689 49.9999 118.689C50.4841 118.689 50.9525 118.689 51.3788 118.637C57.263 117.959 61.7367 114.465 63.8946 109.094C64.6841 107.112 65.0525 104.974 65.0525 102.992C65.0525 100.541 64.3157 98.2988 63.2104 96.3693C65.3157 97.8295 69.2104 99.8633 73.263 99.8633C86.3683 99.8633 92.3683 91.3631 92.3683 83.4887C92.3683 68.7828 78.6315 65.8104 74.9473 65.8104C71.3157 65.8104 66.263 67.0098 63.3157 69.6693C62.2104 70.6602 61.1578 71.0773 60.4736 70.7645C59.9473 70.5037 59.6315 69.7215 59.6315 68.5742V4.58813L51.0051 4.6236Z" fill="white" stroke="black" stroke-miterlimit="10" stroke-linecap="square"/>
<path d="M63.8424 59.762C63.8424 61.2743 62.6318 62.4737 61.1582 62.4737H38.8055C37.3003 62.4737 36.0845 61.2743 36.0845 59.762C36.0845 58.2497 37.3003 57.0503 38.8055 57.0503H61.1582C62.6318 57.0503 63.8424 58.2497 63.8424 59.762Z" fill="white" stroke="black" stroke-miterlimit="10" stroke-linecap="square"/>
</g>
<defs>
<clipPath id="clip0_275_78836">
<rect width="100" height="120.88" fill="white"/>
</clipPath>
</defs>
</svg>
