<svg width="100" height="121" viewBox="0 0 100 121" fill="none" xmlns="http://www.w3.org/2000/svg">
<g clip-path="url(#clip0_275_78843)">
<path d="M1.3501 1.53906V71.4451C1.3501 84.379 6.47567 96.7832 15.5992 105.929C24.7228 115.074 37.0971 120.212 49.9997 120.212C62.9024 120.212 75.2767 115.074 84.4002 105.929C93.5238 96.7832 98.6494 84.379 98.6494 71.4451V1.53906H1.3501Z" fill="white" stroke="black"/>
<path d="M98.6494 1.35352H1.3501V58.0942H98.6494V1.35352Z" fill="#DD3322" stroke="black"/>
<path d="M53.8845 61.061V4.32031H46.1154V61.061M46.1154 8.21428H36.8664V12.7202H33.9067V8.21428H22.438V16.0022H30.7621V19.3399H22.438V27.1279H33.9067V22.6776H36.8664V27.1279H41.3059V30.2801H36.8664V34.7304H33.9067V30.2801H22.438V38.0681H30.7621V41.4058H22.438V49.1937H33.9067V44.7434H36.8664V49.1937H46.1154" fill="white"/>
<path d="M53.8845 61.061V4.32031H46.1154V61.061M46.1154 8.21428H36.8664V12.7202H33.9067V8.21428H22.438V16.0022H30.7621V19.3399H22.438V27.1279H33.9067V22.6776H36.8664V27.1279H41.3059V30.2801H36.8664V34.7304H33.9067V30.2801H22.438V38.0681H30.7621V41.4058H22.438V49.1937H33.9067V44.7434H36.8664V49.1937H46.1154" stroke="black"/>
<path d="M25.9529 79.233C22.6232 84.9812 23.9181 90.7294 28.5426 93.3254C33.1671 95.9214 35.2019 93.5108 35.0169 89.246C37.9766 92.3983 35.9418 97.2194 32.9821 97.9611C30.7624 98.5174 27.2477 97.7757 24.843 96.4777C18.1837 92.7691 15.964 83.1269 20.4035 75.8953" fill="#DD3322"/>
<path d="M25.9529 79.233C22.6232 84.9812 23.9181 90.7294 28.5426 93.3254C33.1671 95.9214 35.2019 93.5108 35.0169 89.246C37.9766 92.3983 35.9418 97.2194 32.9821 97.9611C30.7624 98.5174 27.2477 97.7757 24.843 96.4777C18.1837 92.7691 15.964 83.1269 20.4035 75.8953" stroke="black"/>
<path d="M50.1851 64.5842H43.8958C43.1558 64.5842 42.7859 63.8425 42.7859 63.2862V59.3922C42.7859 58.8359 43.1558 58.0942 43.8958 58.0942H50.1851M50.1851 117.06C43.3408 117.06 37.7914 113.908 35.2017 108.53C33.1669 104.451 33.9068 100.742 35.0167 97.7757C37.0515 92.3983 44.4507 93.5108 45.1906 97.9611C42.4159 96.1068 39.0863 95.9214 38.5313 100.001C37.7914 106.676 42.6009 110.57 50.1851 110.57M50.0001 64.5842H45.0056C43.3408 64.5842 41.1211 65.8822 41.861 68.4782L44.6357 77.9349H50.0001" fill="#DD3322"/>
<path d="M50.1851 64.5842H43.8958C43.1558 64.5842 42.7859 63.8425 42.7859 63.2862V59.3922C42.7859 58.8359 43.1558 58.0942 43.8958 58.0942H50.1851M50.1851 117.06C43.3408 117.06 37.7914 113.908 35.2017 108.53C33.1669 104.451 33.9068 100.742 35.0167 97.7757C37.0515 92.3983 44.4507 93.5108 45.1906 97.9611C42.4159 96.1068 39.0863 95.9214 38.5313 100.001C37.7914 106.676 42.6009 110.57 50.1851 110.57M50.0001 64.5842H45.0056C43.3408 64.5842 41.1211 65.8822 41.861 68.4782L44.6357 77.9349H50.0001" stroke="black"/>
<path d="M25.9091 79.3119C29.3953 73.6549 35.0642 72.0866 39.531 74.9499C43.9979 77.8133 42.8374 80.7501 38.9976 82.5995C43.1681 83.7284 46.4497 79.6538 45.7053 76.687C45.147 74.4619 42.8355 71.7046 40.5584 70.1911C34.1522 66.0539 24.6206 68.6424 20.3531 75.9809" fill="#DD3322"/>
<path d="M25.9091 79.3119C29.3953 73.6549 35.0642 72.0866 39.531 74.9499C43.9979 77.8133 42.8374 80.7501 38.9976 82.5995C43.1681 83.7284 46.4497 79.6538 45.7053 76.687C45.147 74.4619 42.8355 71.7046 40.5584 70.1911C34.1522 66.0539 24.6206 68.6424 20.3531 75.9809" stroke="black"/>
<path d="M50.1851 62.9154H42.7859C40.5661 62.9154 40.7511 59.7632 42.7859 59.7632H50.1851" fill="#DD3322"/>
<path d="M50.1851 62.9154H42.7859C40.5661 62.9154 40.7511 59.7632 42.7859 59.7632H50.1851" stroke="black"/>
<path d="M39.8262 93.9187C37.9669 93.9187 36.4596 92.4078 36.4596 90.544C36.4596 88.6801 37.9669 87.1692 39.8262 87.1692C41.6856 87.1692 43.1929 88.6801 43.1929 90.544C43.1929 92.4078 41.6856 93.9187 39.8262 93.9187Z" fill="#DD3322" stroke="black"/>
<path d="M30.5772 105.044C28.7179 105.044 27.2106 103.534 27.2106 101.67C27.2106 99.8059 28.7179 98.2949 30.5772 98.2949C32.4366 98.2949 33.9438 99.8059 33.9438 101.67C33.9438 103.534 32.4366 105.044 30.5772 105.044Z" fill="#DD3322" stroke="black"/>
<path d="M74.0471 79.233C77.3768 84.9812 76.0819 90.7294 71.4574 93.3254C66.8329 95.9214 64.7981 93.5108 64.9831 89.246C62.0234 92.3983 64.0582 97.2194 67.0179 97.9611C69.2376 98.5174 72.7523 97.7757 75.157 96.4777C81.8163 92.7691 84.036 83.1269 79.5965 75.8953" fill="#DD3322"/>
<path d="M74.0471 79.233C77.3768 84.9812 76.0819 90.7294 71.4574 93.3254C66.8329 95.9214 64.7981 93.5108 64.9831 89.246C62.0234 92.3983 64.0582 97.2194 67.0179 97.9611C69.2376 98.5174 72.7523 97.7757 75.157 96.4777C81.8163 92.7691 84.036 83.1269 79.5965 75.8953" stroke="black"/>
<path d="M49.8149 64.5842H56.1042C56.8442 64.5842 57.2141 63.8425 57.2141 63.2862V59.3922C57.2141 58.8359 56.8442 58.0942 56.1042 58.0942H49.8149M49.8149 117.06C56.6592 117.06 62.2086 113.908 64.7983 108.53C66.8331 104.451 66.0932 100.742 64.9833 97.7757C62.9485 92.3983 55.5493 93.5108 54.8094 97.9611C57.5841 96.1068 60.9137 95.9214 61.4687 100.001C62.2086 106.676 57.3991 110.57 49.8149 110.57M49.9999 64.5842H54.9944C56.6592 64.5842 58.8789 65.8822 58.139 68.4782L55.3643 77.9349H49.9999" fill="#DD3322"/>
<path d="M49.8149 64.5842H56.1042C56.8442 64.5842 57.2141 63.8425 57.2141 63.2862V59.3922C57.2141 58.8359 56.8442 58.0942 56.1042 58.0942H49.8149M49.8149 117.06C56.6592 117.06 62.2086 113.908 64.7983 108.53C66.8331 104.451 66.0932 100.742 64.9833 97.7757C62.9485 92.3983 55.5493 93.5108 54.8094 97.9611C57.5841 96.1068 60.9137 95.9214 61.4687 100.001C62.2086 106.676 57.3991 110.57 49.8149 110.57M49.9999 64.5842H54.9944C56.6592 64.5842 58.8789 65.8822 58.139 68.4782L55.3643 77.9349H49.9999" stroke="black"/>
<path d="M74.0909 79.3119C70.6047 73.6549 64.9358 72.0866 60.469 74.9499C56.0021 77.8133 57.1626 80.7501 61.0024 82.5995C56.8319 83.7284 53.5503 79.6538 54.2947 76.687C54.853 74.4619 57.1645 71.7046 59.4416 70.1911C65.8478 66.0539 75.3794 68.6424 79.6469 75.9809" fill="#DD3322"/>
<path d="M74.0909 79.3119C70.6047 73.6549 64.9358 72.0866 60.469 74.9499C56.0021 77.8133 57.1626 80.7501 61.0024 82.5995C56.8319 83.7284 53.5503 79.6538 54.2947 76.687C54.853 74.4619 57.1645 71.7046 59.4416 70.1911C65.8478 66.0539 75.3794 68.6424 79.6469 75.9809" stroke="black"/>
<path d="M49.8149 62.9154H57.2141C59.4339 62.9154 59.2489 59.7632 57.2141 59.7632H49.8149" fill="#DD3322"/>
<path d="M49.8149 62.9154H57.2141C59.4339 62.9154 59.2489 59.7632 57.2141 59.7632H49.8149" stroke="black"/>
<path d="M60.1738 93.9187C62.0331 93.9187 63.5404 92.4078 63.5404 90.544C63.5404 88.6801 62.0331 87.1692 60.1738 87.1692C58.3144 87.1692 56.8071 88.6801 56.8071 90.544C56.8071 92.4078 58.3144 93.9187 60.1738 93.9187Z" fill="#DD3322" stroke="black"/>
<path d="M69.4228 105.044C71.2821 105.044 72.7894 103.534 72.7894 101.67C72.7894 99.8059 71.2821 98.2949 69.4228 98.2949C67.5634 98.2949 66.0562 99.8059 66.0562 101.67C66.0562 103.534 67.5634 105.044 69.4228 105.044Z" fill="#DD3322" stroke="black"/>
<path d="M49.9998 74.9682C52.1452 74.9682 53.8844 72.6436 53.8844 69.7762C53.8844 66.9087 52.1452 64.5842 49.9998 64.5842C47.8544 64.5842 46.1152 66.9087 46.1152 69.7762C46.1152 72.6436 47.8544 74.9682 49.9998 74.9682Z" fill="#DD3322" stroke="black"/>
<path d="M50.0001 84.5546C52.5235 84.5546 54.5691 82.5041 54.5691 79.9746C54.5691 77.4451 52.5235 75.3945 50.0001 75.3945C47.4768 75.3945 45.4312 77.4451 45.4312 79.9746C45.4312 82.5041 47.4768 84.5546 50.0001 84.5546Z" fill="#DD3322" stroke="black"/>
</g>
<defs>
<clipPath id="clip0_275_78843">
<rect width="100" height="120.88" fill="white"/>
</clipPath>
</defs>
</svg>
