<svg width="100" height="121" viewBox="0 0 100 121" fill="none" xmlns="http://www.w3.org/2000/svg">
<g clip-path="url(#clip0_275_78550)">
<path d="M99.6314 0.365234V73.1378C99.6314 99.2912 77.3682 120.448 49.9735 120.448C22.5524 120.448 0.36296 99.2912 0.36296 73.1378L0.361328 0.365234H99.6314Z" fill="#009639"/>
<path fill-rule="evenodd" clip-rule="evenodd" d="M-0.000488281 -0.000244141H99.9927V73.1375C99.9927 99.5127 77.5472 120.813 49.9733 120.813C22.3724 120.813 0.00115149 99.5121 0.00115149 73.1375L-0.000488281 -0.000244141ZM0.722686 0.730139L0.724309 73.1375C0.724309 99.0697 22.732 120.082 49.9733 120.082C77.1888 120.082 99.2696 99.0692 99.2696 73.1375V0.730139H0.722686Z" fill="black"/>
<path d="M48.8223 9.58265C48.8841 9.08024 49.1528 8.61579 49.5767 8.27839C50.0007 7.94099 50.55 7.75439 51.1194 7.75439C51.6889 7.75439 52.2382 7.94099 52.6622 8.27839C53.0861 8.61579 53.3548 9.08024 53.4166 9.58265V112.354C53.3548 112.856 53.0861 113.321 52.6622 113.658C52.2382 113.995 51.6889 114.182 51.1194 114.182C50.55 114.182 50.0007 113.995 49.5767 113.658C49.1528 113.321 48.8841 112.856 48.8223 112.354V9.58265Z" fill="white" stroke="black"/>
<path d="M42.2999 100.813C42.2999 101.335 42.0853 101.836 41.7032 102.205C41.3211 102.575 40.8029 102.782 40.2625 102.782C39.7222 102.782 39.204 102.575 38.8219 102.205C38.4398 101.836 38.2252 101.335 38.2252 100.813V31.1595C38.2252 30.6953 38.4398 30.2502 38.8219 29.9219C39.204 29.5937 39.7222 29.4093 40.2625 29.4093C40.8029 29.4093 41.3211 29.5937 41.7032 29.9219C42.0853 30.2502 42.2999 30.6953 42.2999 31.1595V100.43C42.2999 101.076 42.57 101.695 43.0508 102.151C43.5316 102.608 44.1838 102.864 44.8637 102.864C45.5437 102.864 46.1958 102.608 46.6766 102.151C47.1574 101.695 47.4275 101.076 47.4275 100.43V31.5971C47.4275 30.9878 47.1574 30.4035 46.6766 29.9727C46.1958 29.5419 45.5437 29.2999 44.8637 29.2999C44.1838 29.2999 43.5316 29.5419 43.0508 29.9727C42.57 30.4035 42.2999 30.9878 42.2999 31.5971M59.9389 100.813C59.9389 101.335 60.1536 101.836 60.5357 102.205C60.9177 102.575 61.436 102.782 61.9763 102.782C62.5166 102.782 63.0349 102.575 63.4169 102.205C63.799 101.836 64.0137 101.335 64.0137 100.813V31.1595C64.0137 30.6953 63.799 30.2502 63.4169 29.9219C63.0349 29.5937 62.5166 29.4093 61.9763 29.4093C61.436 29.4093 60.9177 29.5937 60.5357 29.9219C60.1536 30.2502 59.9389 30.6953 59.9389 31.1595V100.43C59.9389 101.076 59.6688 101.695 59.188 102.151C58.7072 102.608 58.0551 102.864 57.3751 102.864C56.6951 102.864 56.043 102.608 55.5622 102.151C55.0814 101.695 54.8113 101.076 54.8113 100.43V31.5971C54.8113 30.9878 55.0814 30.4035 55.5622 29.9727C56.043 29.5419 56.6951 29.2999 57.3751 29.2999C58.0551 29.2999 58.7072 29.5419 59.188 29.9727C59.6688 30.4035 59.9389 30.9878 59.9389 31.5971M47.4275 32.3628C47.4275 31.5287 47.8165 30.7288 48.5089 30.139C49.2012 29.5492 50.1403 29.2179 51.1194 29.2179C52.0986 29.2179 53.0376 29.5492 53.73 30.139C54.4223 30.7288 54.8113 31.5287 54.8113 32.3628V99.9107C54.8113 100.708 54.4223 101.474 53.73 102.038C53.0376 102.602 52.0986 102.919 51.1194 102.919C50.1403 102.919 49.2012 102.602 48.5089 102.038C47.8165 101.474 47.4275 100.708 47.4275 99.9107M56.8624 21.041V13.4385H50.0255C43.1887 13.3838 39.4968 9.88332 36.516 6C34.629 9.71923 34.082 12.0164 34 15.5169C34.1094 19.619 34.6016 22.1076 37.0082 26.4558C40.8095 22.5725 44.3099 21.1231 49.67 21.041H56.8624Z" fill="white"/>
<path d="M42.2999 100.813C42.2999 101.335 42.0853 101.836 41.7032 102.205C41.3211 102.575 40.8029 102.782 40.2625 102.782C39.7222 102.782 39.204 102.575 38.8219 102.205C38.4398 101.836 38.2252 101.335 38.2252 100.813V31.1595C38.2252 30.6953 38.4398 30.2502 38.8219 29.9219C39.204 29.5937 39.7222 29.4093 40.2625 29.4093C40.8029 29.4093 41.3211 29.5937 41.7032 29.9219C42.0853 30.2502 42.2999 30.6953 42.2999 31.1595V100.43C42.2999 101.076 42.57 101.695 43.0508 102.151C43.5316 102.608 44.1838 102.864 44.8637 102.864C45.5437 102.864 46.1958 102.608 46.6766 102.151C47.1574 101.695 47.4275 101.076 47.4275 100.43V31.5971C47.4275 30.9878 47.1574 30.4035 46.6766 29.9727C46.1958 29.5419 45.5437 29.2999 44.8637 29.2999C44.1838 29.2999 43.5316 29.5419 43.0508 29.9727C42.57 30.4035 42.2999 30.9878 42.2999 31.5971M59.9389 100.813C59.9389 101.335 60.1536 101.836 60.5357 102.205C60.9177 102.575 61.436 102.782 61.9763 102.782C62.5166 102.782 63.0349 102.575 63.4169 102.205C63.799 101.836 64.0137 101.335 64.0137 100.813V31.1595C64.0137 30.6953 63.799 30.2502 63.4169 29.9219C63.0349 29.5937 62.5166 29.4093 61.9763 29.4093C61.436 29.4093 60.9177 29.5937 60.5357 29.9219C60.1536 30.2502 59.9389 30.6953 59.9389 31.1595V100.43C59.9389 101.076 59.6688 101.695 59.188 102.151C58.7072 102.608 58.0551 102.864 57.3751 102.864C56.6951 102.864 56.043 102.608 55.5622 102.151C55.0814 101.695 54.8113 101.076 54.8113 100.43V31.5971C54.8113 30.9878 55.0814 30.4035 55.5622 29.9727C56.043 29.5419 56.6951 29.2999 57.3751 29.2999C58.0551 29.2999 58.7072 29.5419 59.188 29.9727C59.6688 30.4035 59.9389 30.9878 59.9389 31.5971M47.4275 32.3628C47.4275 31.5287 47.8165 30.7288 48.5089 30.139C49.2012 29.5492 50.1403 29.2179 51.1194 29.2179C52.0986 29.2179 53.0376 29.5492 53.73 30.139C54.4223 30.7288 54.8113 31.5287 54.8113 32.3628V99.9107C54.8113 100.708 54.4223 101.474 53.73 102.038C53.0376 102.602 52.0986 102.919 51.1194 102.919C50.1403 102.919 49.2012 102.602 48.5089 102.038C47.8165 101.474 47.4275 100.708 47.4275 99.9107M56.8624 21.041V13.4385H50.0255C43.1887 13.3838 39.4968 9.88332 36.516 6C34.629 9.71923 34.082 12.0164 34 15.5169C34.1094 19.619 34.6016 22.1076 37.0082 26.4558C40.8095 22.5725 44.3099 21.1231 49.67 21.041H56.8624Z" stroke="black"/>
<path d="M37.0356 35.6445H65.2034V41.6609H37.0356V35.6445ZM37.0356 90.5306H65.2034V96.547H37.0356V90.5306ZM37.0356 87.1942H37.4459L65.2034 54.2407V45.0247H64.7932L37.0356 77.9782V87.1942Z" fill="#009639" stroke="black" stroke-linejoin="round"/>
<path d="M37.0356 45.0247H37.4459L65.2034 77.9782V87.1942H64.7932L37.0356 54.2407V45.0247Z" fill="#009639" stroke="black" stroke-linejoin="round"/>
</g>
<defs>
<clipPath id="clip0_275_78550">
<rect width="100" height="120.88" fill="white"/>
</clipPath>
</defs>
</svg>
