<svg width="100" height="121" viewBox="0 0 100 121" fill="none" xmlns="http://www.w3.org/2000/svg">
<g clip-path="url(#clip0_275_78658)">
<path d="M49.9096 0.374756H99.5162V73.2105C99.5162 99.3794 77.3181 120.598 49.9451 120.598C22.5669 120.598 0.375977 99.3794 0.375977 73.2105V0.374756H49.9096Z" fill="#FFD72E"/>
<path fill-rule="evenodd" clip-rule="evenodd" d="M0.200684 0L49.6136 0.00462871V3.4963e-05H99.8311V73.0118C99.8311 99.3746 77.535 120.671 50.0132 120.671C22.5232 120.671 0.200684 99.3747 0.200684 73.0118V0ZM50.3602 0.745885V0.750549L0.947274 0.74592V73.0118C0.947274 98.9322 22.9042 119.925 50.0132 119.925C77.1537 119.925 99.0845 98.9323 99.0845 73.0118V0.745885H50.3602Z" fill="black"/>
<path d="M8.76318 39.3526C8.76318 39.3526 11.9474 40.1052 13.6632 39.4841C14.6842 39.1157 14.7737 37.1947 14.4895 37.2736C13.7211 37.4999 9.67897 36.8526 8.29476 36.4947C7.90003 36.3947 8.76318 39.3526 8.76318 39.3526V39.3526Z" stroke="black" stroke-miterlimit="10"/>
<path d="M15.4733 39.084C15.4733 39.084 8.02593 38.9208 7.55224 38.7314C7.07329 38.5419 8.44172 41.8945 10.3522 42.684C11.4522 43.1366 13.4312 40.7892 15.6259 40.6103C16.168 40.5682 15.4733 39.084 15.4733 39.084Z" fill="#FFD72E"/>
<path d="M13.3369 36.7633C13.2106 36.8949 13.1211 38.6054 13.1211 38.6054L14.7948 40.9896C14.7948 40.9896 16.1369 40.5422 16.0948 40.8317C16.2579 41.6317 15.4158 42.2527 16.6211 42.5685C17.8211 42.8896 17.8158 40.8843 21.3895 41.0106C24.9579 41.1422 26.1527 41.537 27.0685 42.8896C28.2264 44.6001 28.9737 49.5212 29.2685 50.2317C29.4895 50.7633 30.1158 52.3843 31.0421 52.7896C32.0106 53.158 33.2211 51.3317 33.2211 51.2791C33.2211 50.8685 32.8053 50.4159 32.8053 50.058C32.8053 49.6949 33.3211 48.737 33.7053 48.1212C34.2053 47.3159 32.1474 42.6633 32.0106 42.1317C31.9948 41.2159 31.6421 40.3527 31.6421 40.3527C31.6421 40.3527 31.0474 39.258 30.7685 38.9791C30.4842 38.7054 30.4316 38.3896 30.0948 38.2843C29.8474 38.2001 26.8421 37.6317 24.7895 37.6001C24.1948 37.5896 19.8158 36.837 19.3264 37.1738C17.6369 36.6422 15.0264 34.858 13.3369 36.7633Z" fill="black"/>
<path d="M52.7893 77.9997C52.842 78.3155 53.7893 85.3681 53.7893 85.5786C53.7893 85.7891 52.2999 87.8944 50.2999 87.7365C48.9946 87.5786 48.263 85.1049 48.563 82.5786C48.8577 80.0523 52.163 77.8418 52.7893 77.9997Z" stroke="black"/>
<path d="M58.3157 85.1576C56.8947 82.8945 53.9473 78.3682 53.9473 78.3682C53.9473 78.3682 51.1736 78.8945 51.3894 83.5261C51.6105 88.1576 56.9999 87.7892 58.3157 85.1576Z" fill="#FFD72E"/>
<path d="M58.3157 85.1576C56.8947 82.8945 53.9473 78.3682 53.9473 78.3682C53.9473 78.3682 51.1736 78.8945 51.3894 83.5261C51.6105 88.1576 56.9999 87.7892 58.3157 85.1576Z" stroke="black"/>
<path d="M15.4738 39.084C15.4738 39.084 8.02641 38.9208 7.55273 38.7314C7.07378 38.5419 8.4422 41.8945 10.3527 42.684C11.4527 43.1366 13.4317 40.7892 15.6264 40.6103C16.1685 40.5682 15.4738 39.084 15.4738 39.084Z" stroke="black" stroke-miterlimit="10"/>
<path d="M11.8894 58.105L10.1368 63.3681C10.1368 63.3681 5.6894 63.4208 6.11572 63.105C6.53677 62.7366 8.84729 59.0523 9.30519 58.8945C9.76308 58.7366 11.8894 58.105 11.8894 58.105Z" stroke="black" stroke-miterlimit="10"/>
<path d="M11.7102 57.6841C11.7102 57.6841 14.7787 58.1578 14.5892 58.1051C14.3997 58.0525 14.7523 62.4736 14.626 62.6841C14.505 62.9472 10.8734 65.5262 8.73129 64.6841C8.4155 64.5788 11.7102 57.6841 11.7102 57.6841Z" fill="#FFD72E"/>
<path d="M11.7102 57.6841C11.7102 57.6841 14.7787 58.1578 14.5892 58.1051C14.3997 58.0525 14.7523 62.4736 14.626 62.6841C14.505 62.9472 10.8734 65.5262 8.73129 64.6841C8.4155 64.5788 11.7102 57.6841 11.7102 57.6841V57.6841Z" stroke="black" stroke-miterlimit="10"/>
<path d="M23.9209 99.9997C23.9209 99.9997 26.1157 99.8418 26.4946 100.368C26.8736 100.894 23.3315 104.21 23.3315 104.21C23.3315 104.21 19.6894 104.473 19.4736 104.105C19.2578 103.737 23.9209 99.9997 23.9209 99.9997V99.9997Z" stroke="black"/>
<path d="M26.7472 99.3682L28.3472 99.9471C28.3472 99.9471 28.763 104.316 28.2104 104.947C27.6472 105.631 24.4104 107.052 21.6525 105.842C21.0051 105.526 26.7472 99.3682 26.7472 99.3682Z" fill="#FFD72E"/>
<path d="M26.7472 99.3682L28.3472 99.9471C28.3472 99.9471 28.763 104.316 28.2104 104.947C27.6472 105.631 24.4104 107.052 21.6525 105.842C21.0051 105.526 26.7472 99.3682 26.7472 99.3682ZM78.8419 98.8419C79.5788 98.3156 80.3682 97.684 81.6314 97.6313L81.4209 103.631C81.4209 103.631 77.6314 105.421 77.5261 105.158C77.4209 104.895 78.263 99.3682 78.8419 98.8419Z" stroke="black"/>
<path d="M81.5789 95.9998C81.5789 95.9998 79.5263 105.105 79.7368 105.421C79.8947 105.684 84.9474 103.21 85.2105 101.421C85.421 99.684 83.8421 95.6313 83.8421 95.6313L81.5789 95.9998Z" fill="#FFD72E"/>
<path d="M81.5789 95.9998C81.5789 95.9998 79.5263 105.105 79.7368 105.421C79.8947 105.684 84.9474 103.21 85.2105 101.421C85.421 99.684 83.8421 95.6313 83.8421 95.6313L81.5789 95.9998Z" stroke="black"/>
<path d="M54.5787 76.8418C53.9997 77.5786 53.105 77.9471 52.9997 77.7365C53.3155 75.7365 52.4418 73.2629 50.8839 71.3155C52.7366 71.5786 55.2629 76.0523 54.5787 76.8418ZM29.7682 59.7892C30.0261 60.1576 29.4418 61.3681 30.1418 62.3681C30.6576 63.105 31.9734 62.7892 32.305 63.2629C32.8629 63.9997 34.2471 67.7892 37.8103 64.8418C38.705 66.8418 51.3418 70.7892 50.2839 70.4734C45.305 69.2629 45.6471 70.9471 44.6734 70.5786C43.6997 70.1576 41.1629 68.7365 40.3471 71.7365C38.2945 71.2102 37.3366 71.3681 35.9313 74.105C35.6471 74.2629 32.2155 74.8944 33.0997 78.526C30.9945 79.7365 31.5471 81.5786 33.4418 83.6313C33.1945 85.6313 32.6682 87.2102 36.1366 87.6313C36.3366 87.9471 36.7418 89.3681 39.6734 89.2102C40.2261 90.1576 39.5787 90.5786 39.5787 90.5786C39.5787 90.5786 31.6524 96.2629 28.1787 96.4207C26.7734 96.526 26.8418 96.6313 26.4787 96.9471C26.1155 97.2629 25.1261 99.6313 25.1261 99.6313C25.1261 99.6313 24.7313 100.263 25.2892 100.526C25.8366 100.842 27.2313 101.368 28.1997 101.421C28.4945 101.473 28.9155 101.315 29.0892 100.684C29.2682 99.9997 30.5997 99.4734 30.7892 101.421C30.8103 101.631 31.9682 101.368 32.0682 101.21C32.9208 99.8418 33.5839 97.7892 37.305 96.2629C40.3734 95.0523 46.0418 93.0523 46.4787 92.7892C46.9103 92.4734 47.1261 90.7892 46.7418 90.2102C46.3524 89.6839 45.3629 88.3681 45.3629 88.3681C45.3629 88.3681 48.9576 87.105 49.2682 86.9997C46.605 82.8944 50.3366 77.5786 53.9997 78.4207C53.8945 78.526 52.8945 79.6313 54.7892 80.9471C53.4734 83.6839 56.8945 84.3155 56.8945 84.3155C56.8945 84.3155 56.9997 86.105 57.3682 86.3681C57.7366 86.6313 57.7366 86.6839 60.5787 86.4734C61.4208 86.4207 62.9997 89.4734 65.9471 86.4734C66.5787 88.0523 70.1576 88.7365 70.7892 86.4207C74.3155 88.3155 75.5787 84.6313 75.3155 83.9997C75.7892 83.9997 75.7892 83.9471 75.9471 83.5786C77.6313 84.4734 77.8945 86.2102 78.6839 88.4734C79.5261 91.0523 80.4208 93.9471 80.4208 93.9471C80.4208 93.9471 80.5787 95.1576 80.3682 95.3155C79.8418 95.6313 79.3682 96.9471 79.8418 98.3155C83.0524 99.9471 84.6839 98.526 84.6839 98.2629C84.7366 97.9997 84.8945 97.1576 85.1576 96.9471C85.4208 96.7365 86.6839 96.1576 86.6839 95.8418C86.6313 95.526 86.2629 95.0523 85.7366 94.4734C85.1576 94.2102 84.7892 93.4207 84.3155 93.1576C83.4734 92.6839 80.7366 83.8418 80.4208 82.526C80.1576 81.2102 81.2629 77.8418 79.4208 77.4734C77.7892 77.1576 77.105 78.9997 76.0524 78.0523C75.7892 77.7365 76.7366 77.4734 75.9471 76.2629C75.7892 76.0523 75.1576 75.3155 73.9471 75.5786C74.3682 72.9997 71.2629 72.7365 71.2629 72.7365C71.2629 72.7365 71.7366 71.4734 69.7892 68.4208C74.8945 68.7892 74.3682 66.9471 75.2103 66.7365C75.6313 66.6313 79.3155 67.8418 79.7366 65.1576C80.2629 65.1576 82.8945 65.526 83.4734 62.7365C86.2629 63.3681 86.7366 60.2102 86.7366 60.2102C86.7366 60.2102 90.4734 59.526 88.6839 56.6839C90.105 55.526 90.2629 53.3681 87.5261 53.0523C87.6313 50.026 85.2629 49.826 83.7366 51.4102C83.6313 51.1681 81.2103 49.3997 79.6839 53.1576C76.3682 52.6839 76.7892 55.7892 76.7892 55.7892C76.7892 55.7892 74.105 55.105 74.3155 59.0523C73.105 59.2102 73.2629 60.105 73.2629 60.105C73.2629 60.105 73.7892 65.5786 69.105 66.526C67.3682 63.6313 62.2629 62.1576 58.7366 60.2629C56.3682 59.0523 54.7892 57.6313 55.0524 57.1576C56.5261 54.3681 55.9471 53.7365 55.9471 53.7365C55.9471 53.7365 58.4734 52.5313 58.0524 50.8892C60.5261 50.126 59.7892 48.1208 60.2629 47.5786C60.6839 47.0365 62.8418 47.2997 61.8418 44.426C61.6313 43.9365 58.9471 42.9997 57.9471 41.5681C57.7366 41.5681 57.5787 41.5944 57.5787 41.5944C57.5787 41.5944 57.4734 39.5839 56.6313 39.5155C55.7892 39.4471 54.5787 40.926 53.5787 40.8786C53.0524 40.8576 51.4945 40.7892 51.0734 40.7208C50.6471 40.6576 49.1103 41.9155 49.1103 41.9155C49.1103 41.9155 45.6892 41.1155 44.7155 43.0629C42.205 41.8734 40.9524 44.0365 40.9524 44.0365C40.9524 44.0365 37.7576 43.0418 37.205 46.826C33.5682 47.4629 33.7892 49.3365 33.8682 50.1734C33.9418 51.0155 34.3208 51.026 34.0471 51.8839C32.7366 52.226 31.4366 53.7892 31.4366 53.7892C31.4366 53.7892 30.9682 53.9997 29.4208 52.7365C27.5787 51.2681 26.705 50.5629 26.2787 50.0786C25.8471 49.5944 24.6839 49.326 22.8839 50.126C22.105 50.4681 22.2103 50.7892 20.0313 52.1839C17.4471 53.8418 14.6261 55.8418 12.8471 55.5786C11.7682 55.4208 9.76816 57.105 9.74711 58.526C9.73132 59.8944 14.9155 59.7365 14.9734 59.1576C15.0366 58.5786 15.4366 58.3155 15.4366 58.3155C15.4366 58.3155 16.6892 60.8418 18.205 58.9471C19.7208 57.0523 20.9629 56.0523 20.9629 56.0523C20.9629 56.0523 22.9418 53.8418 24.8471 54.6839C26.7524 55.526 28.0787 57.9997 29.7682 59.7892Z" fill="black"/>
<path d="M42.9105 15.7998C42.0736 7.28928 62.3684 7.10507 57.0526 25.4419" stroke="black"/>
<path d="M60.2631 32.4472C60.7894 32.863 64.0526 25.5999 64.6842 24.9262C65.3157 24.2578 65.6842 23.3262 65.6842 22.2893C65.6842 20.6472 64.7368 19.2472 63.421 18.7315C63.8947 17.9841 64.1578 17.0788 64.1578 16.0946C64.2105 13.5209 62.3684 11.4157 60.0526 11.3946C59.9473 11.3893 59.8421 11.3999 59.7368 11.4104C60.5789 10.3367 60.7894 8.86303 60.1052 7.68935C59.2631 6.15777 57.2631 5.72619 55.6842 6.72093C55.5789 6.77882 55.4736 6.84724 55.421 6.9104C55.3684 6.44198 55.2105 5.98935 54.9473 5.58935C54.0526 4.15461 52.0631 3.88145 50.5421 4.97093C50.3684 5.09198 50.2157 5.22671 50.0736 5.36829C49.1263 4.03935 47.2157 3.80145 45.7315 4.86356C45.3 5.16829 44.9578 5.5525 44.7052 5.97882C43.7789 5.47356 42.6631 5.48408 41.7789 6.11566C40.5631 6.98408 40.221 8.7104 40.9157 10.1262C40.1526 10.0788 39.4052 10.3367 38.8578 10.9157C37.7578 12.0578 37.8473 14.0209 39.0473 15.3051C39.121 15.3788 39.2 15.4525 39.2736 15.5209C39.2315 15.563 39.1894 15.5999 39.1473 15.642C38.1052 16.7315 38.1105 18.5262 39.1631 19.6472C39.9315 20.463 41.0368 20.6946 41.9842 20.342C41.6421 21.3209 41.8052 22.4262 42.5 23.1683C43.4894 24.2157 45.1631 24.1578 46.2421 23.0262C46.4315 22.8262 46.5894 22.6051 46.721 22.3683C47.6263 23.5104 49.1736 23.7262 50.2052 22.8525C51.1578 22.042 51.3315 20.5841 50.6789 19.4367C53.421 17.2157 49.5947 13.5104 47.2947 15.7736C48.4578 16.3157 48.6157 17.6999 47.621 18.1893C47.1473 18.4157 46.6157 18.5683 46.1894 18.4262C44.3842 17.8367 44.6315 15.3841 44.8315 14.7367C45.621 12.163 49.3789 11.6578 51.8421 12.6946C53.1052 13.2209 58.2631 15.2736 54.0526 26.6209" stroke="black"/>
<path d="M86.842 40.2842C88.0525 39.4947 88.7894 38.0421 88.5788 36.4947C88.4209 35.1316 87.5788 34.0368 86.4736 33.4842C86.7894 32.8421 86.8946 32.121 86.842 31.3684C86.5788 29.3158 84.7894 27.8579 82.6841 28C82.8946 27.5684 82.9999 27.1 82.9473 26.6105C82.7367 25.0737 81.2104 24.0105 79.5262 24.2316C78.6315 24.3474 77.842 24.8105 77.3683 25.4526C76.7894 23.7684 75.0525 22.6737 73.2104 22.921C71.9999 23.0737 70.9999 23.7368 70.3683 24.6579C69.4736 24.0579 68.2631 23.7631 66.9999 23.9316C64.4736 24.2631 62.6841 26.1631 62.9473 28.1842C62.9999 28.8316 63.2631 29.4158 63.6841 29.8895L59.9473 32.4421L63.4209 37.4263C63.4209 37.4263 68.4209 33.5631 72.6841 33.7737C77.4736 34.0052 79.842 36.1842 79.6315 40.1789C79.4209 43.6579 75.842 43.6316 75.1578 41.9105C74.4209 40.1947 75.9999 39.321 75.9999 39.321C73.842 37.1895 71.6841 38.9052 71.3683 40.3316C70.6315 40.1526 69.8946 40.2895 69.3157 40.7895C68.2631 41.6684 68.1578 43.3368 69.0525 44.5158C69.2631 44.7368 69.4209 44.9316 69.6315 45.0842C69.0525 46.0474 69.1052 47.4158 69.8946 48.4368C70.842 49.6842 72.4736 49.9579 73.5788 49.0474C73.5788 49.0263 73.6315 49 73.6315 48.9789C73.7367 49.2263 73.8946 49.4631 74.0525 49.6842C74.9999 50.9316 76.6841 51.1579 77.842 50.1895C78.2631 49.8105 78.5788 49.2947 78.6841 48.7421C78.7894 48.8158 78.842 48.8947 78.8946 48.9684C80.2104 50.2474 82.2631 50.1526 83.4736 48.7631C84.3157 47.821 84.5788 46.5263 84.2104 45.3842C84.4209 45.3842 84.5788 45.3789 84.7367 45.3579C86.6841 45.1 88.1052 43.6158 87.8946 42.0368C87.7894 41.321 87.4209 40.7105 86.842 40.2842Z" fill="#FFD72E"/>
<path d="M73.6315 42.4052C75.9473 47.8842 84.7367 43.8421 80.5262 35.7474C77.7894 30.4737 69.2631 30.7421 65.4209 34.4M86.842 40.2842C88.0525 39.4947 88.7894 38.0421 88.5788 36.4947C88.421 35.1316 87.5788 34.0368 86.4736 33.4842C86.7894 32.8421 86.8946 32.121 86.842 31.3684C86.5788 29.3158 84.7894 27.8579 82.6841 28C82.8946 27.5684 82.9999 27.1 82.9473 26.6105C82.7367 25.0737 81.2104 24.0105 79.5262 24.2316C78.6315 24.3474 77.842 24.8105 77.3683 25.4526C76.7894 23.7684 75.0525 22.6737 73.2104 22.921C71.9999 23.0737 70.9999 23.7368 70.3683 24.6579C69.4736 24.0579 68.2631 23.7631 66.9999 23.9316C64.4736 24.2631 62.6841 26.1631 62.9473 28.1842C62.9999 28.8316 63.2631 29.4158 63.6841 29.8895L59.9473 32.4421L63.4209 37.4263C63.4209 37.4263 68.4209 33.5631 72.6841 33.7737C77.4736 34.0052 79.842 36.1842 79.6315 40.1789C79.4209 43.6579 75.842 43.6316 75.1578 41.9105C74.4209 40.1947 75.9999 39.321 75.9999 39.321C73.842 37.1895 71.6841 38.9052 71.3683 40.3316C70.6315 40.1526 69.8946 40.2895 69.3157 40.7895C68.2631 41.6684 68.1578 43.3368 69.0525 44.5158C69.2631 44.7368 69.4209 44.9316 69.6315 45.0842C69.0525 46.0474 69.1052 47.4158 69.8946 48.4368C70.842 49.6842 72.4736 49.9579 73.5788 49.0474C73.5788 49.0263 73.6315 49 73.6315 48.9789C73.7367 49.2263 73.8946 49.4631 74.0525 49.6842C74.9999 50.9316 76.6841 51.1579 77.842 50.1895C78.2631 49.8105 78.5788 49.2947 78.6841 48.7421C78.7894 48.8158 78.842 48.8947 78.8946 48.9684C80.2104 50.2474 82.2631 50.1526 83.4736 48.7631C84.3157 47.821 84.5788 46.5263 84.2104 45.3842C84.421 45.3842 84.5788 45.3789 84.7367 45.3579C86.6841 45.1 88.1052 43.6158 87.8946 42.0368C87.7894 41.321 87.421 40.7105 86.842 40.2842Z" stroke="black"/>
<path d="M60.0525 31.8739C60.6314 32.5949 61.8946 32.4423 62.8946 31.5476C63.9472 30.6528 64.3156 29.3423 63.7367 28.6212C63.1577 27.9002 61.8419 28.0476 60.8419 28.9476C59.8419 29.8423 59.4735 31.1528 60.0525 31.8739Z" fill="#FFD72E"/>
<path d="M55.7368 27.5527C56.3157 28.3053 57.6315 28.1896 58.6315 27.2896C59.6841 26.3948 59.9999 25.0527 59.421 24.3053C58.842 23.5527 57.5262 23.6685 56.4736 24.5632C55.4736 25.4632 55.1578 26.8053 55.7368 27.5527Z" fill="#FFD72E"/>
<path d="M63.3681 35.9421C63.9997 36.6895 65.3155 36.5579 66.3155 35.6421C67.3681 34.7263 67.7365 33.3789 67.1576 32.6316C66.526 31.8789 65.2102 32.0158 64.2102 32.9263C63.1576 33.8421 62.7892 35.1947 63.3681 35.9421Z" fill="#FFD72E"/>
<path d="M60.0526 31.8738C60.6315 32.5948 61.8947 32.4422 62.8947 31.5474C63.9473 30.6527 64.3157 29.3422 63.7368 28.6211C63.1578 27.9001 61.842 28.0474 60.842 28.9474C59.842 29.8422 59.4736 31.1527 60.0526 31.8738ZM55.7368 27.5527C56.3157 28.3053 57.6315 28.1896 58.6315 27.2896C59.6841 26.3948 59.9999 25.0527 59.421 24.3053C58.842 23.5527 57.5262 23.6685 56.4736 24.5632C55.4736 25.4632 55.1578 26.8053 55.7368 27.5527ZM63.3684 35.9422C63.9999 36.6896 65.3157 36.558 66.3157 35.6422C67.3684 34.7264 67.7368 33.379 67.1578 32.6317C66.5262 31.879 65.2105 32.0159 64.2105 32.9264C63.1578 33.8422 62.7894 35.1948 63.3684 35.9422V35.9422Z" stroke="black"/>
<path d="M53.0527 26.2577C54.3685 23.484 53.7896 20.563 53.7896 20.563C53.7896 20.563 58.158 22.6314 56.2106 28.5104C56.0001 28.3156 54.158 26.8735 53.0527 26.2577Z" fill="#FFD72E"/>
<path d="M63.6312 37.7421C66.526 36.0263 70.6839 36.8 70.6839 36.8C70.6839 36.8 67.5786 32.1105 62.3154 35.6421C62.526 35.8211 63.2102 36.6316 63.6312 37.7421Z" fill="#FFD72E"/>
<path d="M53.0527 26.2577C54.3685 23.484 53.7896 20.563 53.7896 20.563C53.7896 20.563 58.158 22.6314 56.2106 28.5104C56.0001 28.3156 54.158 26.8735 53.0527 26.2577V26.2577Z" stroke="black"/>
<path d="M63.6312 37.7421C66.526 36.0263 70.6839 36.8 70.6839 36.8C70.6839 36.8 67.5786 32.1105 62.3154 35.6421C62.526 35.8211 63.2102 36.6316 63.6312 37.7421Z" stroke="black"/>
<path d="M45.7 36.7367C45.1632 37.1893 37.3263 39.9367 35.3789 37.3577C33.2842 34.5946 36.0684 31.4999 36.4789 31.7209C36.8842 31.942 37.0158 35.2683 39.1 35.8841C41.1789 36.4999 45.0684 36.1262 45.0684 36.1262L45.7 36.7367Z" fill="#050102"/>
<path d="M55.3157 32.4788C56.3157 33.6788 58.3683 33.4893 59.9999 32.0577C61.6315 30.6261 62.1578 28.4893 61.2104 27.2893C60.2631 26.0893 58.1578 26.2735 56.5788 27.7051C54.9473 29.1419 54.3683 31.2788 55.3157 32.4788Z" fill="#FFD72E"/>
<path d="M59.3686 35.4209C60.158 36.4262 62.0001 36.1788 63.4738 34.8788C65.0001 33.5736 65.5265 31.7104 64.737 30.7051C63.9475 29.7051 62.1054 29.9472 60.6317 31.2525C59.158 32.5525 58.5791 34.4209 59.3686 35.4209Z" fill="#FFD72E"/>
<path d="M55.3157 32.4788C56.3157 33.6788 58.3683 33.4893 59.9999 32.0577C61.6315 30.6261 62.1578 28.4893 61.2104 27.2893C60.2631 26.0893 58.1578 26.2735 56.5788 27.7051C54.9473 29.1419 54.3683 31.2788 55.3157 32.4788ZM59.3683 35.4209C60.1578 36.4261 61.9999 36.1788 63.4736 34.8788C64.9999 33.5735 65.5262 31.7104 64.7367 30.7051C63.9473 29.7051 62.1052 29.9472 60.6315 31.2525C59.1578 32.5525 58.5788 34.4209 59.3683 35.4209V35.4209Z" stroke="black"/>
<path d="M51.9629 27.5682C57.8418 30.8472 61.3155 36.7103 62.2103 38.8051C62.9471 38.4419 63.2103 37.884 63.8945 37.5787C61.5787 32.6524 57.2629 27.9472 53.2103 25.8472C52.8418 26.463 52.426 26.984 51.9629 27.5682Z" fill="#FFD72E"/>
<path d="M51.9629 27.5682C57.8418 30.8472 61.3155 36.7103 62.2103 38.8051C62.9471 38.4419 63.2103 37.884 63.8945 37.5787C61.5787 32.6524 57.2629 27.9472 53.2103 25.8472C52.8418 26.463 52.426 26.984 51.9629 27.5682V27.5682Z" stroke="black"/>
<path d="M57.1579 30.3263C59.4737 32.5789 61.7895 35.7105 62.5263 38.1158C62.421 38.2579 62.8947 38.0105 62.6842 38.1105C63.5789 38.4473 63.7368 38.6684 64.6842 39.4947C65.1579 39.9263 65.5789 40.2684 65.8421 41.0421C66 41.5894 66 42.1473 66 42.7052C66.1053 44.5526 65.5789 46.2894 64.7895 46.7631C63.7368 47.4158 63.6842 46.0316 63.1053 45.0631C62 43.1421 58.8947 41.8684 58 40.321C57.7895 39.921 57.3684 37.9894 57.3684 37.9894C57.3684 37.9894 54.6316 39.8842 53 40.0789C51.3316 40.2737 50.4842 38.9894 47.3684 39.0631C46.2789 40.0316 45.1895 40.4052 44.2737 40.8C43.321 41.2158 42.821 39.5421 41.5158 38.6894C42.0105 38.3 45.5947 38.9894 45.7 36.7368C45.1632 37.1894 37.3263 39.9368 35.3789 37.3579C33.2842 34.5947 36.0684 31.5 36.4789 31.721C36.8842 31.9421 37.0158 35.2684 39.1 35.8842C41.1789 36.5 45.0684 36.1263 45.0684 36.1263C45.0684 36.1263 44.9368 36.0473 44.8368 35.9684C44.7632 36.2368 39.6737 35.8263 39.6737 35.8263C39.6737 35.8263 38.9842 34.4737 39.4684 33.6947C39.6684 33.4473 39.6895 33.4473 39.6895 33.4473L40.1947 32.4052C40.1947 32.4052 40.4947 31.9894 40.9263 32.1684C41.3579 32.3473 42.2842 32.3158 42.2842 32.3158C42.2842 32.3158 46.4789 28.8947 47.8684 29.4684C47.9947 28.3526 49.8 25.6052 52.4579 26.8947C52.621 26.7947 52.4632 27 52.5895 27.0579C52.9474 27.0684 55.1053 28.3421 57.1579 30.3263Z" fill="black"/>
<path d="M35.3579 34.4681C35.3105 34.6892 35.2894 34.905 35.2842 35.1102C35.2842 35.7523 35.4894 36.3576 35.9052 36.9102C37.3789 38.8734 43.3684 37.1313 45.3263 36.426C43.5263 36.9839 40.1315 36.8102 38.8158 36.4944C37.2842 36.1629 36.3579 33.9944 36.1737 32.7997V32.7944C35.8737 33.1629 35.5105 33.7523 35.3579 34.4681Z" fill="#E7423F"/>
<path d="M52.6207 31.4841C52.5154 31.3894 51.5891 30.7578 51.1733 30.7999C51.047 30.6788 50.4733 30.3367 50.7839 30.1999C50.947 30.1262 51.2575 30.0894 51.3207 30.0894C51.3891 30.0894 52.0786 30.2051 52.226 30.2104C52.8944 30.3051 54.2102 31.2946 53.947 33.0367C53.8944 33.3894 52.8944 31.7315 52.6207 31.4841Z" fill="#FFD72E"/>
<path d="M42.3366 33.3315L42.7419 33.2104L43.0892 33.3947L43.084 33.5789L42.9103 33.942L42.6208 34.242L42.1577 34.542H41.8682L41.6998 34.421L41.584 34.1736L41.7577 33.8736L42.3366 33.3315Z" fill="#FFD72E"/>
<path d="M51.8947 32.8525C52.4412 32.8525 52.8842 32.4095 52.8842 31.863C52.8842 31.3165 52.4412 30.8735 51.8947 30.8735C51.3483 30.8735 50.9053 31.3165 50.9053 31.863C50.9053 32.4095 51.3483 32.8525 51.8947 32.8525Z" fill="#FFD72E"/>
</g>
<defs>
<clipPath id="clip0_275_78658">
<rect width="100" height="120.88" fill="white"/>
</clipPath>
</defs>
</svg>
