<svg width="100" height="121" viewBox="0 0 100 121" fill="none" xmlns="http://www.w3.org/2000/svg">
<g clip-path="url(#clip0_275_78598)">
<path d="M49.9096 0.374512H99.5162V73.1381C99.5162 99.281 77.3181 120.478 49.9451 120.478C22.5669 120.478 0.375977 99.281 0.375977 73.1381V0.374512H49.9096Z" fill="white"/>
<path d="M0.248047 0.247559V60.541H99.4216V0.247559H0.248047Z" fill="#E8423F"/>
<path fill-rule="evenodd" clip-rule="evenodd" d="M0.200684 0L49.6136 0.00462412V3.49283e-05H99.8311V72.9394C99.8311 99.276 77.535 120.551 50.0132 120.551C22.5232 120.551 0.200684 99.2761 0.200684 72.9394V0ZM50.3602 0.745146V0.749805L0.947274 0.745181V72.9394C0.947274 98.8341 22.9042 119.806 50.0132 119.806C77.1537 119.806 99.0845 98.8342 99.0845 72.9394V0.745146H50.3602Z" fill="black"/>
</g>
<defs>
<clipPath id="clip0_275_78598">
<rect width="100" height="120.88" fill="white"/>
</clipPath>
</defs>
</svg>
