<svg width="100" height="121" viewBox="0 0 100 121" fill="none" xmlns="http://www.w3.org/2000/svg">
<g clip-path="url(#clip0_275_78774)">
<path d="M49.7872 0.37085H99.643V72.6171C99.643 98.5778 77.3315 119.623 49.819 119.623C22.3036 119.623 0 98.5778 0 72.6171V0.37085H49.7872Z" fill="#E8423F"/>
<path fill-rule="evenodd" clip-rule="evenodd" d="M0.200684 0L49.6136 0.00462412V3.49283e-05H99.8311V72.9394C99.8311 99.276 77.535 120.551 50.0132 120.551C22.5232 120.551 0.200684 99.2761 0.200684 72.9394V0ZM50.3602 0.745146V0.749805L0.947274 0.745181V72.9394C0.947274 98.8341 22.9042 119.806 50.0132 119.806C77.1537 119.806 99.0845 98.8342 99.0845 72.9394V0.745146H50.3602Z" fill="black"/>
<path d="M94.9036 18.262H80.4902V4.00024H75.7972V18.262H61.4224V23.0051H75.7972V37.3313H80.4902V23.0051H94.9036V18.262Z" fill="white"/>
</g>
<defs>
<clipPath id="clip0_275_78774">
<rect width="100" height="120.88" fill="white"/>
</clipPath>
</defs>
</svg>
