<svg width="100" height="121" viewBox="0 0 100 121" fill="none" xmlns="http://www.w3.org/2000/svg">
<g clip-path="url(#clip0_275_78602)">
<path d="M49.9096 0.374512H99.5162V73.1381C99.5162 99.281 77.3181 120.478 49.9451 120.478C22.5669 120.478 0.375977 99.281 0.375977 73.1381V0.374512H49.9096Z" fill="white"/>
<path d="M49.9695 0.374023H99.6287V73.3678C99.6287 99.5945 77.4101 120.858 50.003 120.858C22.5902 120.858 0.373535 99.594 0.373535 73.3678V0.374023H49.9695Z" fill="white"/>
<path d="M0.373535 73.3678C0.373535 99.5945 22.5902 120.858 50.003 120.858C68.3306 120.858 84.3286 111.349 92.9292 97.2102L0.373535 0.931885V73.3678Z" fill="#16A74E"/>
<path d="M30.8103 45.8262C30.5209 45.7137 29.3147 45.4541 29.0071 45.9799C27.2731 48.9442 30.1154 55.4996 32.7847 56.8106C34.2217 57.5094 34.2399 57.0153 34.2359 56.8559C34.1983 55.0016 28.9053 49.3633 30.8103 45.8262Z" fill="#E8423F"/>
<path d="M30.8103 45.8262C30.5209 45.7137 29.3147 45.4541 29.0071 45.9799C27.2731 48.9442 30.1154 55.4996 32.7847 56.8106C34.2217 57.5094 34.2399 57.0153 34.2359 56.8559C34.1983 55.0016 28.9053 49.3633 30.8103 45.8262Z" stroke="#010202"/>
<path d="M55.2897 84.7425C50.55 83.8198 43.1884 86.1498 43.1884 86.1498C43.1884 86.1498 38.84 88.0336 37.9221 90.3579C36.9974 92.6935 38.0154 93.6374 38.0154 93.6374C38.0154 93.6374 40.2319 97.4014 38.7612 99.0257C36.0363 99.7043 31.5428 98.991 30.4249 97.4531C29.2667 95.869 31.1707 94.8232 31.2044 93.693C31.2765 91.2939 29.3772 90.2521 28.6486 90.5634C28.1902 90.7615 29.6136 91.7014 28.8735 92.7703C28.0093 94.0082 26.7492 92.0589 25.5738 91.4593C24.3993 90.8557 23.263 91.7418 23.263 91.7418C23.263 91.7418 24.4463 92.1128 24.7116 92.3589C24.9759 92.6089 25.0152 93.7698 24.4281 94.0813C23.5411 94.5619 21.2707 93.5045 19.8442 95.5845C21.0448 95.2098 21.5293 95.5614 21.6348 95.646C22.4835 96.288 21.11 97.6337 23.2141 98.7565C21.704 98.7929 21.2042 98.8296 20.8592 98.9295C22.4557 99.1236 21.9741 100.86 23.0824 101.313C24.1867 101.775 25.0489 101.656 25.2374 101.831C33.7785 109.353 47.8146 103.807 48.7555 102.782C48.9871 102.544 47.255 100.617 46.9342 99.9504C46.7476 99.5761 47.5936 94.6581 48.7277 94.239C50.3205 92.5917 56.3394 91.3746 56.3394 91.3746C56.3394 91.3746 55.6856 86.4571 55.2897 84.7425Z" fill="#FFD730"/>
<path d="M55.2897 84.7425C50.55 83.8198 43.1884 86.1498 43.1884 86.1498C43.1884 86.1498 38.84 88.0336 37.9221 90.3579C36.9974 92.6935 38.0154 93.6374 38.0154 93.6374C38.0154 93.6374 40.2319 97.4014 38.7612 99.0257C36.0363 99.7043 31.5428 98.991 30.4249 97.4531C29.2667 95.869 31.1707 94.8232 31.2044 93.693C31.2765 91.2939 29.3772 90.2521 28.6486 90.5634C28.1902 90.7615 29.6136 91.7014 28.8735 92.7703C28.0093 94.0082 26.7492 92.0589 25.5738 91.4593C24.3993 90.8557 23.263 91.7418 23.263 91.7418C23.263 91.7418 24.4463 92.1128 24.7116 92.3589C24.9759 92.6089 25.0152 93.7698 24.4281 94.0813C23.5411 94.5619 21.2707 93.5045 19.8442 95.5845C21.0448 95.2098 21.5293 95.5614 21.6348 95.646C22.4835 96.288 21.11 97.6337 23.2141 98.7565C21.704 98.7929 21.2042 98.8296 20.8592 98.9295C22.4557 99.1236 21.9741 100.86 23.0824 101.313C24.1867 101.775 25.0489 101.656 25.2374 101.831C33.7785 109.353 47.8146 103.807 48.7555 102.782C48.9871 102.544 47.255 100.617 46.9342 99.9504C46.7476 99.5761 47.5936 94.6581 48.7277 94.239C50.3205 92.5917 56.3394 91.3746 56.3394 91.3746C56.3394 91.3746 55.6856 86.4571 55.2897 84.7425Z" fill="#FFD730"/>
<path d="M55.2897 84.7425C50.55 83.8198 43.1884 86.1498 43.1884 86.1498C43.1884 86.1498 38.84 88.0336 37.9221 90.3579C36.9974 92.6935 38.0154 93.6374 38.0154 93.6374C38.0154 93.6374 40.2319 97.4014 38.7612 99.0257C36.0363 99.7043 31.5428 98.991 30.4249 97.4531C29.2667 95.869 31.1707 94.8232 31.2044 93.693C31.2765 91.2939 29.3772 90.2521 28.6486 90.5634C28.1902 90.7615 29.6136 91.7014 28.8735 92.7703C28.0093 94.0082 26.7492 92.0589 25.5738 91.4593C24.3993 90.8557 23.263 91.7418 23.263 91.7418C23.263 91.7418 24.4463 92.1128 24.7116 92.3589C24.9759 92.6089 25.0152 93.7698 24.4281 94.0813C23.5411 94.5619 21.2707 93.5045 19.8442 95.5845C21.0448 95.2098 21.5293 95.5614 21.6348 95.646C22.4835 96.288 21.11 97.6337 23.2141 98.7565C21.704 98.7929 21.2042 98.8296 20.8592 98.9295C22.4557 99.1236 21.9741 100.86 23.0824 101.313C24.1867 101.775 25.0489 101.656 25.2374 101.831C33.7785 109.353 47.8146 103.807 48.7555 102.782C48.9871 102.544 47.255 100.617 46.9342 99.9504C46.7476 99.5761 47.5936 94.6581 48.7277 94.239C50.3205 92.5917 56.3394 91.3746 56.3394 91.3746C56.3394 91.3746 55.6856 86.4571 55.2897 84.7425Z" stroke="#010202" stroke-miterlimit="17"/>
<path d="M27.3376 92.8738C27.3376 92.8738 26.0246 96.4456 27.6432 98.7409C29.2608 101.036 30.9267 100.782 32.2886 105.085M23.8659 94.358C23.8659 94.358 23.6804 95.125 25.0424 95.8708C24.5406 96.5243 24.4407 100.604 25.3969 101.838" stroke="#010202"/>
<path d="M42.6119 68.6195C42.6119 68.6022 42.6119 68.5791 42.6099 68.5425C42.6099 68.5464 42.608 68.554 42.608 68.558C42.6099 68.5791 42.6119 68.6022 42.6119 68.6195ZM42.6119 68.6195C42.6175 68.6638 42.6175 68.6638 42.6119 68.6195V68.6195ZM78.8561 87.849C76.032 83.689 70.1093 80.4824 67.0451 79.379C63.3406 76.5722 62.5754 76.5646 61.4605 75.7725C61.9989 72.1354 58.9595 67.7255 58.9595 67.7255C58.9595 67.7255 57.537 66.1069 54.4054 66.0914C55.2282 66.7373 58.5616 69.3941 57.6945 70.036C53.9093 63.4347 48.4229 65.6301 48.4229 65.6301C48.4229 65.6301 50.6788 66.053 51.29 67.3948C51.9101 68.7405 54.2169 73.8771 56.7179 76.2607C57.5156 77.0257 59.1421 78.2407 61.224 78.9789C66.3374 80.7897 73.6637 85.2727 75.2052 87.2759C76.0106 88.3177 76.5278 89.7557 76.5027 90.2749C76.4759 90.7901 75.9375 91.2668 75.1762 91.1669C74.2151 91.0438 62.752 83.6388 62.752 83.6388C62.752 83.6388 60.2799 81.851 55.2624 80.617C51.9775 76.1686 42.3513 71.6165 40.3147 69.944C40.3001 69.9632 40.2849 69.9824 40.2733 69.9979C41.3479 68.7061 42.1631 67.3104 42.7435 66.0762C42.5821 67.3911 42.5974 68.2523 42.6099 68.5407C42.6311 68.0717 47.6158 63.0196 46.6709 60.7024C50.2792 59.275 49.8208 58.8676 49.6534 57.4835C49.5265 57.5324 49.2536 57.5152 48.9172 57.4835C49.1566 57.4997 49.4027 57.5036 49.6534 57.4835C49.6485 55.6368 45.1195 54.669 45.2455 54.4229C45.3695 54.1808 46.7123 54.7768 46.9957 54.5191C47.0976 54.4143 41.3142 47.5524 40.0012 47.7379C39.4935 47.8993 39.2256 48.3637 38.6584 48.0445C38.0885 47.7254 36.7379 46.3674 36.214 46.2808C36.2477 46.4739 35.6018 46.9737 35.6018 46.9737C35.6018 46.9737 34.8299 47.2399 34.2062 47.684C33.5804 48.1309 33.6237 49.6449 34.2419 50.2647C34.2756 50.2965 33.718 51.8949 33.718 51.8949C33.718 51.8949 34.685 50.5915 34.86 50.5915C35.0293 50.5915 36.8189 51.7219 36.891 52.7792C37.0256 54.6902 33.7392 57.6033 33.6171 57.6237C32.9404 57.7275 31.6516 55.2967 31.3305 55.1313C31.2064 55.0698 30.6998 54.594 30.031 57.0469C29.982 57.2354 30.1722 57.6505 30.5039 58.1879V58.184C30.5039 58.184 27.8184 56.3164 25.1415 56.0858C25.5923 56.1136 26.0017 56.1867 26.3103 56.2829C25.3799 54.3336 23.517 46.8479 24.4129 42.8494C30.4646 40.5588 29.8359 39.6017 29.7714 38.4521C30.6749 37.3226 29.2736 35.9646 29.2736 35.9646L28.7352 37.4863C28.7352 37.4863 28.124 37.8977 27.3674 37.3603C26.612 36.8268 27.1002 34.7929 26.779 33.6435C26.456 32.5015 25.1585 31.3222 25.1585 31.3222C25.1585 31.3222 25.4555 32.2343 25.5113 32.5055C25.5603 32.7793 25.3893 33.3091 24.3224 33.2513C23.2574 33.1947 23.2968 32.0768 22.7057 31.5451C22.1078 31.0077 20.9073 30.7097 20.9073 30.7097C20.9073 30.7097 21.7119 32.46 21.5214 32.7205C20.9774 32.7771 20.2911 34.344 19.8539 34.4794C19.4203 34.6081 18.143 32.6081 17.1396 33.9508C18.3795 33.8086 18.4939 34.4853 18.517 34.7178C18.594 35.5739 16.5092 38.8519 18.147 39.8285C16.5707 43.4742 18.1883 45.6533 18.1883 45.6533C18.1883 45.6533 16.9725 51.7165 16.83 58.7984C17.0156 58.933 17.1568 59.0944 17.2692 59.2598C13.49 55.9879 11.1571 45.9368 11.3638 44.6969C11.4715 44.0549 11.6214 43.8125 11.6214 43.8125C11.6214 43.8125 12.1039 43.8817 12.6017 43.7471C13.1054 43.6134 13.2572 43.4855 13.2572 43.4855C13.2572 43.4855 14.6883 43.3558 15.0663 43.2355C15.4403 43.1154 16.8128 40.501 16.0899 38.7488C15.8891 39.1804 15.6219 40.1848 15.0385 40.33C14.4541 40.4798 14.5212 39.9341 13.6015 39.5561C13.8869 36.8226 11.2255 33.8871 11.2255 33.8871C11.2255 33.8871 12.1194 35.7134 11.5274 36.0421C10.9381 36.3728 9.92504 36.6804 9.92504 36.6804L9.61747 39.8435C9.66446 39.1861 9.71466 38.2057 9.71466 36.9149C9.35418 36.0921 8.58229 34.6984 7.56654 33.5431C8.03947 34.2968 8.60468 35.6194 7.40316 37.3379C7.44646 37.4543 7.53111 37.708 8.24026 39.2535C7.4349 37.8376 4.5235 36.019 4.5235 36.019C4.5235 36.019 5.25602 38.8027 3.79688 40.3952C4.83107 40.8516 4.10052 50.0071 6.69671 50.4751C7.35616 51.844 8.08844 68.256 11.5296 72.6158C11.9622 72.6446 15.3677 72.5966 15.3677 72.5966L14.7151 72.758C14.7151 72.758 19.1376 77.6792 20.7599 78.9095C22.9917 80.6167 32.543 82.1738 39.0752 82.8313C45.6084 83.4927 48.839 85.8723 49.0513 85.5456C49.1734 85.284 47.5412 83.3965 47.8663 83.3042C48.5575 83.112 51.538 92.7623 54.2216 95.0229C56.9091 97.295 63.395 98.1986 63.7949 100.344C64.1179 102.024 63.1143 106.515 60.4691 106.169C60.0749 106.111 58.9157 101.92 58.2506 101.609C57.5816 101.301 55.8072 100.932 54.2329 101.809C54.4981 101.89 56.1131 102.266 56.7435 102.415C57.2895 102.976 56.3476 104.097 56.0205 104.218C55.2747 104.479 54.6844 104.302 54.1 104.423C52.5102 104.766 51.5375 106.953 51.5375 106.953C51.5375 106.953 54.4288 107.042 54.5518 108.599C56.1089 107.726 56.601 107.042 57.6851 107.699C54.1692 108.499 53.8904 109.356 53.2964 111.834C54.6209 111.123 55.4091 110.55 55.8013 110.81C56.1859 111.075 56.6549 111.386 57.2545 111.156C57.3584 111.117 57.493 111.059 57.6448 110.986C57.3507 111.181 57.1123 111.363 57.0528 111.486C56.8586 111.901 56.7624 113.902 57.0124 114.154C57.1298 113.897 57.4123 112.905 58.0737 112.886C58.7312 112.855 61.038 113.37 61.3608 112.886C61.68 112.398 61.1224 112.924 61.8222 112.111C62.522 111.313 65.6169 110.098 66.3204 109.599C67.1393 107.945 73.783 101.648 73.487 97.1649C69.2732 96.3767 69.427 95.454 68.9329 94.7234C66.036 94.0544 61.5414 86.4804 60.7629 85.3116C61.897 86.5035 72.2431 93.1376 74.8499 93.9006C78.0121 94.8231 81.3359 91.5032 78.8561 87.849ZM47.7627 57.3688C47.0956 57.3284 46.4084 57.338 45.9662 57.5917C46.4874 57.2967 47.1035 57.3065 47.7627 57.3688ZM34.5216 73.8771C34.7379 73.8156 34.9579 73.7464 35.1725 73.6733C34.9579 73.7464 34.7396 73.8156 34.5216 73.8771Z" fill="#FFD730"/>
<path d="M18.2317 45.681C19.809 45.4389 21.3872 43.2925 23.1173 40.5782C24.8483 37.8599 26.7516 37.2457 27.2735 37.3102M18.1239 39.7457C18.1239 39.7457 21.4937 36.1768 23.8604 35.48C22.9588 33.0445 23.9864 33.2 23.9864 33.2M13.6141 39.6333C13.6141 39.6333 11.4899 41.8247 11.3813 44.3441M54.7593 104.416C56.8469 104.643 60.515 107.111 59.9535 105.4M54.6516 46.649C54.4554 47.2496 54.4709 47.3266 55.4877 48.3675C53.6405 51.9585 54.967 54.5884 54.967 54.5884" stroke="#010202"/>
<path d="M45.6411 86.9894C45.6411 86.9894 49.4071 88.8849 50.771 88.8329C50.5269 88.1582 49.7944 86.6856 49.7944 86.6856C49.7944 86.6856 48.3458 85.8573 45.6411 86.9894Z" fill="#E8423F"/>
<path d="M45.6411 86.9894C45.6411 86.9894 49.4071 88.8849 50.771 88.8329C50.5269 88.1582 49.7944 86.6856 49.7944 86.6856C49.7944 86.6856 48.3458 85.8573 45.6411 86.9894Z" stroke="#010202"/>
<path d="M80.3072 48.0233C79.7689 47.732 74.2923 46.8161 71.5681 47.2438C68.8422 47.6667 68.3538 50.385 68.1732 51.6315C68.0039 52.8695 68.3732 54.7947 64.4707 54.0872C62.8118 53.7885 60.703 51.7238 60.7185 50.6589C60.7416 49.1864 62.5487 48.5895 62.5987 47.4399C62.6142 47.0939 62.6334 44.2334 60.4284 44.2334C60.2399 44.842 61.2397 46.4596 59.892 46.6057C58.5962 46.7443 57.5121 44.8794 56.3932 44.1769C55.5436 43.6358 54.4055 44.0154 54.4055 44.0154L55.8895 44.9544C55.8895 44.9544 55.8548 46.2165 55.3051 46.5078C54.2554 47.0605 52.1103 45.2534 50.1494 47.4037C51.4211 47.2423 51.7892 47.5959 52.1391 47.6766C52.5178 48.6156 51.6681 50.2949 53.156 50.9445C52.8485 50.9052 50.7434 50.759 50.7828 50.8321C52.0429 51.2561 51.8372 52.3776 51.8372 52.3776C51.8372 52.3776 52.3216 53.9145 54.5997 54.2125C58.1848 59.1059 67.8312 62.912 74.1444 62.5776C74.0597 57.5641 75.6919 56.1569 78.6734 55.6532C78.9116 54.5171 80.2553 48.2607 80.3072 48.0233Z" fill="#FFD730"/>
<path d="M30.5266 13.0902C30.4641 13.3323 29.7528 15.7017 31.1543 18.0759C31.1802 18.0095 31.1408 17.6318 31.1408 17.6318C31.1408 17.6318 32.0192 17.011 32.3672 16.3148C32.5325 15.99 33.7176 15.5287 34.3809 14.7154C35.0606 13.7081 34.5185 11.554 33.1959 10.3853C33.2729 11.4108 33.5323 12.025 33.3573 12.2076C32.6509 12.9741 30.5901 12.8501 30.5266 13.0902Z" fill="#FFD730"/>
<path d="M30.5266 13.0902C30.4641 13.3323 29.7528 15.7017 31.1543 18.0759C31.1802 18.0095 31.1408 17.6318 31.1408 17.6318C31.1408 17.6318 32.0192 17.011 32.3672 16.3148C32.5325 15.99 33.7176 15.5287 34.3809 14.7154C35.0606 13.7081 34.5185 11.554 33.1959 10.3853C33.2729 11.4108 33.5323 12.025 33.3573 12.2076C32.6509 12.9741 30.5901 12.8501 30.5266 13.0902Z" stroke="#010202"/>
<path d="M60.0784 6.77153C59.7669 6.73019 58.5041 6.76956 58.3309 7.41252C57.3311 11.0449 61.7642 17.3185 64.7361 18.0134C66.3395 18.3834 66.2337 17.8441 66.1933 17.6826C65.7014 15.7019 59.0654 11.0621 60.0784 6.77153Z" fill="#E8423F"/>
<path d="M80.3072 48.0233C79.7689 47.732 74.2923 46.8161 71.5681 47.2438C68.8422 47.6667 68.3538 50.385 68.1732 51.6315C68.0039 52.8695 68.3732 54.7947 64.4707 54.0872C62.8118 53.7885 60.703 51.7238 60.7185 50.6589C60.7416 49.1864 62.5487 48.5895 62.5987 47.4399C62.6142 47.0939 62.6334 44.2335 60.4284 44.2335C60.2399 44.842 61.2397 46.4596 59.892 46.6057C58.5962 46.7443 57.5121 44.8794 56.3932 44.1769C55.5436 43.6358 54.4055 44.0154 54.4055 44.0154L55.8895 44.9544C55.8895 44.9544 55.8548 46.2165 55.3051 46.5078C54.2554 47.0605 52.1103 45.2534 50.1494 47.4037C51.4211 47.2423 51.7892 47.5959 52.1391 47.6766C52.5178 48.6156 51.6681 50.2949 53.156 50.9445C52.8485 50.9052 50.7434 50.759 50.7828 50.8321C52.0429 51.2561 51.8372 52.3776 51.8372 52.3776C51.8372 52.3776 52.3216 53.9145 54.5997 54.2125C58.1848 59.1059 67.8312 62.912 74.1444 62.5776C74.0597 57.5641 75.6919 56.1569 78.6734 55.6532C78.9116 54.5171 80.2553 48.2607 80.3072 48.0233ZM60.0783 6.77153C59.7667 6.73019 58.5039 6.76956 58.3307 7.41252C57.331 11.0449 61.764 17.3185 64.736 18.0134C66.3393 18.3834 66.2335 17.8441 66.1931 17.6826C65.7013 15.7019 59.0652 11.0621 60.0783 6.77153Z" stroke="#010202"/>
<path d="M98.3387 51.9643C98.1274 49.9304 95.9743 44.594 90.7261 36.5961C87.0197 30.9539 86.7121 28.0607 87.4003 25.5799C90.8068 25.0858 95.2937 20.4876 95.1707 17.7039C95.0435 14.9146 93.3518 13.4977 93.3518 13.4977C93.3518 13.4977 92.3907 19.5137 91.1449 19.1707C91.5716 18.5546 92.8713 16.6254 92.8904 13.9055C92.9136 11.1882 89.0497 8.77951 88.5113 8.74383C88.8688 9.23792 90.3703 10.8026 89.9877 12.0108C89.5994 13.216 88.5881 14.6001 87.2118 16.4111C85.8162 18.2374 84.0091 21.2497 83.7938 24.1313C83.5746 26.9861 85.1511 30.3992 85.8622 32.46C86.6235 34.6448 91.7908 42.9841 91.7908 42.9841C91.7908 42.9841 97.9633 52.2729 95.8739 53.9877C95.2396 54.5116 92.5501 54.3538 91.045 52.2653C89.6341 50.312 89.8223 50.393 88.6132 48.5859C86.8984 46.0175 85.8258 46.206 85.7566 45.8955C80.2298 36.6374 72.5136 31.4903 71.3755 30.8166C71.3755 30.8166 73.1595 29.0786 73.7035 27.1515C73.6671 27.8262 73.5306 29.5466 73.5306 29.5466C73.5306 29.5466 78.5037 23.9775 77.9309 21.0747C84.3612 20.498 81.9929 17.4291 81.4528 17.1232C81.4892 16.7571 77.7771 15.1769 77.7771 14.8299C77.7771 14.8299 77.8617 14.779 77.9848 14.7281C79.2035 15.0922 79.4995 15.0211 79.4803 14.8299C79.4648 14.6414 74.4129 8.94659 72.3098 8.54083C71.6063 9.03099 71.487 8.74949 71.0333 8.83586C70.3354 8.94634 68.613 6.68675 67.7461 6.63582C67.6578 6.98178 66.8542 7.39516 66.8542 7.39516C66.8542 7.39516 65.1125 7.91903 64.7666 8.56002C64.4167 9.20028 65.0626 10.718 65.0626 10.718L64.7801 12.155C64.7801 12.155 65.7085 11.0113 65.7567 10.9227C66.2257 11.6196 67.7252 11.5445 68.0886 13.5447C68.4538 15.543 66.9238 16.2025 66.3335 17.403C65.7375 18.5976 65.1283 18.167 64.6246 18.0816C63.8768 17.95 62.1313 16.2025 62.066 16.2025C61.2799 16.2025 60.8608 18.2536 60.8761 18.5314C61.103 18.4468 61.2029 19.2772 61.4297 19.3887C61.5296 19.4367 61.6758 19.5272 61.8372 19.6348C59.1266 17.8297 54.6707 18.2804 54.7014 18.4131C54.7361 18.541 55.9221 19.0186 55.851 19.3205C55.8011 19.5349 53.7364 19.011 50.9635 19.9857C50.9952 19.9741 51.023 19.9615 51.0528 19.95C51.0528 19.95 46.1296 14.8558 47.4446 11.2254C49.1055 10.8496 50.4204 10.9975 51.4047 10.6151C53.0444 9.9798 53.8173 8.06421 53.7922 7.16264C52.1908 8.89959 51.7083 8.45446 51.4421 8.33807C50.4539 7.89123 51.5373 5.344 51.4421 4.42889C51.3518 3.51477 50.1493 2.43456 50.1493 2.43456C50.1493 2.43456 50.5213 3.78889 48.5469 4.42889C47.6156 4.72786 46.8476 3.36197 46.1978 2.78717C45.5423 2.21802 44.3119 2.12305 44.3119 2.12305C44.3119 2.12305 45.2982 3.61 45.0194 4.00124C44.3754 4.01575 43.791 5.0566 42.9384 5.24975C42.0858 5.4439 41.2593 3.52929 39.8061 4.78076C40.8932 4.67692 40.9874 4.98942 41.0979 5.17101C41.6055 5.99581 40.8221 6.24557 40.4818 9.47414C40.328 10.8814 40.4559 12.371 40.6058 13.5917C40.9421 16.3656 43.0174 19.5154 44.1938 25.9207C44.1988 25.9246 44.2101 25.9303 44.2236 25.9342C39.8617 24.1502 34.9933 22.9199 32.4656 20.3988C29.8376 17.7768 30.1905 13.7158 30.5308 13.1036C30.5308 12.8892 28.769 10.2315 25.427 9.82207C27.1868 11.2514 26.9619 10.8024 25.6691 12.8575C26.5313 13.8139 26.9956 14.7595 27.2453 15.4382C26.9993 14.9269 26.5485 14.2098 25.7018 13.2256C24.8069 12.9478 23.3593 12.8949 21.4937 13.385C23.9794 13.81 23.4996 16.651 23.4996 16.651C23.4996 16.651 24.1388 17.0797 25.4065 17.7332C24.0185 17.1412 19.8047 18.0226 19.8047 18.0226C19.8047 18.0226 23.2122 18.3139 22.9046 20.4283C24.6231 21.5614 26.6233 23.8597 27.5192 24.3451C27.8615 24.5499 27.7018 24.7191 29.4242 25.0833C35.6621 32.5976 45.623 38.6433 46.7293 39.0623C47.9893 38.7894 50.2039 38.8817 50.2039 38.8817C50.2039 38.8817 49.2782 39.0018 48.3277 39.1076C49.9856 41.2693 55.8163 41.6691 63.3557 42.5611C73.471 43.751 77.4658 49.3932 78.0502 49.4855C78.2308 48.9973 77.7119 48.7166 77.6464 46.9402C79.3381 49.7276 77.3428 58.0054 80.357 61.1043C83.2483 64.0772 87.3351 66.6513 88.3732 68.0585C88.7 68.4948 89.1154 69.4099 88.8961 71.9512C88.8039 73.12 87.9426 73.762 87.1006 75.2578C86.5585 75.527 85.8587 75.5885 84.9628 75.2654C79.78 73.4044 78.2308 76.1227 78.2308 76.1227C78.2308 76.1227 81.3721 75.7843 81.2758 77.6222C81.5411 77.5742 81.8487 77.5511 82.1678 77.5415C81.4296 77.8048 80.7106 78.4143 80.2608 79.681C81.6142 78.9101 82.8405 80.475 83.4328 81.2612C84.0211 82.0513 84.7015 81.3746 84.7015 81.3746C84.7015 81.3746 86.3164 79.4984 87.6619 79.4753C87.5157 79.5599 83.5787 80.5402 84.5977 84.8522C85.1206 82.1283 88.2502 84.2179 89.0384 83.1625C89.0846 82.9684 89.0192 82.382 89.465 81.7937C89.8956 81.2053 92.4178 80.3173 92.4178 80.3173C92.4178 80.3173 94.9207 76.2496 95.059 73.8833C95.0993 73.2334 95.6857 69.9982 95.7396 64.3004C91.4488 63.9274 91.2335 61.0765 90.8356 57.9739C90.5607 55.8401 89.8705 54.3071 89.4591 53.5534C90.2704 54.8105 92.6176 57.8327 96.12 57.0251C98.5196 56.4616 98.5521 53.9894 98.3387 51.9643ZM62.3522 20.0272C62.2887 19.9657 62.212 19.9091 62.1426 19.8523C62.2159 19.9128 62.2887 19.9704 62.3522 20.0272ZM62.0505 19.7829C61.9814 19.7359 61.912 19.685 61.8409 19.6348C61.912 19.6869 61.9812 19.7359 62.0505 19.7829Z" fill="#FFD730"/>
<path d="M71.3719 30.8183C72.5099 31.492 80.2262 36.6392 85.753 45.8972C85.8202 46.2078 86.8949 46.0213 88.6078 48.5877C89.8189 50.3948 89.6324 50.3141 91.0416 52.267C92.5448 54.3556 95.236 54.5133 95.8705 53.9895C97.9581 52.2747 91.7879 42.9858 91.7879 42.9858C91.7879 42.9858 86.6245 34.6466 85.8612 32.4618C85.1518 30.399 83.5756 26.9879 83.7928 24.1331C84.0062 21.2514 85.8133 18.2392 87.2089 16.4129C88.5854 14.6021 89.5984 13.218 89.9847 12.0135C90.3693 10.8044 88.8679 9.2397 88.5084 8.74561C89.0468 8.78128 92.9107 11.19 92.8895 13.9072C92.8683 16.6275 91.5709 18.5546 91.142 19.1725C92.3895 19.5157 93.3489 13.4995 93.3489 13.4995C93.3489 13.4995 95.0406 14.9163 95.1675 17.7057C95.2925 20.4894 90.8039 25.0876 87.3994 25.5826C86.7092 28.0624 87.0207 30.9556 90.7232 36.5978C95.9717 44.5958 98.1247 49.9304 98.3358 51.9661C98.5511 53.9912 98.5204 56.4634 96.1137 57.021C91.7192 58.0369 89.1393 53.0148 89.1393 53.0148C89.1393 53.0148 90.4311 54.8642 90.831 57.9717C91.2308 61.0743 91.4461 63.9272 95.7369 64.2963C95.6828 69.998 95.0952 73.2315 95.0561 73.8811C94.9176 76.2455 92.4129 80.3134 92.4129 80.3134C92.4129 80.3134 89.8927 81.2015 89.4601 81.7898C89.0123 82.3781 89.0815 82.9682 89.0335 83.1586C88.2473 84.216 85.1157 82.1281 84.5908 84.8503C83.5719 80.5366 87.5089 79.556 87.657 79.4716C86.3093 79.4948 84.6966 81.371 84.6966 81.371C84.6966 81.371 84.0143 82.0516 83.426 81.2595C82.834 80.4751 81.6073 78.9104 80.256 79.6793C81.4863 76.1806 84.8061 77.6801 84.8061 77.6801C84.8061 77.6801 82.5628 77.3877 81.271 77.6225C81.3689 75.7846 78.2259 76.123 78.2259 76.123C78.2259 76.123 79.7754 73.4047 84.958 75.2637C85.8539 75.5868 86.5554 75.5253 87.0975 75.2561C87.9395 73.7586 88.7987 73.1166 88.891 71.9478C89.1102 69.4065 88.6929 68.4914 88.3681 68.0568C87.33 66.6496 83.2412 64.0736 80.3519 61.1026C77.3396 58.0037 79.3313 49.7262 77.6413 46.9386C77.7068 48.7149 78.2257 48.9954 78.0451 49.4838C77.4607 49.3916 73.4661 43.7513 63.3486 42.5584C55.8107 41.6674 49.9793 41.2676 48.3223 39.1059C49.2728 38.9974 50.1985 38.8801 50.1985 38.8801C50.1985 38.8801 47.984 38.7868 46.7239 39.0607C45.6176 38.6416 35.6568 32.5959 29.4189 25.0821C27.6964 24.718 27.8559 24.5487 27.5138 24.344C26.6179 23.8575 24.6177 21.5603 22.8992 20.4271C23.2068 18.3145 19.7993 18.0214 19.7993 18.0214C19.7993 18.0214 24.409 17.0554 25.5761 17.8186C24.195 17.1179 23.4942 16.6479 23.4942 16.6479C23.4942 16.6479 23.9738 13.8066 21.4883 13.3819C23.352 12.8917 24.8015 12.9446 25.6964 13.2225C27.7284 15.5812 27.5141 16.4368 27.5141 16.4368C27.5141 16.4368 27.2948 14.6654 25.6657 12.8563C26.9585 10.8012 27.1834 11.2503 25.4235 9.82089C28.7656 10.2303 30.5274 12.8881 30.5274 13.1024C30.1871 13.7165 29.8345 17.7756 32.4621 20.3976C36.0551 23.98 44.3856 24.9468 49.2413 28.6397C52.4758 31.1023 52.0066 34.9864 48.7578 35.3065C50.1294 36.5831 55.9436 36.3013 55.9436 36.3013C55.9436 36.3013 54.8343 37.3422 54.4672 37.6844C54.9633 38.0516 61.3569 38.9108 65.3535 34.2819C64.7979 35.539 64.4595 36.1812 64.4595 36.1812C64.4595 36.1812 66.0875 36.4268 71.3719 30.8183Z" stroke="#010202" stroke-miterlimit="16"/>
<path d="M48.7632 35.3042C50.1348 36.5808 55.9509 36.299 55.9509 36.299C55.9509 36.299 54.8397 37.3399 54.4746 37.6821C54.9706 38.0483 61.3604 38.9085 65.3589 34.2796C64.8013 35.5367 64.463 36.179 64.463 36.179C64.463 36.179 66.0892 36.425 71.3758 30.8165C71.3758 30.8165 73.1598 29.0786 73.7038 27.1514C73.6674 27.8261 73.5308 29.5466 73.5308 29.5466C73.5308 29.5466 78.504 23.9775 77.9311 21.0747C84.3615 20.4979 81.9931 17.429 81.453 17.1232C81.2837 17.0895 79.6228 17.1232 78.2062 17.0568C76.7818 16.9896 76.3453 18.4111 76.3453 18.4111C76.3453 18.4111 75.365 20.7371 73.2232 23.539C70.0572 27.7115 64.9706 22.2865 62.3562 20.027C59.7514 17.7691 54.6724 18.2689 54.7051 18.4113C54.7415 18.5395 55.9258 19.0169 55.8547 19.3188C55.7856 19.6212 51.6909 18.4421 47.2571 22.1217C47.4579 22.1217 49.5312 22.0939 49.4544 22.6571C49.4227 22.929 46.5843 23.2674 45.6309 26.5451C45.8356 26.6096 48.1847 27.8303 49.2497 28.6376C52.479 31.1 52.0139 34.9841 48.7632 35.3042Z" stroke="#010202" stroke-miterlimit="9"/>
<path d="M45.6287 26.5449C46.5822 23.2674 49.4225 22.9291 49.4523 22.6569C49.5283 22.0937 47.454 22.1215 47.2549 22.1215C48.5851 21.0191 49.8866 20.3538 51.0544 19.9483C51.0544 19.9483 46.1312 14.8541 47.4461 11.2237C49.107 10.8479 50.422 10.9958 51.4062 10.6134C53.046 9.97809 53.8208 8.0625 53.7938 7.16093C52.1944 8.89788 51.7099 8.45275 51.4436 8.33636C50.4554 7.88952 51.5369 5.34229 51.4436 4.42718C51.3533 3.51306 50.1508 2.4331 50.1508 2.4331C50.1508 2.4331 50.5229 3.78742 48.5485 4.42718C47.6171 4.72615 46.8492 3.36026 46.1993 2.78546C45.5438 2.21632 44.3135 2.12134 44.3135 2.12134C44.3135 2.12134 45.2997 3.60829 45.0209 3.99953C44.377 4.01404 43.7926 5.05489 42.94 5.24804C42.0874 5.44219 41.2609 3.52758 39.8076 4.77905C40.8947 4.67521 40.989 4.98771 41.0994 5.1693C41.6071 5.9941 40.8236 6.24386 40.4833 9.47243C40.3295 10.8797 40.4575 12.3693 40.6073 13.59C40.9437 16.3639 43.019 19.5137 44.1954 25.919C44.3398 26.0038 45.6287 26.5449 45.6287 26.5449Z" stroke="#010202"/>
<path d="M81.4528 17.1254C81.4488 17.1945 79.6208 17.1254 78.204 17.0589C76.7815 16.9917 76.343 18.4132 76.343 18.4132C76.343 18.4132 75.3627 20.7393 73.221 23.5412C70.053 27.7136 64.9664 22.2887 62.3559 20.0291C62.0734 19.7831 61.6485 19.4937 61.4332 19.3889C61.2063 19.2774 61.1064 18.4469 60.8795 18.5316C60.8603 18.2538 61.2794 16.2026 62.0675 16.2026C62.133 16.2026 63.8783 17.9502 64.6244 18.0818C65.128 18.1674 65.7393 18.5998 66.3352 17.4032C66.9236 16.2026 68.4536 15.5432 68.0884 13.5449C67.725 11.5466 66.2257 11.6197 65.7565 10.9229C65.7085 11.0112 64.7799 12.1552 64.7799 12.1552L65.0623 10.7182C65.0623 10.7182 64.4164 9.20044 64.7663 8.56019C65.1123 7.9192 66.8539 7.39533 66.8539 7.39533C66.8539 7.39533 67.6576 6.98195 67.7459 6.63599C68.611 6.68692 70.3335 8.94675 71.033 8.83602C71.4868 8.74941 71.6059 9.03115 72.3096 8.54099C74.4127 8.9465 79.4646 14.6436 79.4801 14.8301C79.4993 15.0232 79.2033 15.0924 77.9845 14.7282C77.8615 14.7772 77.7768 14.8301 77.7768 14.8301C77.7734 15.179 81.4855 16.759 81.4528 17.1254Z" stroke="#010202" stroke-miterlimit="5"/>
<path d="M71.4854 10.2673C71.7678 10.303 74.3977 10.9777 74.8611 14.0545C74.7572 14.2238 71.4854 13.5468 71.4854 12.5724C71.4854 11.4735 72.6138 11.2361 71.4854 10.2673Z" fill="#010202"/>
<path d="M73.0059 49.1056C75.0551 49.094 77.5196 49.1902 78.1271 50.1907C78.1387 50.6061 78.2809 51.5401 78.3501 52.1996C77.3388 52.0566 73.0059 49.3344 73.0059 49.1056Z" fill="#E8423F"/>
<path d="M47.9146 4.35229C48.0607 4.97237 46.6353 5.47778 45.9818 6.73614C43.0482 7.47039 41.0327 9.82249 40.4444 11.3623M41.297 16.1746C41.8556 15.8968 45.3752 8.68027 48.3732 7.37123C49.9995 6.66281 49.8698 7.53264 51.076 6.75115M17.6606 60.1766C17.6606 60.1766 17.946 58.7155 20.8498 59.027C21.1517 58.4859 18.9898 58.058 19.0255 57.8929C19.0668 57.7236 22.1475 56.4327 24.2572 56.9126C23.8121 56.5742 23.4939 56.433 22.8894 56.3791C23.9543 55.9409 25.4932 56.0331 26.3084 56.2829C25.378 54.3336 23.5151 46.8479 24.411 42.8494C30.4627 40.5588 29.834 39.6016 29.7695 38.452C30.673 37.3226 29.2717 35.9646 29.2717 35.9646L28.7333 37.4862C28.7333 37.4862 28.1211 37.8977 27.3655 37.3603C26.6101 36.8268 27.0983 34.7928 26.7771 33.6435C26.4541 32.5015 25.1566 31.3221 25.1566 31.3221C25.1566 31.3221 25.4536 32.2343 25.5094 32.5055C25.5584 32.7793 25.3874 33.3091 24.3205 33.2513C23.2555 33.1947 23.2949 32.0768 22.7038 31.5451C22.1059 31.0077 20.9054 30.7097 20.9054 30.7097C20.9054 30.7097 21.71 32.4599 21.5186 32.7205C20.9755 32.7771 20.2882 34.344 19.852 34.4794C19.4184 34.608 18.1411 32.6081 17.1377 33.9508C18.3776 33.8086 18.492 34.4853 18.5151 34.7178C18.5921 35.5738 16.5073 38.8519 18.145 39.8285C16.5688 43.4741 18.1864 45.6533 18.1864 45.6533C18.1864 45.6533 16.9706 51.7165 16.8281 58.7984C17.4991 59.2863 17.6606 60.1766 17.6606 60.1766ZM73.0062 49.1055C75.0554 49.094 77.52 49.1902 78.1275 50.1906C78.1391 50.606 78.2813 51.5401 78.3505 52.1995C77.3391 52.0565 73.0062 49.3344 73.0062 49.1055Z" stroke="#010202"/>
<path d="M33.716 51.8932C33.716 51.8932 34.6821 50.5898 34.858 50.5898C35.0273 50.5898 36.8169 51.7202 36.889 52.7765C37.0236 54.6884 33.7372 57.6016 33.6151 57.6217C32.9385 57.7256 31.6496 55.2947 31.3285 55.1294C31.2045 55.0679 30.6978 54.592 30.029 57.045C29.8283 57.7908 33.4382 62.1891 34.858 63.431C39.5312 67.5257 43.5287 61.2435 44.0113 60.759C45.4185 59.3634 45.0196 58.1215 45.9645 57.592C46.9679 57.0228 48.3127 57.5843 49.6488 57.4835C49.6448 55.6368 45.1156 54.669 45.2416 54.4229C45.3656 54.1808 46.7083 54.7768 46.9918 54.5192C47.0937 54.4143 41.3102 47.5524 39.9973 47.7379C39.4896 47.8994 39.2217 48.3637 38.6545 48.0445C38.0836 47.7254 36.733 46.3674 36.2101 46.2808C36.2438 46.4739 35.5979 46.9737 35.5979 46.9737C35.5979 46.9737 34.826 47.2399 34.2023 47.6841C33.5755 48.1309 33.6198 49.6449 34.2379 50.2647C34.2707 50.2945 33.716 51.8932 33.716 51.8932Z" stroke="#010202" stroke-miterlimit="17"/>
<path d="M30.5019 58.184C31.4957 59.7949 33.7929 62.5006 34.8579 63.431C39.5311 67.5257 43.5286 61.2452 44.0112 60.761C45.4184 59.3653 45.0195 58.1234 45.9644 57.5939C46.9678 57.0248 49.1883 57.663 49.6487 57.4854C49.816 58.8695 50.2754 59.277 46.6671 60.7044C47.6177 63.0353 42.5628 68.1391 42.6061 68.5582C42.6494 68.9792 42.5013 68.0065 42.7417 66.0784C41.3817 68.9388 38.8269 72.6817 34.5188 73.8793C34.6313 73.6583 34.9859 73.0161 35.3734 72.0434C29.4679 77.8007 23.4943 75.6959 23.4943 75.6959C23.4943 75.6959 23.9114 75.3384 24.9746 74.4349C21.0492 74.2464 19.3508 73.7506 15.7222 70.8207C17.9685 70.5092 18.9825 68.3025 19.2362 66.2223C19.4938 64.146 18.5248 63.8193 18.0251 62.6736C17.5174 61.524 17.6589 60.1726 17.6589 60.1726C17.6589 60.1726 17.9444 58.7115 20.8481 59.023C21.1491 58.4819 18.9881 58.054 19.0238 57.8889C19.0652 57.7196 22.1459 56.4288 24.2556 56.9086C23.8105 56.5703 23.2637 56.3127 22.6572 56.2637C25.8102 54.966 30.5019 58.184 30.5019 58.184Z" stroke="#010202" stroke-miterlimit="7"/>
<path d="M40.3167 69.9441C38.9624 71.5436 36.9939 73.1892 34.5237 73.8772C34.6351 73.6543 34.9899 73.016 35.3772 72.0433C29.4718 77.7989 23.4981 75.6939 23.4981 75.6939C23.4981 75.6939 23.9152 75.3363 24.9784 74.4328C21.053 74.2426 19.3547 73.7465 15.726 70.8169C17.9723 70.5074 18.9863 68.3005 19.24 66.2185C19.4976 64.1423 18.5296 63.8155 18.0289 62.6698C17.5213 61.5202 17.6628 60.1708 17.6628 60.1708C17.6628 60.1708 17.6175 59.6096 17.2678 59.251C13.4886 55.9801 11.1557 45.929 11.3623 44.6881C11.4701 44.0471 11.62 43.8048 11.62 43.8048C11.62 43.8048 12.1025 43.8739 12.6003 43.7393C13.104 43.6057 13.2558 43.4777 13.2558 43.4777C13.2558 43.4777 14.6869 43.3481 15.0648 43.2277C15.4389 43.1077 16.8114 40.4933 16.0885 38.7411C15.8877 39.1726 15.6204 40.1761 15.037 40.3222C14.4526 40.4711 14.5198 39.9263 13.6 39.5484C13.8855 36.8139 11.2241 33.8794 11.2241 33.8794C11.2241 33.8794 12.118 35.7056 11.526 36.0344C10.9367 36.3651 9.92362 36.6727 9.92362 36.6727L9.50655 40.8481C9.50655 40.8481 9.7066 39.5053 9.7066 36.9111C9.3471 36.0883 8.5752 34.6946 7.55922 33.5393C7.83308 34.3754 8.59637 35.6156 7.39583 37.3341C7.44111 37.4541 7.53338 37.7339 8.38402 39.5804C7.91601 38.1397 4.51617 36.0154 4.51617 36.0154C4.51617 36.0154 5.2487 38.7991 3.78955 40.3907C4.82276 40.8481 4.09319 50.0033 6.68939 50.4716C7.34884 51.8404 8.08111 68.2525 11.5223 72.6122C11.9549 72.641 15.3604 72.593 15.3604 72.593L14.7068 72.7544C14.7068 72.7544 19.1303 77.6757 20.7526 78.906C22.9843 80.6131 32.5357 82.1702 39.0669 82.8277C45.6011 83.4891 48.8307 85.8688 49.044 85.542C49.166 85.2804 48.5952 83.8427 47.859 83.3006C48.8826 83.3314 51.5307 92.7587 54.2143 95.0193C56.9017 97.2915 63.3877 98.195 63.7875 100.34C64.1106 102.021 63.1069 106.511 60.4618 106.165C60.0658 106.108 58.9084 101.917 58.2433 101.605C57.5742 101.298 55.7979 100.929 54.2256 101.805C54.4908 101.886 56.1057 102.263 56.7361 102.411C57.2821 102.97 56.3402 104.093 56.0132 104.214C55.2674 104.476 54.6771 104.299 54.0927 104.42C52.5029 104.762 51.5302 106.95 51.5302 106.95C51.5302 106.95 54.4214 107.038 54.5445 108.595C56.1015 107.722 56.5937 107.038 57.6778 107.696C54.1599 108.495 53.8831 109.353 53.2891 111.829C54.6116 111.119 55.4017 110.547 55.794 110.806C56.1786 111.071 56.6476 111.383 57.2472 111.152C57.8432 110.931 59.2829 110.043 59.2829 110.043C59.2829 110.043 57.2433 111.075 57.0452 111.483C56.8511 111.898 56.7548 113.899 57.0048 114.151C57.1222 113.893 57.4047 112.902 58.0661 112.882C58.7236 112.85 61.0304 113.367 61.3532 112.882C61.6724 112.394 61.1148 112.921 61.8146 112.108C62.5144 111.31 65.6094 110.095 66.3129 109.595C67.1318 107.942 73.7754 101.644 73.4794 97.1615C69.2656 96.3734 69.4194 95.4507 68.9233 94.7201C65.8591 94.0087 61.0494 85.7234 60.6475 85.1584C60.6475 85.6968 72.0874 93.0823 74.8424 93.8975C78.0047 94.8242 81.3322 91.5024 78.8505 87.8498C76.0284 83.6899 70.1057 80.4832 67.0395 79.3799C63.3367 76.5723 62.5698 76.5647 61.4568 75.7726C61.9952 72.1356 58.9559 67.7257 58.9559 67.7257C58.9559 67.7257 57.5334 66.1071 54.4017 66.0916C55.2246 66.7375 58.558 69.3942 57.6889 70.0362C53.9096 63.4351 48.4232 65.6304 48.4232 65.6304C48.4232 65.6304 50.6791 66.0534 51.2903 67.3952C51.9104 68.7409 54.2172 73.8774 56.7182 76.261C57.5159 77.0261 59.1424 78.2411 61.2243 78.9793C66.3377 80.7901 73.664 85.2731 75.2055 87.2762C76.0109 88.3181 76.5281 89.7561 76.503 90.2752C76.4762 90.7905 75.9378 91.2671 75.1765 91.1672C74.2154 91.0442 62.7524 83.6392 62.7524 83.6392C62.7524 83.6392 60.2802 81.8513 55.2627 80.6173C51.9776 76.1707 42.3543 71.6166 40.3167 69.9441Z" stroke="#010202" stroke-miterlimit="10"/>
<path d="M39.7476 49.887C42.5504 50.6215 43.0588 53.5329 43.0962 53.8633C42.7982 53.948 40.1078 53.3788 39.8187 52.338C39.5524 51.3749 41.2259 50.6493 39.7476 49.887Z" fill="#010202"/>
<path d="M58.6688 46.3181C58.6688 46.3181 57.0079 49.2709 57.4713 51.0624C58.1172 53.5954 61.2756 55.5725 61.1066 59.0442" stroke="#010202"/>
<path d="M82.3412 74.5135C82.3412 74.5135 82.2604 73.8118 82.5141 73.4717C82.7602 73.1334 82.8756 72.1971 82.8448 71.907C82.8161 71.6206 82.9814 71.5436 81.3916 71.2611C82.7718 70.7286 85.0673 71.609 85.5323 71.9724C85.9898 72.3223 86.259 74.5925 86.8857 74.9695C86.6012 75.5079 85.4632 75.3405 85.4632 75.3405L82.3412 74.5135Z" fill="#FFD730"/>
<path d="M82.3412 74.5135C82.3412 74.5135 82.2604 73.8118 82.5141 73.4717C82.7602 73.1334 82.8756 72.1971 82.8448 71.907C82.8161 71.6206 82.9814 71.5436 81.3916 71.2611C82.7718 70.7286 85.0673 71.609 85.5323 71.9724C85.9898 72.3223 86.259 74.5925 86.8857 74.9695C86.6012 75.5079 85.4632 75.3405 85.4632 75.3405L82.3412 74.5135Z" stroke="#010202"/>
<path d="M0.432129 0.988281L92.9329 97.0877" stroke="#010202" stroke-miterlimit="7"/>
<path fill-rule="evenodd" clip-rule="evenodd" d="M0.200684 0L49.6136 0.00462412V3.49283e-05H99.8311V72.9394C99.8311 99.276 77.535 120.551 50.0132 120.551C22.5232 120.551 0.200684 99.2761 0.200684 72.9394V0ZM50.3602 0.745146V0.749805L0.947274 0.745181V72.9394C0.947274 98.8341 22.9042 119.806 50.0132 119.806C77.1537 119.806 99.0845 98.8342 99.0845 72.9394V0.745146H50.3602Z" fill="black"/>
</g>
<defs>
<clipPath id="clip0_275_78602">
<rect width="100" height="120.88" fill="white"/>
</clipPath>
</defs>
</svg>
