<svg width="100" height="121" viewBox="0 0 100 121" fill="none" xmlns="http://www.w3.org/2000/svg">
<g clip-path="url(#clip0_275_78447)">
<path d="M49.9867 0.373291H99.4575V73.0843C99.4575 99.2518 77.3441 120.418 50.013 120.418C22.7135 120.418 0.57373 99.2518 0.57373 73.0843V0.373291L49.9867 0.377924V0.373291Z" fill="#FFD72E"/>
<path fill-rule="evenodd" clip-rule="evenodd" d="M0.200684 0L49.6136 0.0046333V3.49977e-05H99.8311V73.0843C99.8311 99.4732 77.535 120.791 50.0132 120.791C22.5232 120.791 0.200684 99.4733 0.200684 73.0843V0ZM50.3602 0.746626V0.751294L0.947274 0.746661V73.0843C0.947274 99.0304 22.9042 120.044 50.0132 120.044C77.1537 120.044 99.0845 99.0305 99.0845 73.0843V0.746626H50.3602Z" fill="black"/>
<path d="M76.1055 49.9473C76.4739 47.4947 76.6844 44.7262 76.4739 42.8578C76.1581 40.1789 75.2633 37.4315 73.9476 36.2999C74.6318 35.3789 78.0002 30.8052 72.6318 28.6157M23.9265 49.9473C23.5212 47.4947 23.3107 44.7262 23.5318 42.8578C23.8528 40.1789 24.7265 37.4315 26.0476 36.2999C25.3844 35.3789 22.0107 30.8052 27.3791 28.6157" stroke="white" stroke-linecap="round" stroke-linejoin="round"/>
<path d="M39.7476 94.842H59.8423" stroke="white"/>
<path d="M25.2793 39.0525L41.7635 50.4104L41.8372 71.8946C41.8372 71.8946 41.6477 74.9999 40.7688 76.842C40.2846 77.842 37.4477 80.2104 36.4582 80.5262M74.474 39.0525L58.0004 50.4104L57.9477 71.8946C57.9477 71.8946 58.1582 74.9999 59.0004 76.842C59.474 77.842 62.3161 80.2104 63.3161 80.5262" stroke="white" stroke-linecap="round"/>
<path d="M27.1366 28.1631C27.1366 28.1631 24.4261 26.9842 20.2261 16.1579C16.0261 5.32629 9.22611 6.43682 9.16295 6.44735C8.95243 6.49471 8.45243 6.53682 8.33137 7.16314C8.22085 7.79471 8.71558 8.0684 8.87348 8.13156C9.03137 8.19998 13.0208 9.23682 14.8419 20.4684C16.8577 32.9316 23.6156 35.9842 25.0314 36.3473C21.5787 29.6684 27.1366 28.1631 27.1366 28.1631Z" fill="black"/>
<path d="M79.7365 16.1579C83.9471 5.32629 90.7365 6.43682 90.7892 6.44735C90.9997 6.49471 91.526 6.53682 91.6313 7.16314C91.7365 7.79471 91.2628 8.0684 91.105 8.13156C90.9471 8.19998 86.9471 9.23682 85.105 20.4684C83.105 32.9316 76.3155 35.9842 74.9471 36.3473C78.3681 29.6684 72.8418 28.1631 72.8418 28.1631" fill="black"/>
<path d="M75.5259 37.8263C75.5259 37.8263 78.1575 42.7789 76.6311 49.9474C76.8417 50.2789 79.7364 52.7895 84.8943 51.1368C90.0522 49.4842 90.3154 43.521 94.789 42.0631C91.9469 37.2947 85.5259 31.2 75.5259 37.8263Z" fill="black"/>
<path d="M93.6843 41.7947C93.6843 41.7947 89.579 39.7473 87.2633 39.7473C84.9475 39.7473 79.8422 42.9263 78.9475 42.8578C78.0001 42.7947 77.0527 42.7947 77.0527 42.7947" stroke="white"/>
<path d="M24.4158 37.6316C24.4158 37.6316 21.8105 42.579 23.3316 49.7474C23.1316 50.079 20.2421 52.5948 15.0789 50.9422C9.91051 49.2843 9.64735 43.3264 5.14209 41.8632C7.98946 37.1001 14.4158 31.0053 24.4158 37.6316Z" fill="black"/>
<path d="M6.27344 41.6C6.27344 41.6 10.3734 39.5474 12.6892 39.5474C15.005 39.5474 20.105 42.7263 21.0366 42.6579C21.9629 42.5947 22.8892 42.5947 22.8892 42.5947" stroke="white"/>
<path d="M39.7528 95.2107H59.8423C59.8423 95.2107 60.2107 98.8423 57.4212 98.8423H41.7633C39.6002 98.8423 39.7528 95.2107 39.7528 95.2107Z" fill="black"/>
<path d="M24.7631 39.4316L41.3631 50.7369L41.421 71.9474C41.421 71.9474 40.9684 74.7369 40.2052 76.8422C39.821 77.8422 36.8789 80.2632 35.8526 80.2632C35.2579 80.2106 33.0316 73.579 31.7737 71.3159C31.1684 70.2106 26.3631 66.2106 29.4 61.8422C20.5737 48.3106 24.7631 39.4316 24.7631 39.4316Z" fill="black"/>
<path d="M75.1051 39.4316L58.4735 50.7369L58.4209 71.9474C58.4209 71.9474 58.8946 74.7369 59.6314 76.8422C60.0525 77.8422 62.9998 80.2632 63.9998 80.2632C64.6314 80.2106 66.842 73.579 68.1051 71.3159C68.6841 70.2106 73.4735 66.2106 70.4735 61.8422C79.263 48.3106 75.1051 39.4316 75.1051 39.4316Z" fill="black"/>
<path d="M31.5366 47.4422C31.5366 49.9791 33.7208 52.037 36.4156 52.037C37.7577 52.037 38.9629 51.5264 39.8471 50.7054L32.0893 45.3159C31.7419 45.9528 31.5366 46.6738 31.5366 47.4422Z" fill="white"/>
<path d="M33.0054 47.4421C33.0054 49.2158 34.5317 50.6579 36.4159 50.6579C37.337 50.6579 38.1685 50.3106 38.7896 49.7527L33.3685 45.9895C33.137 46.4263 33.0054 46.9158 33.0054 47.4421Z" fill="black"/>
<path d="M68.2103 47.4422C68.2103 49.9791 66.0524 52.037 63.3156 52.037C61.9998 52.037 60.7893 51.5264 59.8945 50.7054L67.6314 45.3159C67.9998 45.9528 68.2103 46.6738 68.2103 47.4422Z" fill="white"/>
<path d="M66.7367 47.4421C66.7367 49.2158 65.2104 50.6579 63.3157 50.6579C62.4209 50.6579 61.5788 50.3106 60.9473 49.7527L66.3683 45.9895C66.5788 46.4263 66.7367 46.9158 66.7367 47.4421Z" fill="black"/>
<path d="M65.7897 81.8948C65.5792 81.7896 63.5792 82.0001 60.4739 79.1054C59.7371 78.3685 58.4213 76.7369 58.3686 76.4212C57.7371 74.1054 57.5265 71.5791 57.5792 67.5791C57.6318 62.9475 57.5792 50.2106 57.5792 50.2106L74.895 38.2159C74.895 38.2159 73.6318 35.5264 71.6318 35.4369C70.6318 35.3948 54.9476 35.458 49.9371 35.4843C44.916 35.458 29.2265 35.3948 28.2529 35.4369C26.2371 35.5264 24.9634 38.2159 24.9634 38.2159L42.2792 50.2106C42.2792 50.2106 42.2265 62.9475 42.3002 67.5791C42.3529 71.5791 42.1423 74.1054 41.5213 76.4212C41.4423 76.7369 40.1476 78.3685 39.3792 79.1054C36.3107 82.0001 34.3265 81.7896 34.0897 81.8948C32.8897 82.3159 31.495 83.2633 32.8897 88.6843C34.2792 94.0527 36.6897 94.4738 36.6897 94.4738H63.2107C63.2107 94.4738 65.5792 94.0527 67.0002 88.6843C68.3686 83.2633 67.0002 82.3159 65.7897 81.8948Z" fill="black"/>
<path d="M26.9895 28.1843C25.421 28.7949 24.3421 29.7633 23.9105 30.9633C23.7684 31.3738 23.6895 31.8001 23.6895 32.2527C23.6895 33.4317 24.1105 35.0001 25.1158 36.4212C27.9263 40.4106 31.4105 39.9475 33.0526 39.1949C33.0579 39.2001 33.0579 39.2001 33.0631 39.2001C33.5895 40.2054 34.1 40.8475 35.2579 41.3738C36.0895 41.7422 37.1526 41.437 38.1842 41.1422C38.5421 41.037 39.0579 40.8896 39.2737 40.8843C39.421 40.9633 39.7526 41.2738 39.9842 41.4843C40.5842 42.0475 41.2684 42.6896 42.0789 42.7738C42.721 42.837 43.3842 42.5843 44.0947 42.3212C44.6526 42.1106 45.2737 41.8738 45.6579 41.9106C45.6579 41.9106 45.7368 41.9159 45.7421 41.9159C45.7421 41.9264 45.8 41.9738 45.8 41.9738C46.4 42.4738 47.1158 42.8843 49.9579 42.9106C52.8421 42.8791 53.5263 42.4422 54.0526 41.9212V41.9159L54.1052 41.9106C54.4737 41.8738 55.1052 42.1106 55.6842 42.3212C56.3684 42.5843 57.0526 42.837 57.6842 42.7738C58.4737 42.6896 59.1579 42.0475 59.7895 41.4843C60 41.2738 60.3158 40.9685 60.4737 40.8843C60.6842 40.8896 61.2105 41.037 61.5789 41.1422C62.5789 41.437 63.6842 41.7422 64.4737 41.3738C65.6316 40.8475 66.1579 40.2054 66.6842 39.2001V39.1896C67.6842 39.6106 71.7368 40.4317 74.8421 36.4212C75.7895 35.1896 76.0526 33.4317 76.0526 32.2527C76.0526 31.8106 76 31.3843 75.8421 30.9843C75.3684 29.5422 74.1052 28.7106 72.8947 28.2212" fill="white"/>
<path d="M71.737 28.7843C71.8949 28.3843 71.9475 27.9474 71.9475 27.5001C71.9475 25.158 70.0001 23.2632 67.6317 23.2632C67.0528 23.2632 66.5791 23.3632 66.0528 23.5422C65.5265 21.8474 63.8949 20.6211 61.9475 20.6211C61.0001 20.6211 60.1054 20.9422 59.3686 21.4843C58.5791 20.2843 57.2633 19.479 55.737 19.479C54.7896 19.479 53.9475 19.779 53.2107 20.2895C52.3054 20.9632 50.0212 19.5264 50.0212 19.5264C50.0212 19.5264 47.2001 20.7264 46.0107 20.0369C45.3791 19.6843 44.6633 19.479 43.8896 19.479C42.4001 19.479 41.0896 20.2369 40.3317 21.3843C39.6265 20.879 38.7633 20.5737 37.8212 20.5737C35.9212 20.5737 34.3107 21.8158 33.7686 23.5316C33.2738 23.3264 32.737 23.2158 32.1738 23.2158C29.8212 23.2158 27.9107 25.1158 27.9107 27.458C27.9107 27.9106 27.9791 28.3474 28.1159 28.7527C26.2949 29.2579 22.7317 31.2369 26.0054 35.879C29.2791 40.5264 32.8791 38.1264 32.8791 38.1264C32.8791 38.1264 33.4738 37.8053 33.9317 38.6737C34.3791 39.5422 34.7422 39.9948 35.6633 40.4001C36.5738 40.8158 38.8107 39.6264 39.537 39.8579C40.2686 40.0843 41.3054 41.6369 42.1791 41.7264C43.0475 41.8158 44.5949 40.7685 45.737 40.8579C46.8791 40.9527 45.8686 41.8158 49.9686 41.8632C54.0528 41.8158 52.8949 40.9527 54.0001 40.8579C55.158 40.7685 56.6844 41.8158 57.5791 41.7264C58.4212 41.6369 59.4738 40.0843 60.2107 39.8579C60.9475 39.6264 63.158 40.8158 64.1054 40.4001C65.0001 39.9948 65.3686 39.5422 65.8423 38.6737C66.2633 37.8053 66.8423 38.1264 66.8423 38.1264C66.8423 38.1264 70.6317 40.458 73.8949 35.8106C77.1054 31.258 73.5791 29.3264 71.737 28.7843Z" fill="black"/>
<path d="M43.0685 88.5791C43.4001 89.2633 43.1948 90.0528 42.5948 90.3159L41.6317 90.7896C41.0317 91.1054 40.279 90.7896 39.9475 90.158L38.0159 86.3159C37.679 85.6317 37.8843 84.8423 38.479 84.5265L39.4422 84.0528C40.0369 83.7896 40.7948 84.0528 41.1317 84.737L43.0685 88.5791Z" fill="#12080D"/>
<path d="M56.5788 88.5791C56.263 89.2633 56.4209 90.0528 57.0525 90.3159L57.9998 90.7896C58.5788 91.1054 59.3683 90.7896 59.6841 90.158L61.6314 86.3159C61.9472 85.6317 61.7367 84.8423 61.1577 84.5265L60.1577 84.0528C59.5788 83.7896 58.842 84.0528 58.5262 84.737L56.5788 88.5791Z" fill="#12080D"/>
<path d="M43.0685 88.5789C43.4001 89.2631 43.1948 90.0525 42.5948 90.3157L41.6317 90.7894C41.0317 91.1052 40.279 90.7894 39.9475 90.1578L38.0159 86.3157C37.679 85.6315 37.8843 84.842 38.479 84.5262L39.4422 84.0525C40.0369 83.7894 40.7948 84.0525 41.1317 84.7368L43.0685 88.5789V88.5789ZM56.579 88.5789C56.2633 89.2631 56.4211 90.0525 57.0527 90.3157L58.0001 90.7894C58.579 91.1052 59.3685 90.7894 59.6843 90.1578L61.6317 86.3157C61.9475 85.6315 61.7369 84.842 61.158 84.5262L60.158 84.0525C59.579 83.7894 58.8422 84.0525 58.5264 84.7368L56.579 88.5789Z" stroke="white"/>
<path d="M58.2635 86.5789C59.1582 85.1579 59.4214 85.2105 59.474 85.2105C63.053 87.8947 65.4214 92.1052 65.4214 96.7894C65.4214 104.895 58.4214 111.474 49.8425 111.474C41.2477 111.474 34.2793 104.895 34.2793 96.7894C34.2793 92.1052 36.6056 87.8947 40.2214 85.2105C40.3372 85.1579 40.8582 84.8947 41.4056 86.6316C41.9635 88.3684 41.9477 88.6316 41.9003 88.6842C39.5319 90.6842 38.0319 93.5789 38.0319 96.7894C38.0319 102.842 43.3267 107.737 49.8425 107.737C56.3688 107.737 61.6319 102.842 61.6319 96.7894C61.6319 93.5263 60.1056 90.6316 57.6846 88.5789C57.6846 88.5789 57.2635 88.2105 58.2635 86.5789Z" fill="#E7423F"/>
<path d="M58.2635 86.5789C59.1582 85.1579 59.4214 85.2105 59.474 85.2105C63.053 87.8947 65.4214 92.1052 65.4214 96.7894C65.4214 104.895 58.4214 111.474 49.8425 111.474C41.2477 111.474 34.2793 104.895 34.2793 96.7894C34.2793 92.1052 36.6056 87.8947 40.2214 85.2105C40.3372 85.1579 40.8582 84.8947 41.4056 86.6316C41.9635 88.3684 41.9477 88.6316 41.9003 88.6842C39.5319 90.6842 38.0319 93.5789 38.0319 96.7894C38.0319 102.842 43.3267 107.737 49.8425 107.737C56.3688 107.737 61.6319 102.842 61.6319 96.7894C61.6319 93.5263 60.1056 90.6316 57.6846 88.5789C57.6846 88.5789 57.2635 88.2105 58.2635 86.5789Z" stroke="black"/>
<path d="M54.0525 94.5264C54.263 95.4737 54.4209 96.4737 54.4209 97.5264C54.4209 101.632 52.3262 104.947 49.7367 104.947C47.1473 104.947 45.042 101.632 45.042 97.5264C45.042 96.4737 45.1841 95.4737 45.442 94.579C47.8157 94.579 53.1578 94.5264 54.0525 94.5264Z" fill="#E7423F"/>
</g>
<defs>
<clipPath id="clip0_275_78447">
<rect width="100" height="120.885" fill="white"/>
</clipPath>
</defs>
</svg>
