<svg width="100" height="121" viewBox="0 0 100 121" fill="none" xmlns="http://www.w3.org/2000/svg">
<g clip-path="url(#clip0_275_78562)">
<path d="M49.9096 0.374756H99.5162V73.2105C99.5162 99.3794 77.3181 120.598 49.9451 120.598C22.5669 120.598 0.375977 99.3794 0.375977 73.2105V0.374756H49.9096Z" fill="#009639"/>
<path d="M0.248047 0.247803V60.6011H99.4216V0.247803H0.248047Z" fill="white"/>
<path d="M12.9876 7.21704V8.3176L13.3143 8.33482C13.8755 8.36459 14.0898 8.44161 14.1688 8.48294C14.2985 8.55405 14.4618 8.69159 14.4618 9.16153V17.2618C14.4618 17.7357 14.2849 17.8818 14.1494 17.9529C14.0647 17.9999 13.8458 18.0769 13.316 18.0942L12.9873 18.1067V19.2139H23.2943L24.1056 14.7285H22.9696L22.8812 14.9534C22.4179 16.1595 21.8614 16.9766 21.2492 17.3782C20.6235 17.7837 19.8315 17.9923 18.8973 17.9923C18.2293 17.9923 18.011 17.8991 17.9515 17.8626C17.8718 17.8127 17.8218 17.653 17.8218 17.4215V9.51215C17.8218 8.73661 17.9911 8.57693 18.0246 8.5538C18.1033 8.49426 18.3678 8.36066 19.1962 8.33458L19.5345 8.32498V7.2168L12.9876 7.21704Z" fill="#010202"/>
<path d="M13.4702 7.69946V7.86087C13.9074 7.89359 14.2179 7.95879 14.4035 8.06361C14.7676 8.2538 14.9504 8.62582 14.9504 9.16416V17.2634C14.9504 17.8065 14.7583 18.1871 14.3757 18.3812C14.1835 18.488 13.874 18.5407 13.4702 18.5667V18.7301H22.891C22.9304 18.5254 23.4754 15.4998 23.5283 15.2144H23.2948C22.797 16.4687 22.2001 17.3385 21.5129 17.7853C20.8085 18.2417 19.9308 18.4755 18.8977 18.4755C18.3047 18.4755 17.9106 18.409 17.6963 18.2737C17.4628 18.1256 17.3378 17.8382 17.3378 17.4212V9.51207C17.3378 8.79977 17.4704 8.35689 17.7337 8.15981C17.9682 7.98684 18.4073 7.88793 19.0466 7.85718V7.69946H13.4702Z" fill="#FFD730"/>
<path d="M24.1155 7.21704V8.32129L24.4462 8.33482C25.0325 8.36065 25.2593 8.43767 25.3437 8.48294C25.4697 8.54937 25.6387 8.68765 25.6387 9.16448V17.2694C25.6387 17.7463 25.4552 17.8931 25.3196 17.9643C25.235 18.0076 25.0025 18.0863 24.4535 18.0959L24.1152 18.1045V19.2137H30.6595V18.0959H30.3096C29.7405 18.0959 29.4514 17.996 29.3139 17.9094C29.1601 17.8181 29.0831 17.6038 29.0831 17.2692V9.16128C29.0831 8.68371 29.2581 8.54322 29.3897 8.4731C29.4704 8.43176 29.7049 8.35672 30.3249 8.33285L30.6593 8.31932V7.21704H24.1155Z" fill="#010202"/>
<path d="M24.5977 7.69947V7.8589C25.0484 7.88769 25.3685 7.9492 25.5673 8.05303C25.9354 8.24421 26.1209 8.61819 26.1209 9.16121V17.2671C26.1209 17.8141 25.9239 18.1947 25.5376 18.3925C25.3329 18.4934 25.0167 18.5463 24.5947 18.5665V18.7279H30.1711V18.5702C29.6876 18.5576 29.3175 18.4799 29.059 18.3222C28.7543 18.1386 28.6025 17.7831 28.6025 17.2669V9.16097C28.6025 8.61032 28.79 8.23437 29.1677 8.04122C29.3648 7.9433 29.6955 7.88745 30.1711 7.85669V7.69897H24.5977V7.69947Z" fill="#FFD730"/>
<path d="M30.6406 7.21704V8.3176L30.9674 8.33482C31.52 8.36656 31.7333 8.4416 31.8054 8.48466C31.8785 8.52599 32.0871 8.63844 32.0871 9.16424V17.2692C32.0871 17.7401 31.9141 17.8853 31.7845 17.9583C31.6998 18.0036 31.4895 18.0804 30.9772 18.0959L30.6428 18.1084V19.2166H36.3548C37.8386 19.2166 39.0497 18.9071 39.9571 18.293C40.9056 17.6547 41.392 16.8012 41.392 15.7575C41.392 14.6436 40.8844 13.764 39.888 13.1433C39.6264 12.9846 39.3393 12.8502 39.0344 12.7385C39.3486 12.5943 39.6525 12.4098 39.9418 12.1753C40.5301 11.7044 40.8251 11.0595 40.8251 10.2579C40.8251 8.96715 40.1227 8.06368 38.7328 7.58316C38.0436 7.34105 37.1682 7.21901 36.1464 7.21901H30.6411V7.21704H30.6406ZM35.4316 8.87218C35.4316 8.65394 35.471 8.53584 35.5162 8.50213C35.5354 8.48663 35.6422 8.40987 36.0238 8.40987C36.5573 8.40987 36.9005 8.56364 37.0656 8.87981C37.2703 9.26437 37.3761 9.75056 37.3761 10.3253C37.3761 11.0866 37.2349 11.6084 36.9494 11.8747C36.7679 12.0439 36.3602 12.2418 35.4318 12.2801L35.4316 8.87218ZM35.5162 17.8009L35.5123 17.7933C35.4921 17.7559 35.4392 17.6318 35.4316 17.3184V13.4865C36.1082 13.4981 36.6165 13.5884 36.9347 13.7699C37.5276 14.1006 37.815 14.7809 37.815 15.8441C37.815 16.5611 37.6814 17.1117 37.4076 17.4818C37.1539 17.8181 36.681 17.9921 36.0081 17.9921C35.622 17.9901 35.545 17.8479 35.5162 17.8009Z" fill="#010202"/>
<path d="M31.1248 7.69948V7.86088C31.5553 7.89361 31.859 7.95881 32.0435 8.06362C32.398 8.25381 32.5713 8.62583 32.5713 9.16418V17.2691C32.5713 17.8102 32.3818 18.1869 32.01 18.3812C31.8216 18.4861 31.5179 18.5407 31.1267 18.5648V18.7301H36.3542C37.7421 18.7301 38.8599 18.4467 39.6864 17.8892C40.5052 17.3385 40.905 16.6378 40.905 15.7555C40.905 14.8087 40.4897 14.0851 39.6335 13.5526C39.1903 13.2798 38.6608 13.0827 38.061 12.9663L37.9485 12.9432V12.5606L38.061 12.5374C38.6262 12.4326 39.1529 12.1829 39.6371 11.7937C40.11 11.413 40.3396 10.9074 40.3396 10.2539C40.3396 9.17353 39.7629 8.44499 38.576 8.03188C37.9387 7.81093 37.1159 7.69751 36.1473 7.69751H31.1245L31.1248 7.69948ZM34.951 8.87213C34.951 8.52619 35.0317 8.27621 35.2047 8.13399C35.3661 7.99276 35.6362 7.92535 36.0235 7.92535C36.7424 7.92535 37.2345 8.17139 37.4921 8.65388C37.7382 9.1066 37.8583 9.67177 37.8583 10.3272C37.8583 11.2243 37.6651 11.866 37.2815 12.2301C36.8933 12.5962 36.1733 12.7741 35.0863 12.7741H34.9507L34.951 8.87213ZM34.951 17.3279V13.0039L35.0807 13.002C36.0331 12.9779 36.7146 13.0903 37.1691 13.3489C37.9188 13.7659 38.2994 14.6042 38.2994 15.844C38.2994 16.6668 38.1301 17.3146 37.7948 17.7691C37.441 18.238 36.8463 18.4735 36.008 18.4735C35.5612 18.4735 35.2573 18.3283 35.0969 18.0429C35.0039 17.8835 34.953 17.6507 34.951 17.3279Z" fill="#FFD730"/>
<path d="M41.769 7.21704V8.3176L42.0958 8.33482C42.661 8.36656 42.8792 8.44333 42.9579 8.48663C43.0925 8.55774 43.2615 8.69528 43.2615 9.16424V17.2692C43.2615 17.7295 43.0962 17.8737 42.9702 17.9448C42.8846 17.9957 42.6587 18.0784 42.1051 18.0956L41.7708 18.1082V19.2164H52.1787L53.0015 15.0508H51.8962L51.8079 15.2516C51.3119 16.3165 50.7506 17.049 50.1385 17.4247C49.5204 17.8024 48.7016 17.9955 47.7022 17.9955C47.013 17.9955 46.8218 17.8907 46.7746 17.8619C46.6668 17.7888 46.6486 17.5563 46.6486 17.4247V13.7301C47.31 13.7694 47.7789 13.9166 48.0326 14.1848C48.3517 14.5155 48.566 15.1276 48.6708 15.9974L48.7122 16.2993H49.7886V9.97421H48.7294L48.6785 10.252C48.4681 11.343 48.1864 11.8225 47.9893 12.0309C47.7624 12.2673 47.2964 12.399 46.6466 12.4268V8.915C46.6466 8.66698 46.6956 8.57472 46.7158 8.55749C46.7234 8.55749 46.857 8.47015 47.4817 8.47015C48.735 8.47015 49.5989 8.64607 50.042 8.99004C50.4775 9.33327 50.7984 10.0099 50.9905 10.9958L51.0444 11.2736H52.1017V7.2168L41.769 7.21704Z" fill="#010202"/>
<path d="M42.2534 7.69946V7.86087C42.6926 7.89359 42.9992 7.95879 43.1886 8.06361C43.5587 8.2538 43.7452 8.62385 43.7452 9.16416V17.2691C43.7452 17.8006 43.5646 18.1667 43.2078 18.3657C43.0031 18.4838 42.6801 18.5426 42.2554 18.5665V18.7318H51.783C51.8233 18.5328 52.3597 15.8226 52.4173 15.5352H52.202C51.6791 16.6414 51.0716 17.4189 50.395 17.8362C49.6982 18.2612 48.7928 18.4755 47.7038 18.4755C47.1032 18.4755 46.708 18.4053 46.5014 18.2592C46.2785 18.1044 46.1707 17.82 46.1707 17.4231V13.2308H46.3043C47.2961 13.2308 47.9909 13.4394 48.389 13.8565C48.761 14.2524 49.0051 14.8992 49.1348 15.8209H49.3117V10.4588H49.1311C48.9456 11.3699 48.688 12.0023 48.344 12.3647C47.9739 12.7539 47.3099 12.9375 46.3065 12.9232H46.1729V8.91541C46.1729 8.55397 46.2575 8.3099 46.4305 8.17531C46.5998 8.04565 46.9342 7.98684 47.4878 7.98684C48.8757 7.98684 49.8099 8.18958 50.347 8.6086C50.8564 9.01039 51.2198 9.74852 51.4486 10.7893H51.6216V7.69922L42.2534 7.69946Z" fill="#FFD730"/>
<path d="M52.9575 7.21704V8.308L53.2727 8.33482C53.9744 8.39436 54.1435 8.5041 54.1686 8.52797C54.2397 8.58086 54.405 8.7932 54.405 9.51411V16.9196C54.405 17.6375 54.2569 17.8306 54.2089 17.8678C54.1319 17.9409 53.9053 18.0659 53.2862 18.0956L52.9556 18.1119V19.2161H59.2528V18.106L58.9184 18.0934C58.265 18.0703 58.0612 17.9224 58.0034 17.8636C57.9419 17.8021 57.8053 17.5858 57.8053 16.9159V14.6631C58.6722 15.8242 61.2057 19.2129 61.2057 19.2129H65.2231V18.151L64.8963 18.1252C64.7829 18.1156 64.685 18.0993 64.6176 18.0742C64.5984 18.0637 64.5504 18.0368 64.4773 17.9387C64.4734 17.932 62.0516 14.6901 61.2057 13.5588C61.665 13.4107 62.1207 13.2099 62.5397 12.9034C63.3317 12.3084 63.7353 11.4916 63.7353 10.4737C63.7353 9.08476 62.9816 8.11609 61.4958 7.58832C60.7712 7.34031 59.8177 7.21827 58.6739 7.21827H52.9575V7.21704ZM57.809 8.84339C57.809 8.74621 57.8263 8.61457 57.8897 8.56167C57.8937 8.55774 58.0108 8.47039 58.5568 8.47039C59.2489 8.47039 59.6927 8.7125 59.9484 9.23436C60.1002 9.55914 60.1809 10.0254 60.1809 10.6203C60.1809 11.5314 59.9924 12.1303 59.6369 12.3503C59.2698 12.5751 58.6488 12.7068 57.8088 12.7461L57.809 8.84339Z" fill="#010202"/>
<path d="M53.4414 7.69946V7.86677C53.9623 7.91967 54.3045 8.01194 54.4736 8.15022C54.7523 8.37412 54.885 8.82118 54.885 9.51207V16.9165C54.885 17.5845 54.7735 18.0112 54.539 18.2274C54.3237 18.4186 53.9586 18.5274 53.4395 18.5667V18.7301H58.7717V18.5687C58.2258 18.5313 57.853 18.4149 57.649 18.1987C57.4298 17.9642 57.3223 17.5452 57.3223 16.9165V8.84308C57.3223 8.54708 57.4106 8.32515 57.5875 8.18565C57.7529 8.05106 58.0565 7.9866 58.5525 7.9866C59.4252 7.9866 60.0403 8.3345 60.3786 9.01974C60.5651 9.4139 60.6611 9.95495 60.6611 10.62C60.6611 11.7398 60.4074 12.4402 59.8865 12.7633C59.3868 13.0709 58.5968 13.2286 57.4665 13.2458H57.3415C57.3742 13.2871 57.5875 13.559 57.5875 13.559C57.5875 13.559 61.3665 18.6174 61.4475 18.7279H64.7383V18.5798C64.6305 18.5663 64.525 18.552 64.4403 18.5212C64.3117 18.4732 64.1867 18.3674 64.0809 18.2156L60.3941 13.2775L60.6134 13.2362C61.1862 13.1294 61.7398 12.8873 62.255 12.5116C62.924 12.0119 63.2507 11.3429 63.2507 10.4721C63.2507 9.29383 62.626 8.50181 61.3362 8.04343C60.6636 7.81756 59.7716 7.69946 58.6758 7.69946H53.4414Z" fill="#FFD730"/>
<path d="M64.6139 7.21707L64.5947 11.2738H65.7366L65.773 10.9587C65.8614 9.87656 66.2479 9.16623 66.9457 8.7856C67.2687 8.61263 67.7318 8.5088 68.3181 8.46452V16.9147C68.3181 17.6075 68.1643 17.8267 68.0952 17.8853C68.0337 17.9488 67.7916 18.0996 67.0188 18.0996H66.6728V19.2134H73.3352V18.0996H72.9893C72.1936 18.0996 71.9551 17.9544 71.884 17.8892C71.8225 17.8307 71.6687 17.6144 71.6687 16.9147V8.46082C72.2666 8.50216 72.7299 8.60697 73.0412 8.77797C73.6774 9.14802 74.0773 9.88419 74.2234 10.9732L74.2618 11.2702H75.3958L75.3727 7.21338H64.6139V7.21707Z" fill="#010202"/>
<path d="M65.0941 7.69946C65.0941 7.94157 65.0825 10.5452 65.0825 10.7913H65.3035C65.4341 9.62451 65.9014 8.79977 66.7126 8.35862C67.1643 8.11454 67.8217 7.98094 68.6521 7.95683L68.7943 7.95289V16.9123C68.7943 17.5698 68.6713 18.005 68.4253 18.2398C68.1984 18.4521 67.7718 18.5608 67.1527 18.5741V18.7299H72.8464V18.5741C72.2102 18.5626 71.7776 18.4541 71.5471 18.2415C71.3067 18.009 71.1896 17.5764 71.1896 16.9123V7.95289L71.3318 7.95683C72.1853 7.98094 72.8349 8.11454 73.2733 8.35862C74.027 8.79313 74.4959 9.61565 74.6728 10.7913H74.8997C74.8997 10.5452 74.8881 7.94157 74.8881 7.69946H65.0941Z" fill="#FFD730"/>
<path d="M82.2768 3.19197C82.1482 3.28424 82.0269 3.39668 81.923 3.53028L79.3164 6.73279H81.0272L83.3493 5.196C83.5838 5.04222 83.7647 4.8941 83.8914 4.74524C84.0567 4.55973 84.1414 4.31565 84.1414 4.01671C84.1414 3.71973 84.0375 3.46311 83.8414 3.25446C83.6377 3.0441 83.3666 2.93436 83.0438 2.93436C82.7726 2.93239 82.5153 3.02269 82.2768 3.19197ZM75.5894 7.217V8.31756L75.9161 8.33478C76.4813 8.36652 76.6946 8.44329 76.7753 8.48659C76.9118 8.5577 77.0772 8.69524 77.0772 9.1642V17.2691C77.0772 17.7295 76.9158 17.8737 76.7908 17.9448C76.7025 17.9957 76.4793 18.0784 75.922 18.0956L75.5913 18.1082V19.2163H85.9983L86.821 15.0508H85.7178L85.6255 15.2516C85.1295 16.3165 84.5682 17.0489 83.959 17.4246C83.3383 17.8023 82.5231 17.9955 81.5237 17.9955C80.8335 17.9955 80.6433 17.8907 80.5991 17.8619C80.4856 17.7888 80.4704 17.5563 80.4704 17.4246V13.73C81.1278 13.7694 81.6007 13.9165 81.8544 14.1847C82.1735 14.5154 82.3812 15.1276 82.4946 15.9973L82.5273 16.2992H83.6077V9.97417H82.5465L82.4946 10.252C82.2889 11.3429 82.0121 11.8225 81.8103 12.0309C81.5795 12.2673 81.1126 12.3989 80.4667 12.4267V8.91496C80.4667 8.66694 80.5206 8.57468 80.5398 8.55745C80.5398 8.55745 80.682 8.47011 81.3047 8.47011C82.5561 8.47011 83.4192 8.64603 83.8594 8.99C84.2939 9.33323 84.6167 10.0099 84.8148 10.9958L84.8647 11.2735H85.9259V7.21676L75.5894 7.217Z" fill="#010202"/>
<path d="M82.556 3.58776C82.4638 3.65025 82.3735 3.73293 82.3024 3.83085C82.3024 3.83085 80.8529 5.61074 80.334 6.24996H80.882C80.9435 6.20296 83.0772 4.7919 83.0772 4.7919C83.2772 4.66223 83.427 4.54192 83.5309 4.42579C83.6079 4.32958 83.6539 4.1913 83.6539 4.0144C83.6539 3.8434 83.6 3.70291 83.4925 3.58776C83.3847 3.47138 83.2349 3.41577 83.0427 3.41577C82.8749 3.41577 82.7174 3.47138 82.556 3.58776ZM76.0703 7.6994V7.86081C76.5144 7.89353 76.8239 7.95873 77.0141 8.06355C77.3716 8.25202 77.5658 8.62207 77.5658 9.16115V17.2671C77.5658 17.7985 77.3852 18.1646 77.0257 18.3637C76.8239 18.4818 76.5009 18.5406 76.0723 18.5645V18.7298H85.6065C85.6449 18.5308 86.1756 15.8206 86.2332 15.5332H86.0218C85.499 16.6394 84.8915 17.4169 84.2149 17.8342C83.5151 18.2591 82.6116 18.4734 81.5236 18.4734C80.9201 18.4734 80.5279 18.4033 80.3165 18.2572C80.0993 18.1014 79.9898 17.818 79.9898 17.4216V13.2292H80.1283C81.1125 13.2292 81.8123 13.4379 82.2081 13.8549C82.5848 14.2508 82.8252 14.8977 82.9559 15.8194H83.1251V10.4593H82.9522C82.762 11.3704 82.5044 12.0027 82.1641 12.3651C81.7931 12.7544 81.1319 12.9379 80.1323 12.9237H79.9937V8.91585C79.9937 8.55441 80.0784 8.31033 80.2513 8.17575C80.4167 8.04608 80.755 7.98727 81.3125 7.98727C82.6926 7.98727 83.6268 8.19002 84.1689 8.60903C84.6764 9.01082 85.0492 9.74895 85.2608 10.7897H85.4493V7.69965H76.0703V7.6994Z" fill="#FFD730"/>
<path d="M38.833 22.3296V23.4301L39.1561 23.4484C39.7242 23.4821 39.9432 23.5578 40.0202 23.5982C40.1498 23.6683 40.3267 23.8105 40.3267 24.2768V32.381C40.3267 32.8413 40.1575 32.9885 40.0354 33.0576C39.9471 33.1066 39.7202 33.1892 39.1676 33.2094L38.8333 33.221V34.3272H49.2392L50.062 30.1646H48.9622L48.8689 30.3647C48.3729 31.4315 47.8126 32.162 47.2005 32.5387C46.5824 32.9164 45.7636 33.1049 44.7669 33.1049C44.074 33.1049 43.8836 33.0069 43.8366 32.9769C43.7281 32.8999 43.7106 32.6703 43.7106 32.5358V28.8478C44.372 28.8881 44.8436 29.0363 45.0975 29.3042C45.409 29.6369 45.629 30.2471 45.7318 31.1168L45.7712 31.4195H46.8516V25.0878H45.7943L45.7414 25.3712C45.5311 26.4612 45.2533 26.9397 45.0523 27.1484C44.8303 27.3848 44.3594 27.5184 43.7106 27.5462V24.0305C43.7106 23.7805 43.7635 23.6865 43.7827 23.67C43.7866 23.6661 43.9249 23.5834 44.5449 23.5834C45.8029 23.5834 46.6594 23.7584 47.1053 24.1033C47.5444 24.4473 47.8636 25.1232 48.0587 26.1091L48.1076 26.3869H49.1649V22.3291H38.833V22.3296Z" fill="#010202"/>
<path d="M39.3164 22.814V22.9754C39.7556 23.0071 40.0632 23.0726 40.2553 23.1762C40.6214 23.3656 40.805 23.7394 40.805 24.2767V32.3809C40.805 32.9143 40.6271 33.2805 40.2716 33.4825C40.0708 33.5929 39.7438 33.6584 39.3191 33.6815V33.8449H48.8457C48.887 33.6478 49.4224 30.9357 49.4753 30.6463H49.2686C48.7409 31.7545 48.1356 32.532 47.4541 32.9478C46.7612 33.3727 45.8577 33.587 44.7707 33.587C44.1672 33.587 43.775 33.5159 43.5646 33.3708C43.3464 33.215 43.2339 32.9353 43.2339 32.5337V28.3414H43.3752C44.3593 28.3414 45.0561 28.5517 45.452 28.969C45.8277 29.3612 46.0701 30.0108 46.2017 30.9317H46.371V25.5704H46.1904C46.0098 26.4855 45.7512 27.1148 45.407 27.4773C45.0369 27.8655 44.3775 28.05 43.3695 28.0385L43.2359 28.0365V24.0307C43.2359 23.6665 43.3205 23.4222 43.4974 23.2869C43.6628 23.1609 43.9981 23.0974 44.5508 23.0974C45.9387 23.0974 46.8737 23.3021 47.4071 23.7231C47.9223 24.1229 48.2864 24.8611 48.5076 25.9011H48.6882V22.812H39.3164V22.814Z" fill="#FFD730"/>
<path d="M50.1779 22.3296L50.1587 26.3874H51.3006L51.3313 26.0746C51.4256 24.9896 51.8082 24.2792 52.5096 23.8996C52.8288 23.7286 53.2921 23.6198 53.8821 23.5805V32.0287C53.8821 32.7215 53.7244 32.9378 53.6592 32.9993C53.59 33.0657 53.3477 33.2116 52.5788 33.2116H52.2348V34.3255H58.8952V33.2116H58.553C57.7573 33.2116 57.5149 33.0655 57.4418 33.005C57.386 32.9434 57.2322 32.7272 57.2322 32.0284V23.5783C57.8301 23.6196 58.2934 23.7254 58.597 23.8974C59.2372 24.2655 59.6407 25.0016 59.7869 26.0877L59.8253 26.3876H60.9556L60.9364 22.3298H50.1779V22.3296Z" fill="#010202"/>
<path d="M50.6586 22.814C50.6586 23.0524 50.647 25.659 50.6431 25.9031H50.864C50.9947 24.7353 51.4656 23.9106 52.2711 23.4734C52.7285 23.2273 53.3823 23.0917 54.2164 23.0726L54.3586 23.0659V32.0264C54.3586 32.6838 54.2356 33.1173 53.9895 33.3488C53.7587 33.5651 53.3321 33.6736 52.713 33.6901V33.8429H58.4067V33.6899C57.7744 33.6736 57.3419 33.5649 57.1111 33.3545C56.8707 33.123 56.7459 32.6894 56.7459 32.0264V23.0659L56.8882 23.0726C57.7454 23.0917 58.3991 23.2273 58.8373 23.4734C59.591 23.903 60.056 24.7277 60.2368 25.9031H60.4637C60.4637 25.659 60.4521 23.0524 60.4521 22.814H50.6586Z" fill="#FFD730"/>
<path d="M19.4873 37.4468V38.5232L19.7939 38.5589C20.41 38.628 20.6309 38.7484 20.706 38.8126C20.7271 38.8288 20.8733 38.9826 20.8733 39.7404V47.1458C20.8733 47.8225 20.7473 48.0252 20.6917 48.084C20.6331 48.1416 20.4321 48.2811 19.8084 48.3261L19.4873 48.3502V49.4429H25.7267V48.3387L25.3941 48.3261C24.778 48.303 24.5511 48.1775 24.4724 48.1042C24.4271 48.0589 24.2763 47.8621 24.2763 47.1478V44.3643C25.1047 44.3604 25.7641 44.3365 26.2188 44.2952C26.7542 44.2499 27.2992 44.1106 27.8326 43.8954C28.5757 43.5723 29.1148 43.1341 29.4435 42.593C29.7665 42.0557 29.9279 41.4792 29.9279 40.8658C29.9279 39.6164 29.5003 38.7169 28.6497 38.1911C27.8567 37.695 26.6976 37.449 25.2157 37.449H19.4876L19.4873 37.4468ZM24.2766 38.9356C24.2766 38.85 24.2901 38.7858 24.314 38.7742C24.3573 38.7501 24.4928 38.6972 24.8626 38.6972C25.4566 38.6972 25.8372 38.8701 26.0343 39.224C26.2582 39.644 26.3746 40.2081 26.3746 40.9079C26.3746 41.8997 26.1622 42.5369 25.7422 42.8071C25.5712 42.9149 25.182 43.0455 24.2785 43.0888V38.9356H24.2766Z" fill="#010202"/>
<path d="M19.9722 37.9292V38.0985C20.4798 38.1639 20.8267 38.2754 21.0245 38.4493C21.2494 38.6454 21.3552 39.0674 21.3552 39.7401V47.1455C21.3552 47.7788 21.2533 48.1979 21.039 48.421C20.8382 48.6218 20.4894 48.7441 19.9722 48.7911V48.9564H25.241V48.7987C24.7191 48.7593 24.3557 48.6525 24.1404 48.4528C23.9106 48.2298 23.7925 47.8069 23.7925 47.1455V43.8854H23.9337C24.9199 43.8854 25.6742 43.8623 26.174 43.8163C26.6641 43.7759 27.1601 43.651 27.6542 43.4472C28.2885 43.1694 28.7527 42.7937 29.0266 42.342C29.3054 41.8856 29.4436 41.3896 29.4436 40.8657C29.4436 39.7777 29.1043 39.0396 28.394 38.6024C27.6761 38.1556 26.6045 37.9297 25.2156 37.9297H19.9722V37.9292ZM23.7927 38.9355C23.7927 38.6491 23.8907 38.455 24.0821 38.3502C24.2494 38.2579 24.505 38.2126 24.8616 38.2126C25.6391 38.2126 26.1725 38.4779 26.4559 38.9921C26.7251 39.4803 26.8577 40.1251 26.8577 40.9076C26.8577 42.0723 26.5703 42.8481 25.9975 43.2142C25.641 43.4401 24.9654 43.5641 23.932 43.5843H23.7908V38.9355H23.7927Z" fill="#FFD730"/>
<path d="M33.9666 37.2007L30.1797 46.5821C29.8289 47.4499 29.6423 47.7845 29.5454 47.9162C29.3569 48.1747 29.1301 48.3044 28.8255 48.3236L28.5044 48.3477V49.4404H32.6045V48.3295L32.2662 48.3256C31.8346 48.3216 31.6164 48.2766 31.5079 48.2409C31.2657 48.1602 31.2657 48.0795 31.2657 48.0488C31.2657 47.9604 31.2936 47.7336 31.4724 47.2184C31.4685 47.2223 31.7261 46.5206 31.8607 46.1535H35.1476C35.2554 46.4187 35.4783 46.9522 35.4783 46.9522L35.6886 47.5048C35.7885 47.8123 35.8011 47.9479 35.8011 47.9892C35.8011 48.143 35.7693 48.1996 35.7617 48.2085C35.6963 48.2353 35.4839 48.2968 34.8044 48.3239L34.47 48.3364V49.4406H40.5758V48.3143L40.2173 48.3258C39.9521 48.3344 39.7646 48.2451 39.629 48.053C39.4954 47.8761 39.2332 47.4071 38.7256 46.2106L34.9089 37.2031H33.9661V37.2007H33.9666ZM33.4553 42.0409C33.7734 42.8068 34.3538 44.2063 34.5999 44.8049H32.3779C32.6047 44.2139 33.1497 42.8147 33.4553 42.0409Z" fill="#010202"/>
<path d="M34.2955 37.687C34.2263 37.8563 30.6289 46.7628 30.6289 46.7628C30.3253 47.5086 30.0955 47.9778 29.9321 48.1997C29.69 48.5351 29.3709 48.7236 28.9854 48.7811V48.9541H32.1224V48.7964C31.7994 48.7848 31.5381 48.757 31.3602 48.7002C30.8843 48.5388 30.7798 48.2534 30.7798 48.0467C30.7798 47.8314 30.8568 47.5133 31.0105 47.0625C31.0105 47.0586 31.5181 45.663 31.5181 45.663H31.6153H35.4674L35.9277 46.7663L36.146 47.3477C36.2382 47.6331 36.2796 47.8437 36.2796 47.9886C36.2796 48.3395 36.1681 48.5654 35.9413 48.6586C35.7683 48.7268 35.4416 48.774 34.9532 48.7998V48.9536H40.0883V48.7959C39.7259 48.7718 39.4385 48.619 39.2301 48.3356C39.0198 48.0406 38.7024 47.4043 38.2777 46.3989C38.2777 46.3989 34.9455 38.5255 34.587 37.6865H34.2955V37.687ZM33.2941 41.1277H33.5967L35.3266 45.2863H31.6677L33.2941 41.1277Z" fill="#FFD730"/>
<path d="M39.4904 37.4468L39.4702 41.4999H40.6158L40.6436 41.1884C40.7398 40.1043 41.1194 39.394 41.8249 39.0133C42.143 38.8404 42.6043 38.7365 43.1887 38.6913V47.1414C43.1887 47.8335 43.0388 48.0525 42.9783 48.113C42.9092 48.1746 42.6631 48.3273 41.8933 48.3273H41.5434V49.4385H48.2097V48.3273H47.8638C47.0727 48.3273 46.8306 48.1785 46.7595 48.117C46.698 48.0604 46.5492 47.8402 46.5492 47.1414V38.6913C47.1451 38.7316 47.6064 38.8401 47.9169 39.0094C48.5588 39.3755 48.954 40.1137 49.0982 41.2046L49.1375 41.4996H50.2669L50.2477 37.4465L39.4904 37.4468Z" fill="#010202"/>
<path d="M39.9701 37.9292C39.9701 38.1713 39.9585 40.7732 39.9585 41.0153H40.1814C40.3111 39.8506 40.7813 39.0278 41.5885 38.5906C42.0413 38.3445 42.6967 38.207 43.5328 38.1868L43.6713 38.1829V47.1413C43.6713 47.7988 43.5512 48.2293 43.3013 48.4638C43.0744 48.6781 42.6515 48.7869 42.0258 48.8021V48.9559H47.7232V48.8061C47.0859 48.7906 46.6543 48.6821 46.4285 48.4678C46.1824 48.237 46.0661 47.8027 46.0661 47.1413V38.1829L46.2036 38.1868C47.0618 38.207 47.7155 38.3445 48.1488 38.5906C48.9061 39.0221 49.3714 39.8449 49.552 41.0153H49.7789C49.7739 40.7732 49.7626 38.1713 49.7626 37.9292H39.9701Z" fill="#FFD730"/>
<path d="M50.4971 37.4468V38.5318L50.8123 38.5587C51.514 38.6202 51.6791 38.7316 51.7081 38.7518C51.7792 38.8084 51.9406 39.022 51.9406 39.7399V47.1453C51.9406 47.8672 51.7964 48.0565 51.7485 48.0978C51.6677 48.1709 51.4409 48.2949 50.8218 48.3237L50.4971 48.3399V49.4404H56.7943V48.3362L56.458 48.3237C55.8006 48.2968 55.5968 48.1507 55.5429 48.0938C55.4834 48.0284 55.3468 47.8161 55.3468 47.1453V44.8916C56.2119 46.0564 58.7455 49.4404 58.7455 49.4404H62.7592V48.3756L62.4361 48.3554C62.3207 48.3478 62.2265 48.3276 62.1554 48.3025C62.1323 48.2949 62.0823 48.2668 62.0169 48.1689C62.0092 48.1603 59.5891 44.9204 58.7413 43.7854C59.2026 43.6392 59.6563 43.4384 60.081 43.1319C60.871 42.5389 61.2748 41.7247 61.2748 40.7022C61.2748 39.3152 60.5212 38.3466 59.0373 37.8151C58.3068 37.5691 57.3573 37.449 56.2117 37.449H50.4971V37.4468ZM55.3486 39.0751C55.3486 38.9742 55.3621 38.8482 55.4256 38.7897C55.4295 38.7858 55.5506 38.6974 56.0926 38.6974C56.7884 38.6974 57.2286 38.9395 57.4823 39.4624C57.64 39.7891 57.7167 40.2544 57.7167 40.8464C57.7167 41.7614 57.5283 42.362 57.1767 42.5802C56.8056 42.8071 56.1886 42.9348 55.3486 42.9724V39.0751Z" fill="#010202"/>
<path d="M50.9776 37.9292V38.0945C51.4965 38.1474 51.8407 38.2397 52.0097 38.3765C52.2922 38.6024 52.425 39.0492 52.425 39.7403V47.1458C52.425 47.8148 52.3096 48.2414 52.0752 48.4567C51.8638 48.6452 51.4984 48.7556 50.9756 48.795V48.9564H56.3079V48.7987C55.7658 48.7593 55.3928 48.641 55.1891 48.4267C54.9662 48.1959 54.8623 47.7769 54.8623 47.1475V39.077C54.8623 38.7781 54.947 38.5492 55.12 38.4156C55.2892 38.282 55.5968 38.2149 56.0889 38.2149C56.9655 38.2149 57.5806 38.5647 57.915 39.2519C58.1052 39.6478 58.2014 40.1832 58.2014 40.8483C58.2014 41.971 57.9477 42.6754 57.4269 42.9935C56.9272 43.2971 56.1371 43.4588 55.0028 43.4741C55.0028 43.4741 54.9066 43.4741 54.8778 43.4741C54.9066 43.5154 55.12 43.7892 55.12 43.7892C55.12 43.7892 58.9068 48.8477 58.9875 48.9562H62.2744V48.812C62.1667 48.7965 62.0611 48.7812 61.9804 48.7515C61.8517 48.6986 61.7267 48.5977 61.6209 48.4439L57.9263 43.5075L58.1493 43.4662C58.722 43.3614 59.2796 43.1202 59.7948 42.7396C60.4638 42.2399 60.7866 41.5748 60.7866 40.7021C60.7866 39.5218 60.1619 38.7298 58.8758 38.2734C58.2031 38.0475 57.3073 37.9312 56.2117 37.9312H50.9776V37.9292Z" fill="#FFD730"/>
<path d="M62.5649 37.4468V38.5473L62.8917 38.5589C63.478 38.5906 63.7068 38.6674 63.7912 38.705C63.9162 38.7742 64.0816 38.9154 64.0816 39.3893V47.4935C64.0816 47.9703 63.901 48.1192 63.7683 48.1903C63.68 48.2316 63.4453 48.3143 62.9052 48.3239L62.5649 48.3325V49.4407H69.1043V48.3259H68.7564C68.1836 48.3259 67.8992 48.222 67.7567 48.1374C67.6069 48.0491 67.5299 47.8338 67.5299 47.4955V39.3922C67.5299 38.9154 67.7087 38.7695 67.8335 38.7031C67.9181 38.6637 68.1526 38.5906 68.7734 38.5609L69.1041 38.5493V37.4487H62.5649V37.4468Z" fill="#010202"/>
<path d="M63.0491 37.9292V38.0906C63.4969 38.1147 63.8199 38.1789 64.0141 38.2801C64.3812 38.4722 64.5696 38.8482 64.5696 39.3892V47.4934C64.5696 48.0431 64.3735 48.4247 63.9892 48.6198C63.7835 48.7197 63.4624 48.7726 63.0474 48.7967V48.9544H68.6141V48.8007C68.1373 48.7852 67.7682 48.7084 67.5069 48.5507C67.2033 48.3652 67.0495 48.0133 67.0495 47.4934V39.3892C67.0495 38.8405 67.2417 38.4626 67.6147 38.2714C67.8108 38.1752 68.1452 38.1147 68.6144 38.0908V37.9294L63.0491 37.9292Z" fill="#FFD730"/>
<path d="M69.0598 37.4468V38.5434L69.3866 38.5589C69.9498 38.5946 70.165 38.6713 70.2438 38.7127C70.3823 38.7818 70.5513 38.923 70.5513 39.3893V47.4935C70.5513 47.9539 70.386 48.102 70.259 48.1711C70.1707 48.2201 69.9475 48.3047 69.3903 48.3239L69.0596 48.3364V49.4407H79.4741L80.293 45.2771H79.1897L79.0898 45.4818C78.6017 46.5467 78.0402 47.2772 77.4251 47.651C76.808 48.0267 75.9892 48.2201 74.9954 48.2201C74.3033 48.2201 74.1074 48.1239 74.0688 48.0941C73.9554 48.0134 73.9381 47.7826 73.9381 47.651V43.9603C74.5956 44.0016 75.0685 44.1535 75.3261 44.4167C75.6376 44.7474 75.8565 45.3596 75.9604 46.2313L75.9988 46.5349H77.0791V40.2022H76.0219L75.968 40.4876C75.7643 41.5766 75.4798 42.0532 75.2798 42.2638C75.053 42.5013 74.584 42.6339 73.9381 42.6627V39.1479C73.9381 38.897 73.9957 38.801 74.0112 38.7855C74.0112 38.7855 74.1497 38.6972 74.7762 38.6972C76.0295 38.6972 76.8867 38.8741 77.3328 39.22C77.7673 39.5633 78.0901 40.2359 78.2786 41.224L78.3401 41.5018H79.3934V37.4487H69.0596L69.0598 37.4468Z" fill="#010202"/>
<path d="M69.5386 37.9292V38.0906C69.9827 38.1224 70.2939 38.1905 70.4785 38.2877C70.8475 38.4838 71.036 38.8529 71.036 39.3919V47.4952C71.036 48.0266 70.8554 48.3947 70.4977 48.5957C70.2976 48.7121 69.9709 48.7687 69.5403 48.7965V48.9579H79.0706C79.1109 48.7608 79.6473 46.0506 79.7012 45.7633H79.4935C78.9707 46.8734 78.3612 47.6509 77.6789 48.066C76.9868 48.4889 76.0836 48.7042 74.9976 48.7042C74.3881 48.7042 73.9998 48.6312 73.7905 48.4889C73.5695 48.3322 73.4522 48.0507 73.4522 47.6509V43.4605H73.5924C74.5805 43.4605 75.28 43.6709 75.6781 44.0862C76.0491 44.4821 76.2952 45.1319 76.4239 46.0506H76.6027V40.6866H76.4202C76.2317 41.6017 75.9761 42.232 75.6341 42.5984C75.263 42.982 74.5999 43.1675 73.5966 43.1549H73.4544V39.1481C73.4544 38.782 73.5427 38.5396 73.7196 38.4051C73.8849 38.2754 74.2233 38.2129 74.7808 38.2129C76.1609 38.2129 77.0951 38.4196 77.6295 38.8386C78.1447 39.2384 78.5098 39.9765 78.7367 41.0136H78.9136V37.9275H69.5388L69.5386 37.9292Z" fill="#FFD730"/>
<path fill-rule="evenodd" clip-rule="evenodd" d="M0.200684 0L49.6136 0.0046333V3.49977e-05H99.8311V73.0843C99.8311 99.4732 77.535 120.791 50.0132 120.791C22.5232 120.791 0.200684 99.4733 0.200684 73.0843V0ZM50.3602 0.746626V0.751294L0.947274 0.746661V73.0843C0.947274 99.0304 22.9042 120.044 50.0132 120.044C77.1537 120.044 99.0845 99.0305 99.0845 73.0843V0.746626H50.3602Z" fill="black"/>
<line x1="1" y1="60.5" x2="99" y2="60.5" stroke="black"/>
</g>
<defs>
<clipPath id="clip0_275_78562">
<rect width="100" height="120.88" fill="white"/>
</clipPath>
</defs>
</svg>
