<svg width="100" height="121" viewBox="0 0 100 121" fill="none" xmlns="http://www.w3.org/2000/svg">
<g clip-path="url(#clip0_275_78865)">
<path d="M49.9658 0.373779H99.6254V73.1515C99.6254 99.3049 77.405 120.506 50.0015 120.506L49.9658 0.373779Z" fill="#E8423F"/>
<path d="M50.0014 120.507C22.5909 120.507 0.374512 99.3054 0.374512 73.1517V0.373779H49.9657L50.0014 120.507Z" fill="white"/>
<path d="M77.8161 11.4197L81.1522 20.4628H90.0306L83.0187 25.2556L85.6864 33.8382L77.8161 28.7809L70.0094 33.8382L72.6729 25.1906L65.6055 20.4628H74.4783L77.8161 11.4197Z" fill="white"/>
<path d="M77.8161 11.4197L81.1522 20.4628H90.0306L83.0187 25.2556L85.6864 33.8382L77.8161 28.7809L70.0094 33.8382L72.6729 25.1906L65.6055 20.4628H74.4783L77.8161 11.4197Z" stroke="#010202"/>
<path d="M77.8161 33.4177L81.1522 42.4694H90.0306L83.0187 47.2556L85.6864 55.8382L77.8161 50.7829L70.0094 55.8382L72.6729 47.1906L65.6055 42.4694H74.4783L77.8161 33.4177Z" fill="white"/>
<path d="M77.8161 33.4177L81.1522 42.4694H90.0306L83.0187 47.2556L85.6864 55.8382L77.8161 50.7829L70.0094 55.8382L72.6729 47.1906L65.6055 42.4694H74.4783L77.8161 33.4177Z" stroke="#010202"/>
<path d="M77.8161 55.417L81.1522 64.4658H90.0306L83.0187 69.2588L85.6864 77.8411L77.8161 72.7858L70.0094 77.8411L72.6729 69.1936L65.6055 64.4658H74.4783L77.8161 55.417Z" fill="white"/>
<path d="M77.8161 55.417L81.1522 64.4658H90.0306L83.0187 69.2588L85.6864 77.8411L77.8161 72.7858L70.0094 77.8411L72.6729 69.1936L65.6055 64.4658H74.4783L77.8161 55.417Z" stroke="#010202"/>
<path d="M77.8161 77.4216L81.1522 86.4677H90.0306L83.0187 91.2585L85.6864 99.8372L77.8161 94.7819L70.0094 99.8372L72.6729 91.1897L65.6055 86.4677H74.4783L77.8161 77.4216Z" fill="white"/>
<path d="M77.8161 77.4216L81.1522 86.4677H90.0306L83.0187 91.2585L85.6864 99.8372L77.8161 94.7819L70.0094 99.8372L72.6729 91.1897L65.6055 86.4677H74.4783L77.8161 77.4216Z" stroke="#010202"/>
<path d="M22.1935 11.4197L25.5294 20.4628H34.4022L27.3971 25.2556L30.0656 33.8382L22.1935 28.7809L14.3866 33.8382L17.0551 25.1906L9.98096 20.4628H18.8547L22.1935 11.4197Z" fill="#E8423F"/>
<path d="M22.1935 11.4197L25.5294 20.4628H34.4022L27.3971 25.2556L30.0656 33.8382L22.1935 28.7809L14.3866 33.8382L17.0551 25.1906L9.98096 20.4628H18.8547L22.1935 11.4197Z" stroke="#010202"/>
<path d="M22.1935 33.4177L25.5294 42.4694H34.4022L27.3971 47.2556L30.0656 55.8382L22.1935 50.7829L14.3866 55.8382L17.0551 47.1906L9.98096 42.4694H18.8547L22.1935 33.4177Z" fill="#E8423F"/>
<path d="M22.1935 33.4177L25.5294 42.4694H34.4022L27.3971 47.2556L30.0656 55.8382L22.1935 50.7829L14.3866 55.8382L17.0551 47.1906L9.98096 42.4694H18.8547L22.1935 33.4177Z" stroke="#010202"/>
<path d="M22.1935 55.417L25.5294 64.4658H34.4022L27.3971 69.2588L30.0656 77.8411L22.1935 72.7858L14.3866 77.8411L17.0551 69.1936L9.98096 64.4658H18.8547L22.1935 55.417Z" fill="#E8423F"/>
<path d="M22.1935 55.417L25.5294 64.4658H34.4022L27.3971 69.2588L30.0656 77.8411L22.1935 72.7858L14.3866 77.8411L17.0551 69.1936L9.98096 64.4658H18.8547L22.1935 55.417Z" stroke="#010202"/>
<path d="M22.1935 77.4216L25.5294 86.4677H34.4022L27.3971 91.2585L30.0656 99.8372L22.1935 94.7819L14.3866 99.8372L17.0551 91.1897L9.98096 86.4677H18.8547L22.1935 77.4216Z" fill="#E8423F"/>
<path d="M22.1935 77.4216L25.5294 86.4677H34.4022L27.3971 91.2585L30.0656 99.8372L22.1935 94.7819L14.3866 99.8372L17.0551 91.1897L9.98096 86.4677H18.8547L22.1935 77.4216Z" stroke="#010202"/>
<path d="M49.986 21.4784L42.1149 26.4705L44.7902 17.8882L37.7793 13.0981H46.656L49.986 4.11719V21.4784Z" fill="#E8423F"/>
<path d="M49.9858 4.11719L53.3219 13.1669H62.2004L55.127 17.8882L57.8638 26.5376L49.9858 21.4784V4.11719Z" fill="white"/>
<path d="M49.986 4.11719L53.3221 13.1669H62.2005L55.1271 17.8882L57.8639 26.5376L49.986 21.4784L42.1149 26.4705L44.7902 17.8882L37.7793 13.0981H46.656L49.986 4.11719Z" stroke="#010202"/>
<path d="M49.986 43.4797L42.1149 48.4698L44.7902 39.8874L37.7793 35.0983H46.656L49.986 26.1174V43.4797Z" fill="#E8423F"/>
<path d="M49.9858 26.1174L53.3219 35.1652H62.2004L55.127 39.8874L57.8638 48.534L49.9858 43.4797V26.1174Z" fill="white"/>
<path d="M49.986 26.1174L53.3221 35.1652H62.2005L55.1271 39.8874L57.8639 48.534L49.986 43.4797L42.1149 48.4698L44.7902 39.8874L37.7793 35.0983H46.656L49.986 26.1174Z" stroke="#010202"/>
<path d="M49.986 65.4806L42.1149 70.4707L44.7902 61.8921L37.7793 57.099H46.656L49.986 48.1201V65.4806Z" fill="#E8423F"/>
<path d="M49.9858 48.1201L53.3219 57.1682H62.2004L55.127 61.8921L57.8638 70.5359L49.9858 65.4806V48.1201Z" fill="white"/>
<path d="M49.986 48.1201L53.3221 57.1682H62.2005L55.1271 61.8921L57.8639 70.5359L49.986 65.4806L42.1149 70.4707L44.7902 61.8921L37.7793 57.099H46.656L49.986 48.1201Z" stroke="#010202"/>
<path d="M49.986 87.4846L42.1149 92.4747L44.7902 83.8923L37.7793 79.0993H46.656L49.986 70.1147V87.4846Z" fill="#E8423F"/>
<path d="M49.9858 70.1147L53.3219 79.1645H62.2004L55.127 83.8923L57.8638 92.5379L49.9858 87.4846V70.1147Z" fill="white"/>
<path d="M49.986 70.1147L53.3221 79.1645H62.2005L55.1271 83.8923L57.8639 92.5379L49.986 87.4846L42.1149 92.4747L44.7902 83.8923L37.7793 79.0993H46.656L49.986 70.1147Z" stroke="#010202"/>
<path d="M49.9858 92.1204L53.3219 101.166H62.2004L55.127 105.888L57.8638 114.538L49.9858 109.481V92.1204Z" fill="white"/>
<path d="M49.986 109.481L42.1149 114.474L44.7902 105.888L37.7793 101.097H46.656L49.986 92.1204V109.481Z" fill="#E8423F"/>
<path d="M49.9657 0.373782L50.0013 120.507M49.9657 0.373782H99.6252V73.1515C99.6252 99.3049 77.4049 120.506 50.0013 120.506C22.5909 120.506 0.374512 99.3049 0.374512 73.1515V0.373535L49.9657 0.373782ZM49.9859 92.1204L53.3217 101.166H62.2002L55.1231 105.888L57.8636 114.536L49.9856 109.48L42.1143 114.474L44.7877 105.888L37.7787 101.097H46.6552L49.9859 92.1204Z" stroke="#010202"/>
</g>
<defs>
<clipPath id="clip0_275_78865">
<rect width="100" height="120.88" fill="white"/>
</clipPath>
</defs>
</svg>
