<svg width="100" height="121" viewBox="0 0 100 121" fill="none" xmlns="http://www.w3.org/2000/svg">
<g clip-path="url(#clip0_275_78439)">
<path d="M49.9867 0.373291H99.4575V73.0843C99.4575 99.2518 77.3441 120.418 50.013 120.418C22.7135 120.418 0.57373 99.2518 0.57373 73.0843V0.373291L49.9867 0.377924V0.373291Z" fill="white"/>
<path d="M1 75V37H49.9607H99V75H1Z" fill="#006FB5"/>
<path fill-rule="evenodd" clip-rule="evenodd" d="M0.200684 0L49.6136 0.0046333V3.49977e-05H99.8311V73.0843C99.8311 99.4732 77.535 120.791 50.0132 120.791C22.5232 120.791 0.200684 99.4733 0.200684 73.0843V0ZM50.3602 0.746626V0.751294L0.947274 0.746661V73.0843C0.947274 99.0304 22.9042 120.044 50.0132 120.044C77.1537 120.044 99.0845 99.0305 99.0845 73.0843V0.746626H50.3602Z" fill="black"/>
</g>
<defs>
<clipPath id="clip0_275_78439">
<rect width="100" height="120.885" fill="white"/>
</clipPath>
</defs>
</svg>
